<svg xmlns="http://www.w3.org/2000/svg" width="600" height="600"><g style="display:inline"><path d="M300 190H120s-50 0-50 110 50 110 50 110h50v-50c0-40 30-70 70-70h119.934c30.066 0 50.066-20 50.48-50.48S410 120 410 120s0-50-110-50-110 50-110 50v50h110z" style="fill:#387eb8;fill-opacity:1"/><path d="M300 410h180s50 0 50-110-50-110-50-110h-50v50c0 40-30 70-70 70H240c-30 0-50 20-50 50v120s0 50 110 50 110-50 110-50v-50H300Z" style="fill:#ffc331;fill-opacity:1"/><circle cx="240" cy="120" r="20" style="fill:#fff;fill-opacity:1"/><circle cx="360" cy="480" r="20" style="fill:#fff;fill-opacity:1"/></g></svg>