<?xml version="1.0" encoding="UTF-8" standalone="no"?>
<svg
   id="Layer_1"
   data-name="Layer 1"
   viewBox="0 0 553 300"
   version="1.1"
   sodipodi:docname="DevOps - ops.svg"
   inkscape:version="1.3.2 (091e20e, 2023-11-25)"
   xml:space="preserve"
   xmlns:inkscape="http://www.inkscape.org/namespaces/inkscape"
   xmlns:sodipodi="http://sodipodi.sourceforge.net/DTD/sodipodi-0.dtd"
   xmlns="http://www.w3.org/2000/svg"
   xmlns:svg="http://www.w3.org/2000/svg"><sodipodi:namedview
     id="namedview61"
     pagecolor="#ffffff"
     bordercolor="#000000"
     borderopacity="0.25"
     inkscape:showpageshadow="2"
     inkscape:pageopacity="0.0"
     inkscape:pagecheckerboard="0"
     inkscape:deskcolor="#d1d1d1"
     inkscape:zoom="1.8959609"
     inkscape:cx="448.32148"
     inkscape:cy="132.65042"
     inkscape:window-width="2272"
     inkscape:window-height="1212"
     inkscape:window-x="2383"
     inkscape:window-y="129"
     inkscape:window-maximized="0"
     inkscape:current-layer="Layer_1" /><defs
     id="defs1"><style
       id="style1">.cls-1{fill:#2f93e0;}.cls-2{fill:#0f2535;}.cls-3{fill:#fff;}.cls-4{fill:#666;}</style></defs><title
     id="title1">webimage-devops</title><path
     class="cls-1"
     d="m 327.12002,226.60726 c -1.87208,-3.07753 -1.90838,-6.66735 1.41069,-8.96501 l 18.36487,-11.19897 c -26.44289,-14.35043 -34.55236,-28.14091 -47.59567,-47.99242 l 0.25922,-0.11319 c -0.3936,-0.89695 -0.0111,-1.9448 0.86772,-2.3773 l 8.56023,-4.16232 c 1.59011,-0.67039 1.53523,-2.94231 -0.0854,-3.53513 l -38.0596,-14.23628 c -0.98317,-0.37381 -2.08237,0.12698 -2.44549,1.11415 l -14.21803,38.01308 c -0.60802,1.5909 1.02287,3.11659 2.56976,2.404 l 8.58341,-4.3036 c 0.90488,-0.45731 2.00909,-0.0918 2.46236,0.81514 l 0.0396,0.0907 v 0 c 5.46521,10.90789 13.0139,24.94209 25.25014,40.3312 12.23624,15.38911 26.99152,26.07288 45.9057,36.00738 z"
     id="path5"
     style="fill:#e02fd8;fill-opacity:1"
     sodipodi:nodetypes="cccccccccccccccszcc" /><path
     class="cls-2"
     d="M520.13,125.39,496.8,152a7.13,7.13,0,0,1-4.93,2.42l-.48,0a7.12,7.12,0,0,1-4.72-1.79l-19.55-17.15c-.44,6.56-1.88,15-5.49,27.21-5,17-14.21,30.39-26.55,38.7-14.58,9.81-33.39,12.64-55.89,8.45l0-.14h0a1.83,1.83,0,0,1-1.37-2.2l2.75-11.87A3.45,3.45,0,0,0,375.3,192l-45,28.16a3.44,3.44,0,0,0-1,4.76.75.75,0,0,0,.07.12l28.14,51.19a3.46,3.46,0,0,0,6.24-1.21l2.63-12.66a1.83,1.83,0,0,1,2.85-1.12,156.25,156.25,0,0,0,27.62,2.52c33.15,0,63.53-11.15,86.15-32.2C510.11,206.36,523.1,168.92,520.13,125.39Z"
     id="path6"
     style="fill:#f40000;fill-opacity:1" /><path
     class="cls-2"
     d="m 312.11,87 c 0.93613,-0.385007 2.00699,0.06305 2.39,1 l 4.6,11.38 c 0.52001,1.14338 1.69727,1.84176 2.95,1.75 1.28768,-0.008 2.42654,-0.83713 2.83,-2.06 l 18.44,-49.64 c 0.59861,-1.634626 -0.23754,-3.445522 -1.87,-4.05 L 293.6,29 c -2.63625,-1.019594 -5.17735,1.680325 -4,4.25 l 5.61,10.82 c 0.46762,0.897381 0.11818,2.003924 -0.78,2.47 h -0.11 l 0.08,0.19 c -20.99144,9.816374 -31.6136,22.897077 -40.52363,37.306307 -8.91002,14.40923 -8.26108,45.400643 3.20242,73.172583 l 8.45168,-23.30486 c 1.3882,-3.36034 4.02375,-3.99202 8.26235,-2.36726 l 17.12862,6.45846 C 286.17808,110.21502 296.78571,98.301892 311.36,87.52 c 0.20118,-0.234885 0.45948,-0.413975 0.75,-0.52 z"
     id="path7"
     style="fill:#f1c42e;fill-opacity:1"
     sodipodi:nodetypes="ccccccccccccczcccccc" /><path
     class="cls-2"
     d="M337.33,76.11c30.43-11.86,49-11.3,57.5-11h.2c29.4.92,53.35,18,64.83,38l-.67,0s0,0,0,0a1.85,1.85,0,0,1-1.76,1.92l-9.86.43a3.51,3.51,0,0,0-2.06,6.14l43.57,38.25a3.52,3.52,0,0,0,2.54.86,3.48,3.48,0,0,0,2.41-1.19l38.29-43.61a3.51,3.51,0,0,0-2.86-5.82l-14.23,1.27a1.84,1.84,0,0,1-2-1.67,1.7,1.7,0,0,1,.06-.6c-6.69-18.9-24.21-55-64.11-72.42C414.4,11.5,371.34,14.15,321,34.51l21.67,7.43a6.85,6.85,0,0,1,4.08,8.78Z"
     id="path8"
     style="fill:#e57100;fill-opacity:1" /><path
     class="cls-3"
     d="m 271.58843,111.05319 5.9864,1.3559 -0.56539,2.41686 -14.41135,-3.27178 1.20525,-5.33148 a 5.87,5.87 0 0 1 1.93253,-3.47999 3.9,3.9 0 0 1 3.41756,-0.61868 3.25,3.25 0 0 1 1.79252,1.02002 4,4 0 0 1 0.91581,1.97975 3.07,3.07 0 0 1 1.68006,-1.4358 4.14,4.14 0 0 1 2.2735,-0.0487 l 1.21224,0.27944 a 5.16,5.16 0 0 0 1.27429,0.12117 1.83,1.83 0 0 0 1.03956,-0.32282 l 0.22986,0.0535 -0.53939,2.44728 a 1.65,1.65 0 0 1 -1.15016,0.28575 8.31,8.31 0 0 1 -1.39565,-0.20162 l -1.18943,-0.29893 a 2.54,2.54 0 0 0 -1.90499,0.23367 2.39,2.39 0 0 0 -1.05445,1.59832 z m -1.93004,-0.44211 0.63753,-2.79422 a 3.35,3.35 0 0 0 -0.0802,-2.23341 2.15,2.15 0 0 0 -1.54193,-1.05003 2.31,2.31 0 0 0 -1.85841,0.27278 2.85,2.85 0 0 0 -1.05914,1.83911 l -0.66157,2.92 z"
     id="path11" /><path
     class="cls-3"
     d="m 281.83874,97.984467 a 4.82,4.82 0 0 1 -3.09593,2.574493 5.67,5.67 0 0 1 -4.11855,-0.614606 l -0.35321,-0.192467 a 5.81,5.81 0 0 1 -2.8518,-3.046862 4.36,4.36 0 0 1 0.22538,-3.778849 4.31,4.31 0 0 1 2.79173,-2.377868 5.27,5.27 0 0 1 3.74288,0.645741 l 1.27871,0.680364 -3.2049,6.07166 0.0268,0.05368 a 3.47,3.47 0 0 0 2.24933,0.318576 2.46,2.46 0 0 0 1.64637,-1.336397 5.32,5.32 0 0 0 0.58661,-1.62311 5.55,5.55 0 0 0 0.0231,-1.542876 l 1.79777,0.06345 a 5,5 0 0 1 0.0483,1.887264 6.87,6.87 0 0 1 -0.7926,2.217808 z m -8.46381,-4.167525 a 1.89,1.89 0 0 0 -0.0589,1.672552 3.51,3.51 0 0 0 1.28727,1.50324 v 0 l 2.04557,-3.84955 -0.22355,-0.111908 a 2.6,2.6 0 0 0 -1.75293,-0.331759 2,2 0 0 0 -1.29744,1.117425 z"
     id="path12" /><path
     class="cls-3"
     d="m 286.0608,89.599814 -1.3407,2.054003 -13.23006,-8.762163 1.3407,-2.054003 z"
     id="path13" /><path
     class="cls-3"
     d="m 291.09185,83.646486 a 4.85,4.85 0 0 1 -3.51341,1.964119 5.66,5.66 0 0 1 -3.9296,-1.367019 l -0.31523,-0.249855 a 5.75,5.75 0 0 1 -2.24285,-3.502751 4.77,4.77 0 0 1 4.08752,-5.509285 5.3,5.3 0 0 1 3.53496,1.339415 l 1.13733,0.900818 -4.26669,5.364731 0.0144,0.04788 a 3.49,3.49 0 0 0 2.1516,0.731799 2.44,2.44 0 0 0 1.8654,-1.019942 5.33,5.33 0 0 0 0.87002,-1.483094 5.53,5.53 0 0 0 0.30776,-1.512542 l 1.75682,0.390984 a 5,5 0 0 1 -0.29611,1.864059 7,7 0 0 1 -1.16191,2.040678 z m -7.55397,-5.645006 a 1.86,1.86 0 0 0 -0.36805,1.624634 3.69,3.69 0 0 0 0.98635,1.718868 l 0.0479,-0.01439 2.71491,-3.405299 -0.20408,-0.157952 a 2.6,2.6 0 0 0 -1.6669,-0.647721 2,2 0 0 0 -1.51011,0.881859 z"
     id="path14" /><path
     class="cls-3"
     d="m 300.31561,74.638077 c -0.25594,-0.1407 -0.49375,-0.294484 -0.72007,-0.440004 a 5,5 0 0 1 -0.6278,-0.495555 4.49,4.49 0 0 1 -0.0727,1.855805 3.35,3.35 0 0 1 -0.98605,1.660033 3.62,3.62 0 0 1 -2.51317,1.17919 3.19,3.19 0 0 1 -2.33533,-1.088865 2.86,2.86 0 0 1 -0.79885,-2.666277 6,6 0 0 1 1.94823,-3.093282 l 1.39096,-1.351086 -0.66155,-0.702825 a 1.77,1.77 0 0 0 -1.3063,-0.61811 2,2 0 0 0 -1.3834,0.650769 2,2 0 0 0 -0.6934,1.21725 1.29,1.29 0 0 0 0.36085,1.096258 l -1.75867,1.643983 v 0 a 2.72,2.72 0 0 1 -0.74697,-2.47209 4.93,4.93 0 0 1 1.62712,-2.949815 4.73,4.73 0 0 1 2.91852,-1.427558 3.42,3.42 0 0 1 2.78201,1.218771 l 3.36693,3.504483 a 9.37,9.37 0 0 0 0.97004,0.85523 6.19,6.19 0 0 0 1.0529,0.679632 z m -3.41434,0.809199 a 3.11,3.11 0 0 0 0.89997,-1.504175 2.39,2.39 0 0 0 -0.0241,-1.455032 l -1.12338,-1.174741 -1.4107,1.3543 a 2.44,2.44 0 0 0 -0.85246,1.547098 1.6,1.6 0 0 0 0.41916,1.329924 1.25,1.25 0 0 0 0.99299,0.436096 1.71,1.71 0 0 0 1.09855,-0.53347 z"
     id="path15" /><path
     class="cls-3"
     d="m 307.94033,66.07117 a 1.11,1.11 0 0 0 -0.93,-0.51 4.74,4.74 0 0 0 -1.87,0.47 7.78,7.78 0 0 1 -3.14,0.69 2.49,2.49 0 0 1 -2,-1.17 3,3 0 0 1 -0.35,-2.61 4.64,4.64 0 0 1 2,-2.52 4.75,4.75 0 0 1 3.2,-1 2.92,2.92 0 0 1 2.31,1.4 v 0.06 l -2,1.32 a 1.59,1.59 0 0 0 -1.08,-0.68 2.45,2.45 0 0 0 -2.36,1.49 1.25,1.25 0 0 0 0.16,1.07 1.1,1.1 0 0 0 0.88,0.52 4.76,4.76 0 0 0 1.93,-0.53 7.6,7.6 0 0 1 3.22,-0.73 2.55,2.55 0 0 1 2,1.2 2.89,2.89 0 0 1 0.33,2.68 5.27,5.27 0 0 1 -2.15,2.57 4.88,4.88 0 0 1 -3.42,1 3.07,3.07 0 0 1 -2.38,-1.43 v -0.06 l 1.9,-1.28 a 1.63,1.63 0 0 0 1.35,0.76 2.75,2.75 0 0 0 1.56,-0.52 2.53,2.53 0 0 0 1,-1.13 1.17,1.17 0 0 0 -0.16,-1.06 z"
     id="path16" /><path
     class="cls-3"
     d="m 318.23197,64.232806 a 4.82,4.82 0 0 1 -3.95,0.79 5.63,5.63 0 0 1 -3.32,-2.51 l -0.23,-0.33 a 5.87,5.87 0 0 1 -1.05,-4.08 4.36,4.36 0 0 1 2,-3.21 4.3,4.3 0 0 1 3.58,-0.77 5.28,5.28 0 0 1 3,2.36 l 0.8,1.21 -5.71,3.79 v 0 a 3.51,3.51 0 0 0 1.82,1.36 2.43,2.43 0 0 0 2.09,-0.39 5.48,5.48 0 0 0 1.29,-1.15 6,6 0 0 0 0.75,-1.34 l 1.56,0.91 a 5.16,5.16 0 0 1 -0.86,1.68 6.85,6.85 0 0 1 -1.77,1.68 z m -5.45,-7.69 a 1.84,1.84 0 0 0 -0.85,1.43 3.57,3.57 0 0 0 0.41,1.94 v 0 l 3.63,-2.41 -0.14,-0.21 a 2.6,2.6 0 0 0 -1.39,-1.12 1.92,1.92 0 0 0 -1.66,0.37 z"
     id="path17" /><path
     class="cls-3"
     d="M402.79,48.53l2-14.65,4.74.66a6.16,6.16,0,0,1,4.29,2.36A6.06,6.06,0,0,1,415,41.62l-.3,2.22a6.09,6.09,0,0,1-2.36,4.24,6.27,6.27,0,0,1-4.77,1.11ZM407,36.18,405.5,46.91l2.24.3a3.61,3.61,0,0,0,3-.79,4.51,4.51,0,0,0,1.46-2.92l.31-2.24a4.47,4.47,0,0,0-.62-3.19,3.62,3.62,0,0,0-2.7-1.58Z"
     id="path18" /><path
     class="cls-3"
     d="M420,52a4.74,4.74,0,0,1-3.19-2.45,5.64,5.64,0,0,1-.31-4.15l.11-.39A5.81,5.81,0,0,1,419,41.49a4.78,4.78,0,0,1,6.67,1.59,5.3,5.3,0,0,1,.19,3.8l-.38,1.4-6.62-1.81,0,.05a3.43,3.43,0,0,0,.18,2.26,2.41,2.41,0,0,0,1.67,1.31,5.16,5.16,0,0,0,1.7.22A5.82,5.82,0,0,0,423.9,50l.34,1.77a5,5,0,0,1-1.83.46A6.59,6.59,0,0,1,420,52Zm2.2-9.16a1.86,1.86,0,0,0-1.64.3,3.71,3.71,0,0,0-1.19,1.59v.05l4.2,1.15.07-.25a2.62,2.62,0,0,0-.07-1.78A1.92,1.92,0,0,0,422.22,42.8Z"
     id="path19" /><path
     class="cls-3"
     d="M436.56,52.24a6.24,6.24,0,0,1-2.49,3.17,3.73,3.73,0,0,1-3.46.19,3.88,3.88,0,0,1-1.41-.92,3.27,3.27,0,0,1-.78-1.38l-2,5-2.29-.92,5.67-14.12,1.93.78-.29,1.37a3.81,3.81,0,0,1,1.62-.62,3.71,3.71,0,0,1,1.76.27,3.66,3.66,0,0,1,2.34,2.67,7.26,7.26,0,0,1-.53,4.36Zm-2.2-1.12a5.39,5.39,0,0,0,.44-2.79,2.07,2.07,0,0,0-1.36-1.7,2.49,2.49,0,0,0-1.34-.18A2.3,2.3,0,0,0,431,47l-1.85,4.6a2.24,2.24,0,0,0,.47,1.14,2.6,2.6,0,0,0,1.12.79,2.12,2.12,0,0,0,2.09-.16,4.33,4.33,0,0,0,1.49-2Z"
     id="path20" /><path
     class="cls-3"
     d="M438.62,59.09,436.41,58l7.14-14.14L445.76,45Z"
     id="path21" /><path
     class="cls-3"
     d="M443.39,55.17a6,6,0,0,1,3.26-2.72,5.14,5.14,0,0,1,6.29,3.88,6,6,0,0,1-1,4.13l-.11.19a6,6,0,0,1-3.27,2.73,5.18,5.18,0,0,1-6.29-3.9,6,6,0,0,1,1-4.13Zm2,1.47a4.93,4.93,0,0,0-.84,2.56,2.39,2.39,0,0,0,3.31,2,4.8,4.8,0,0,0,1.92-1.89l.11-.18a4.75,4.75,0,0,0,.81-2.54,2.35,2.35,0,0,0-3.3-2,4.75,4.75,0,0,0-1.89,1.87Z"
     id="path22" /><path
     class="cls-3"
     d="M455.89,65l-.48,1,0,0,6.62-4.56,2.13,1.66-11.38,7.16a5.65,5.65,0,0,1-2.17.79,3,3,0,0,1-2.27-.75,3.3,3.3,0,0,1-.48-.45,5.37,5.37,0,0,1-.44-.53L448.86,68l.27.26.28.24a1.4,1.4,0,0,0,1.13.3,4.09,4.09,0,0,0,1.16-.43l.94-.53,3.54-11,2.12,1.66Z"
     id="path23" /><path
     class="cls-3"
     d="M433.85,232.87a6.22,6.22,0,0,1-.07,4.8,5.78,5.78,0,0,1-3.54,3.18,5.61,5.61,0,0,1-4.67-.21,6.3,6.3,0,0,1-3.09-3.66l-.9-2.5a6.27,6.27,0,0,1,0-4.78,5.61,5.61,0,0,1,3.44-3.15,5.81,5.81,0,0,1,4.77.18,6.25,6.25,0,0,1,3.13,3.64Zm-3.22-1.69a4.59,4.59,0,0,0-2-2.51,3.31,3.31,0,0,0-2.92-.21,3.13,3.13,0,0,0-2,2,4.75,4.75,0,0,0,.15,3.18l.91,2.52a4.81,4.81,0,0,0,1.93,2.56,3.12,3.12,0,0,0,2.83.24,3.26,3.26,0,0,0,2.11-2,4.59,4.59,0,0,0-.12-3.21Z"
     id="path24" /><path
     class="cls-3"
     d="M445.32,228.1a6.21,6.21,0,0,1,.77,4A3.72,3.72,0,0,1,444,234.8a3.84,3.84,0,0,1-1.63.46,3.36,3.36,0,0,1-1.55-.3l2.44,4.73-2.19,1.14-7-13.53,1.85-1,.85,1.12a3.51,3.51,0,0,1,.59-1.63,3.59,3.59,0,0,1,1.35-1.16,3.65,3.65,0,0,1,3.55,0,7.22,7.22,0,0,1,3,3.25ZM443,229a5.35,5.35,0,0,0-1.82-2.15,2.09,2.09,0,0,0-2.18-.09,2.55,2.55,0,0,0-1,.9,2.48,2.48,0,0,0-.35,1.21l2.28,4.4a2.25,2.25,0,0,0,1.17.4,2.58,2.58,0,0,0,1.33-.34,2.09,2.09,0,0,0,1.24-1.69,4.27,4.27,0,0,0-.56-2.45Z"
     id="path25" /><path
     class="cls-3"
     d="M454.43,228.55a4.77,4.77,0,0,1-3.94.8,5.64,5.64,0,0,1-3.33-2.49l-.23-.34a5.81,5.81,0,0,1-1.06-4.07,4.77,4.77,0,0,1,5.58-4,5.26,5.26,0,0,1,3,2.34l.81,1.21-5.7,3.8v.06a3.47,3.47,0,0,0,1.83,1.35,2.39,2.39,0,0,0,2.08-.4,5,5,0,0,0,1.28-1.15,5.3,5.3,0,0,0,.76-1.34l1.55.91a5.12,5.12,0,0,1-.85,1.68A6.68,6.68,0,0,1,454.43,228.55ZM449,220.88a1.84,1.84,0,0,0-.84,1.43,3.59,3.59,0,0,0,.41,1.94l.05,0,3.62-2.42-.14-.21a2.64,2.64,0,0,0-1.39-1.12A2,2,0,0,0,449,220.88Z"
     id="path26" /><path
     class="cls-3"
     d="M458.86,214l-.85.63a2.3,2.3,0,0,0-.75,1,2.09,2.09,0,0,0,0,1.14l4.79,5.95-1.92,1.54-6.89-8.55,1.76-1.42,1.12,1.14a3.61,3.61,0,0,1,0-1.7,2.42,2.42,0,0,1,.88-1.31,1.77,1.77,0,0,1,.34-.24l.33-.15Z"
     id="path27" /><path
     class="cls-3"
     d="M471.06,214.56a7.43,7.43,0,0,1-.73-.44,5.82,5.82,0,0,1-.63-.48,4.51,4.51,0,0,1-.06,1.86,3.41,3.41,0,0,1-1,1.66,3.63,3.63,0,0,1-2.51,1.2,3.2,3.2,0,0,1-2.34-1.11,2.87,2.87,0,0,1-.83-2.66,6.17,6.17,0,0,1,1.93-3.1l1.38-1.33-.67-.7a1.8,1.8,0,0,0-1.3-.62,2.07,2.07,0,0,0-1.38.66,2,2,0,0,0-.68,1.23,1.29,1.29,0,0,0,.36,1.1l-1.7,1.65-.05,0a2.73,2.73,0,0,1-.77-2.47,4.94,4.94,0,0,1,1.61-2.95,4.66,4.66,0,0,1,2.9-1.45,3.42,3.42,0,0,1,2.8,1.19l3.4,3.51a8.77,8.77,0,0,0,1,.88,7.28,7.28,0,0,0,1.06.67Zm-3.41.83a3.14,3.14,0,0,0,.89-1.5,2.38,2.38,0,0,0,0-1.46l-1.13-1.17L466,212.63a2.42,2.42,0,0,0-.84,1.55,1.63,1.63,0,0,0,.43,1.33,1.29,1.29,0,0,0,1,.43A1.64,1.64,0,0,0,467.65,215.39Z"
     id="path28" /><path
     class="cls-3"
     d="M466.52,199.28l2,1.75,1.29-1.5,1.38,1.19-1.28,1.5,4.6,4a1.32,1.32,0,0,0,.93.4,1,1,0,0,0,.73-.4,1.72,1.72,0,0,0,.23-.32,2.7,2.7,0,0,0,.17-.34l1.54,1a2.89,2.89,0,0,1-.29.74,4.52,4.52,0,0,1-.51.75,2.87,2.87,0,0,1-2,1.1,3.51,3.51,0,0,1-2.4-1.05l-4.6-4-1.1,1.27-1.38-1.19,1.09-1.27-2-1.74Z"
     id="path29" /><path
     class="cls-3"
     d="M483,200.65a4.81,4.81,0,0,1-3.41,2.14,5.6,5.6,0,0,1-4-1.15l-.33-.23a5.87,5.87,0,0,1-2.44-3.43,4.36,4.36,0,0,1,.72-3.72,4.32,4.32,0,0,1,3.08-2,5.26,5.26,0,0,1,3.62,1.13l1.18.84-4,5.58,0,.05a3.46,3.46,0,0,0,2.18.62,2.46,2.46,0,0,0,1.81-1.12,5.09,5.09,0,0,0,.79-1.53,5.82,5.82,0,0,0,.23-1.52l1.77.29a5.11,5.11,0,0,1-.19,1.88A7.23,7.23,0,0,1,483,200.65Zm-7.85-5.24a1.89,1.89,0,0,0-.28,1.65,3.62,3.62,0,0,0,1.08,1.66H476l2.53-3.54-.21-.15a2.6,2.6,0,0,0-1.69-.56A2,2,0,0,0,475.14,195.41Z"
     id="path30" /><path
     class="cls-3"
     d="m 291.51299,169.63211 -4.90652,7.03433 v 0 l 8.34218,-2.09957 1.28663,1.86865 -8.56272,5.97663 -0.98489,-1.46032 2.93889,-2.0163 3.82183,-2.43272 v 0 l -8.42596,2.0667 -0.69371,-0.97019 4.88553,-7.11775 v 0 l -3.6046,2.70051 -2.93888,2.0163 -0.97556,-1.45667 8.5797,-5.93772 z"
     id="path31" /><path
     class="cls-3"
     d="m 291.86336,181.53122 a 4.2,4.2 0 0 1 2.85751,-0.87741 3.61,3.61 0 0 1 3.02801,4.24859 4.21,4.21 0 0 1 -1.7569,2.42607 l -0.11828,0.0825 a 4.26,4.26 0 0 1 -2.88343,0.88874 3.66,3.66 0 0 1 -3.02436,-4.25791 4.27,4.27 0 0 1 1.76621,-2.42242 z m 0.8905,1.50923 a 3.37,3.37 0 0 0 -1.24927,1.43284 1.5,1.5 0 0 0 0.22768,1.52861 1.52,1.52 0 0 0 1.36965,0.69818 3.33,3.33 0 0 0 1.78124,-0.76236 l 0.11828,-0.0825 a 3.31,3.31 0 0 0 1.21771,-1.43447 1.51,1.51 0 0 0 -0.21109,-1.54359 1.49,1.49 0 0 0 -1.37695,-0.67956 3.38,3.38 0 0 0 -1.74272,0.69154 z"
     id="path32" /><path
     class="cls-3"
     d="m 300.85094,187.48291 -0.84917,0.74116 a 2.76,2.76 0 0 1 1.31816,0.22685 2.61,2.61 0 0 1 1.03268,0.84532 2.44,2.44 0 0 1 0.53146,1.95922 3.31,3.31 0 0 1 -1.44476,1.90398 l -3.9339,2.88289 -1.02905,-1.40245 3.92094,-2.87722 a 1.75,1.75 0 0 0 0.78781,-1.023 1.49,1.49 0 0 0 -0.36037,-1.10803 1.85,1.85 0 0 0 -0.71907,-0.60419 2,2 0 0 0 -0.89064,-0.16659 l -4.53061,3.33633 -1.03837,-1.40609 6.25835,-4.59231 z"
     id="path33" /><path
     class="cls-3"
     d="m 299.9423,199.1139 -1.08454,-1.3705 6.0767,-4.8139 1.08819,1.36118 z m 7.56348,-6.00324 -1.07523,-1.36684 1.18577,-0.94215 1.08819,1.36118 z"
     id="path34" /><path
     class="cls-3"
     d="m 310.06899,196.18881 -1.43985,1.26143 0.89486,1.05982 -0.99337,0.83498 -0.89122,-1.06912 -3.29043,2.7485 a 0.92,0.92 0 0 0 -0.38588,0.60058 0.74,0.74 0 0 0 0.19315,0.54836 1,1 0 0 0 0.2019,0.19733 1.25,1.25 0 0 0 0.21651,0.16007 l -0.86066,0.96223 a 2,2 0 0 1 -0.54272,-0.3417 2.75,2.75 0 0 1 -0.45801,-0.44814 2,2 0 0 1 -0.53583,-1.5098 2.45,2.45 0 0 1 1.00886,-1.55932 l 3.28679,-2.73919 -0.72291,-0.89572 0.99337,-0.83498 0.72291,0.89571 1.44023,-1.20758 z"
     id="path35" /><path
     class="cls-3"
     d="m 307.4194,201.95984 a 4.22,4.22 0 0 1 2.74395,-1.19046 3.63,3.63 0 0 1 3.48418,3.87965 4.18,4.18 0 0 1 -1.48618,2.63964 l -0.11263,0.0955 a 4.18,4.18 0 0 1 -2.75691,1.19614 3.64,3.64 0 0 1 -3.48052,-3.88897 4.25,4.25 0 0 1 1.49548,-2.63599 z m 1.05497,1.39113 a 3.45,3.45 0 0 0 -1.07567,1.56536 1.67,1.67 0 0 0 1.82259,2.03584 3.38,3.38 0 0 0 1.6801,-0.88796 l 0.11628,-0.10478 a 3.32,3.32 0 0 0 1.04975,-1.55403 1.65,1.65 0 0 0 -1.83191,-2.0395 3.42,3.42 0 0 0 -1.64851,0.88959 z"
     id="path36" /><path
     class="cls-3"
     d="m 317.5609,209.65296 -0.49033,-0.55747 a 1.63,1.63 0 0 0 -0.73859,-0.47221 1.41,1.41 0 0 0 -0.80374,0.05 l -3.89845,3.72385 -1.20082,-1.2657 5.59039,-5.32684 1.09603,1.14944 -0.73506,0.86108 a 2.48,2.48 0 0 1 1.19894,-0.0992 1.78,1.78 0 0 1 0.98228,0.53554 l 0.1873,0.23456 a 1.56,1.56 0 0 1 0.12779,0.22197 z"
     id="path37" /><path
     class="cls-4"
     d="M355.62,133.57a21.27,21.27,0,0,1-1.85,9.14,13.84,13.84,0,0,1-5.27,6.06,15.56,15.56,0,0,1-15.7,0,14.07,14.07,0,0,1-5.33-6,20.75,20.75,0,0,1-1.92-9V132a21.21,21.21,0,0,1,1.88-9.17,14.09,14.09,0,0,1,5.31-6.09,15.58,15.58,0,0,1,15.69,0,14.09,14.09,0,0,1,5.31,6.09,21.15,21.15,0,0,1,1.88,9.15Zm-7.37-1.6c0-3.7-.67-6.51-2-8.43a7,7,0,0,0-11.32,0q-2,2.85-2,8.35v1.72c0,3.61.67,6.4,2,8.39a7,7,0,0,0,11.35.11c1.31-1.91,2-4.71,2-8.37Z"
     id="path59" /><path
     class="cls-4"
     d="M368.17,138v12.43H360.9v-35.3h13.77a16,16,0,0,1,7,1.46,10.74,10.74,0,0,1,4.64,4.13,11.57,11.57,0,0,1,1.62,6.1,10.11,10.11,0,0,1-3.55,8.18q-3.56,3-9.83,3Zm0-5.9h6.5a6.42,6.42,0,0,0,4.4-1.35,5,5,0,0,0,1.52-3.88,5.84,5.84,0,0,0-1.53-4.2,5.71,5.71,0,0,0-4.22-1.64h-6.67Z"
     id="path60" /><path
     class="cls-4"
     d="M411.23,141.16a3.72,3.72,0,0,0-1.45-3.16,19.1,19.1,0,0,0-5.24-2.33,37.74,37.74,0,0,1-6-2.41q-6-3.25-6-8.75a8.58,8.58,0,0,1,1.61-5.11,10.59,10.59,0,0,1,4.63-3.5,17.43,17.43,0,0,1,6.78-1.26A15.91,15.91,0,0,1,412.3,116a10.67,10.67,0,0,1,4.59,3.87,10.1,10.1,0,0,1,1.64,5.67h-7.28a4.75,4.75,0,0,0-1.52-3.77,6.27,6.27,0,0,0-4.29-1.35,6.74,6.74,0,0,0-4.15,1.13,3.54,3.54,0,0,0-1.48,3,3.41,3.41,0,0,0,1.74,2.89,19.66,19.66,0,0,0,5.1,2.18q6.21,1.86,9,4.63a9.22,9.22,0,0,1,2.84,6.88,8.5,8.5,0,0,1-3.47,7.19q-3.46,2.61-9.33,2.61a18.08,18.08,0,0,1-7.42-1.49,11.77,11.77,0,0,1-5.1-4.09,10.39,10.39,0,0,1-1.76-6h7.3q0,5.84,7,5.84a6.82,6.82,0,0,0,4-1A3.44,3.44,0,0,0,411.23,141.16Z"
     id="path61" /></svg>
