<?xml version="1.0" encoding="UTF-8" standalone="no"?>
<!-- Created with Inkscape (http://www.inkscape.org/) -->

<svg
   xmlns:dc="http://purl.org/dc/elements/1.1/"
   xmlns:cc="http://creativecommons.org/ns#"
   xmlns:rdf="http://www.w3.org/1999/02/22-rdf-syntax-ns#"
   xmlns:svg="http://www.w3.org/2000/svg"
   xmlns="http://www.w3.org/2000/svg"
   xmlns:xlink="http://www.w3.org/1999/xlink"
   xmlns:sodipodi="http://sodipodi.sourceforge.net/DTD/sodipodi-0.dtd"
   xmlns:inkscape="http://www.inkscape.org/namespaces/inkscape"
   width="20mm"
   height="20mm"
   viewBox="0 0 20 20"
   version="1.1"
   id="svg1039"
   inkscape:version="0.92.4 (f8dce91, 2019-08-02)"
   sodipodi:docname="testerembyc_icon.svg">
  <defs
     id="defs1033">
    <radialGradient
       inkscape:collect="always"
       xlink:href="#linearGradient5689"
       id="radialGradient919"
       gradientUnits="userSpaceOnUse"
       gradientTransform="matrix(0,-0.98175075,0.77989777,0,19.37179,182.16642)"
       cx="64.326332"
       cy="96.215584"
       fx="64.326332"
       fy="96.215584"
       r="7.0193777" />
    <linearGradient
       inkscape:collect="always"
       id="linearGradient5689">
      <stop
         style="stop-color:#ffffff;stop-opacity:1;"
         offset="0"
         id="stop5685" />
      <stop
         style="stop-color:#ffffff;stop-opacity:0;"
         offset="1"
         id="stop5687" />
    </linearGradient>
  </defs>
  <sodipodi:namedview
     id="base"
     pagecolor="#ffffff"
     bordercolor="#666666"
     borderopacity="1.0"
     inkscape:pageopacity="0.0"
     inkscape:pageshadow="2"
     inkscape:zoom="5.6"
     inkscape:cx="-28.991432"
     inkscape:cy="26.808653"
     inkscape:document-units="mm"
     inkscape:current-layer="layer1"
     showgrid="false"
     inkscape:snap-page="true"
     inkscape:window-width="1920"
     inkscape:window-height="1025"
     inkscape:window-x="0"
     inkscape:window-y="1107"
     inkscape:window-maximized="1" />
  <metadata
     id="metadata1036">
    <rdf:RDF>
      <cc:Work
         rdf:about="">
        <dc:format>image/svg+xml</dc:format>
        <dc:type
           rdf:resource="http://purl.org/dc/dcmitype/StillImage" />
        <dc:title></dc:title>
      </cc:Work>
    </rdf:RDF>
  </metadata>
  <g
     inkscape:label="Layer 1"
     inkscape:groupmode="layer"
     id="layer1"
     transform="translate(0,-277)">
    <g
       transform="matrix(1.0199441,0,0,1.0199441,-0.69802429,-29.320044)"
       id="g4656"
       inkscape:export-xdpi="20.73"
       inkscape:export-ydpi="20.73"
       inkscape:export-filename="/home/maq/git/testerembyc/images/icon_16x16.png">
      <rect
         y="300.33023"
         x="0.68438643"
         height="19.608906"
         width="19.608906"
         id="rect855"
         style="opacity:1;fill:none;fill-opacity:1;stroke:none;stroke-width:0.38428652;stroke-miterlimit:4;stroke-dasharray:none;stroke-opacity:1" />
      <g
         id="g917"
         transform="matrix(0.66790733,0,0,0.66790733,-52.484256,230.83754)"
         inkscape:export-filename="/home/maq/testerembyc_white.png"
         inkscape:export-xdpi="309.29999"
         inkscape:export-ydpi="309.29999">
        <path
           style="fill:none;fill-opacity:1;stroke:#ffffff;stroke-width:2.09781361;stroke-linecap:butt;stroke-linejoin:miter;stroke-miterlimit:4;stroke-dasharray:none;stroke-opacity:1"
           d="m 87.851056,107.65028 c 0,0 1.477443,-0.34242 1.477443,-0.34242 0,0 1.573071,-0.36459 1.573071,-0.36459 0,0 1.678296,-0.38898 1.678296,-0.38898 0,0 1.794438,-0.41589 1.794438,-0.41589 3.989108,-0.92455 3.989108,-0.92455 6.214756,2.02857 0,0 1.17854,1.56374 1.17854,1.56374 0,0 1.22587,1.62658 1.22587,1.62658 0,0 1.27611,1.69322 1.27611,1.69322 0,0 1.3295,1.76407 1.3295,1.76407 2.83318,3.75924 2.83318,3.75924 0,7.51838 0,0 -1.3295,1.76402 -1.3295,1.76402 0,0 -1.27611,1.69319 -1.27611,1.69319 0,0 -1.22587,1.6265 -1.22587,1.6265 0,0 -1.17854,1.56373 -1.17854,1.56373 -2.225638,2.95304 -2.225638,2.95304 -6.214787,2.02849 0,0 -1.794449,-0.41588 -1.794449,-0.41588 0,0 -1.678305,-0.38898 -1.678305,-0.38898 0,0 -1.573079,-0.36457 -1.573079,-0.36457 0,0 -1.477453,-0.34243 -1.477453,-0.34243 -2.700903,-0.62597 -2.700903,-0.62597 -3.938507,-3.41544 0,0 -0.593298,-1.33726 -0.593298,-1.33726 0,0 -0.577221,-1.30103 -0.577221,-1.30103 0,0 -0.561786,-1.26623 -0.561786,-1.26623 0,0 -0.546971,-1.23283 -0.546971,-1.23283 -1.051744,-2.37058 -1.051744,-2.37058 1.8e-5,-4.74115 0,0 0.546976,-1.23283 0.546976,-1.23283 0,0 0.5618,-1.26624 0.5618,-1.26624 0,0 0.577233,-1.30102 0.577233,-1.30102 0,0 0.593307,-1.33726 0.593307,-1.33726 1.237628,-2.78947 1.237628,-2.78947 3.938518,-3.41546 0,0 0,0 0,0"
           id="path857"
           inkscape:connector-curvature="0"
           sodipodi:nodetypes="ccccccccccccccccccccccccccccccc" />
        <path
           sodipodi:nodetypes="ccccccccccccccccccccccccccccccc"
           inkscape:connector-curvature="0"
           id="path859"
           d="m 88.15101,108.1596 c 0,0 1.408555,-0.32646 1.408555,-0.32646 0,0 1.499724,-0.34759 1.499724,-0.34759 0,0 1.600043,-0.37084 1.600043,-0.37084 0,0 1.71077,-0.3965 1.71077,-0.3965 3.80311,-0.88144 3.80311,-0.88144 5.924978,1.93398 0,0 1.12359,1.49084 1.12359,1.49084 0,0 1.16871,1.55073 1.16871,1.55073 0,0 1.21661,1.61427 1.21661,1.61427 0,0 1.26752,1.68182 1.26752,1.68182 2.70108,3.58396 2.70108,3.58396 0,7.16783 0,0 -1.26752,1.68177 -1.26752,1.68177 0,0 -1.21661,1.61424 -1.21661,1.61424 0,0 -1.16871,1.55067 -1.16871,1.55067 0,0 -1.12359,1.49081 -1.12359,1.49081 -2.121858,2.81535 -2.121858,2.81535 -5.925008,1.93391 0,0 -1.71078,-0.39649 -1.71078,-0.39649 0,0 -1.600051,-0.37084 -1.600051,-0.37084 0,0 -1.499733,-0.34758 -1.499733,-0.34758 0,0 -1.408564,-0.32646 -1.408564,-0.32646 -2.574969,-0.59678 -2.574969,-0.59678 -3.754868,-3.25619 0,0 -0.565635,-1.27491 -0.565635,-1.27491 0,0 -0.550307,-1.24037 -0.550307,-1.24037 0,0 -0.535592,-1.20719 -0.535592,-1.20719 0,0 -0.521467,-1.17534 -0.521467,-1.17534 -1.002706,-2.26005 -1.002706,-2.26005 1.7e-5,-4.52009 0,0 0.521472,-1.17534 0.521472,-1.17534 0,0 0.535605,-1.2072 0.535605,-1.2072 0,0 0.550319,-1.24036 0.550319,-1.24036 0,0 0.565643,-1.27491 0.565643,-1.27491 1.179922,-2.65941 1.179922,-2.65941 3.754879,-3.25621 0,0 0,0 0,0"
           style="fill:#ffffff;fill-opacity:1;stroke:#000000;stroke-width:2;stroke-linecap:butt;stroke-linejoin:miter;stroke-miterlimit:4;stroke-dasharray:none;stroke-opacity:1" />
        <g
           style="stroke:#ffffff;stroke-opacity:1"
           id="g865"
           transform="matrix(0,-1.0683229,1.0683229,0,-7.8341971,188.27027)">
          <path
             style="fill:#ffffff;fill-opacity:1;stroke:#ffffff;stroke-width:0.5;stroke-linecap:round;stroke-miterlimit:4;stroke-dasharray:none;stroke-opacity:1"
             d="m 70.856264,97.004792 c -0.604698,0 -1.21801,-0.353822 -1.695896,-0.971837 -0.466563,-0.603373 -0.757776,-1.399241 -0.816623,-2.202727 -0.116614,-1.59225 0.69743,-2.808629 1.811498,-2.808629 1.114067,0 2.213145,1.216379 2.469643,2.808629 0.129435,0.803486 0.02472,1.599354 -0.300457,2.202727 -0.333066,0.618015 -0.863467,0.971837 -1.468165,0.971837 0,0 0,0 0,0"
             id="path861"
             inkscape:connector-curvature="0" />
          <path
             inkscape:connector-curvature="0"
             transform="scale(0.26458333)"
             id="path863"
             d="m 274.5305,359.25358 c 0.22343,-1.48081 0.20715,-3.05438 -0.042,-4.61933 -0.25147,-1.53843 -0.72233,-3.03417 -1.37866,-4.39716 -0.002,10e-4 -0.004,0.002 -0.006,0.003 -0.0674,0.0265 -0.13673,0.0497 -0.20772,0.0693 -0.0711,0.0195 -0.1438,0.0354 -0.21775,0.0478 -0.0732,0.0123 -0.14758,0.021 -0.22282,0.0262 -0.0538,0.003 -0.10801,0.005 -0.1625,0.005 -0.0769,3e-5 -0.15422,-0.004 -0.23179,-0.0108 -0.0772,-0.007 -0.15457,-0.018 -0.23173,-0.0324 -0.0776,-0.0145 -0.15489,-0.0325 -0.2316,-0.054 -0.0762,-0.0212 -0.15171,-0.0459 -0.22626,-0.0739 -0.0748,-0.028 -0.14849,-0.0594 -0.22086,-0.0939 -0.0723,-0.0348 -0.14305,-0.0728 -0.21213,-0.11375 -0.069,-0.0406 -0.13615,-0.0842 -0.20128,-0.13048 -0.0651,-0.0464 -0.12814,-0.0955 -0.18877,-0.14714 -0.0607,-0.0517 -0.11886,-0.10581 -0.17438,-0.16218 -0.0555,-0.0564 -0.10833,-0.11507 -0.15816,-0.17562 -0.0497,-0.0602 -0.0964,-0.12227 -0.1399,-0.18594 -0.0439,-0.0639 -0.0845,-0.1294 -0.12167,-0.19618 -0.0366,-0.0662 -0.0698,-0.13354 -0.0996,-0.20183 -0.0301,-0.0689 -0.0566,-0.13859 -0.0795,-0.20892 -0.0227,-0.0701 -0.0418,-0.14064 -0.0571,-0.21146 -0.011,-0.0497 -0.0202,-0.0995 -0.0275,-0.14922 -0.009,-0.0709 -0.015,-0.1417 -0.0168,-0.2121 -0.002,-0.0701 -7.4e-4,-0.13968 0.005,-0.20859 0.005,-0.0692 0.0135,-0.13769 0.0259,-0.20512 0.0133,-0.067 0.0303,-0.13276 0.051,-0.19718 0.0201,-0.0646 0.0439,-0.1278 0.0711,-0.1893 0.0276,-0.0613 0.0588,-0.12091 0.0933,-0.17849 0.0342,-0.0575 0.0717,-0.11302 0.1124,-0.16627 0.0408,-0.0532 0.0848,-0.10419 0.1317,-0.15264 0.047,-0.0485 0.0969,-0.0944 0.14959,-0.13759 0.0522,-0.0432 0.10714,-0.0836 0.1645,-0.12113 -1.6208,-1.58942 -3.50199,-2.45176 -5.32508,-2.45281 -4.21037,3e-4 -7.28682,4.59738 -6.84626,10.615 0.47168,6.43832 4.73661,11.99758 9.4956,11.99797 2.06108,-0.001 3.90339,-1.09203 5.17273,-3.04377 -0.0225,-0.0127 -0.0448,-0.0258 -0.067,-0.0391 -0.0746,-0.047 -0.14741,-0.0974 -0.21799,-0.1509 -0.0706,-0.0537 -0.13891,-0.11045 -0.2047,-0.17014 -0.0658,-0.0598 -0.12904,-0.12234 -0.18938,-0.18751 -0.0604,-0.0652 -0.1178,-0.13301 -0.17207,-0.20301 -0.0541,-0.0696 -0.10501,-0.14132 -0.15253,-0.21491 -0.0477,-0.0733 -0.092,-0.14839 -0.13278,-0.22497 -0.0402,-0.077 -0.0768,-0.15545 -0.10956,-0.23494 -0.0331,-0.0796 -0.0624,-0.16012 -0.0878,-0.24136 -0.0251,-0.0803 -0.0463,-0.16128 -0.0635,-0.24249 -0.0125,-0.058 -0.023,-0.11601 -0.0315,-0.17407 -0.0109,-0.0819 -0.0177,-0.16362 -0.0204,-0.24491 -0.003,-0.0809 -0.002,-0.16127 0.003,-0.24082 0.004,-0.0799 0.0129,-0.15894 0.0255,-0.23677 0.0135,-0.0773 0.031,-0.15322 0.0525,-0.22756 0.0209,-0.0746 0.0457,-0.14747 0.0743,-0.21843 0.029,-0.0708 0.0618,-0.1395 0.0982,-0.20593 0.0361,-0.0664 0.0757,-0.13037 0.11884,-0.1918 0.0432,-0.0614 0.0899,-0.12017 0.1397,-0.17605 0.0499,-0.0559 0.10301,-0.10886 0.15907,-0.15867 0.0556,-0.0498 0.11409,-0.0964 0.17525,-0.13969 0.0619,-0.0432 0.12648,-0.0829 0.19341,-0.11908 0.066,-0.0365 0.13437,-0.0693 0.20473,-0.0985 0.0709,-0.0287 0.14381,-0.0536 0.21834,-0.0747 0.074,-0.0214 0.14969,-0.0389 0.22663,-0.0526 0.0773,-0.0136 0.1558,-0.0232 0.23523,-0.0288 0.0563,-0.004 0.11301,-0.007 0.17006,-0.007 0.0807,5.1e-4 0.1619,0.005 0.24336,0.0135 0.0811,0.008 0.16229,0.0198 0.2434,0.0356 0.0809,0.0154 0.1616,0.0346 0.24179,0.0577 0.0608,0.0188 0.12121,0.0398 0.18111,0.0629 0,0 6.4e-4,-5e-5 6.4e-4,-5e-5"
             style="fill:#000000;fill-opacity:1;stroke:#ffffff;stroke-width:1.88976383;stroke-linecap:round;stroke-miterlimit:4;stroke-dasharray:none;stroke-opacity:1" />
        </g>
        <path
           style="fill:#ff0000;fill-opacity:1;stroke:#ffffff;stroke-width:0.51578605;stroke-miterlimit:4;stroke-dasharray:none;stroke-opacity:1"
           d="m 98.793261,119.54956 c 0,4.47863 -3.057012,7.61681 -6.402021,7.07794 -2.952131,-0.47556 -5.102395,-3.71557 -5.102396,-7.28502 0,-3.56947 2.150264,-6.73205 5.102396,-7.10133 1.552629,-0.19424 3.134515,0.41299 4.364123,1.74381 1.287567,1.39354 2.037898,3.41389 2.037898,5.5646 0,0 0,0 0,0"
           id="path867"
           inkscape:connector-curvature="0" />
        <path
           inkscape:connector-curvature="0"
           id="path869"
           d="m 91.974609,118.38867 -3.845703,2.08008 c -0.713944,0.0906 -1.309304,0.40016 -1.773437,0.71875 -0.563803,0.387 -0.976563,0.78125 -0.976563,0.78125 a 0.91369383,0.91369383 0 1 0 1.257813,1.32422 c 0,0 0.321689,-0.30427 0.751953,-0.59961 0.430263,-0.29534 0.984934,-0.48973 1.072266,-0.48438 l 0.259765,0.0176 3.224609,-1.74609 3.765626,2.17383 0.214843,0.0137 c 0.346954,0.0213 1.311359,0.47614 2.048828,0.98437 0.73747,0.50824 1.302735,1.00586 1.302735,1.00586 a 0.91369383,0.91369383 0 1 0 1.208986,-1.36914 c 0,0 -0.635878,-0.56456 -1.474611,-1.14258 -0.739607,-0.5097 -1.616616,-1.01758 -2.595703,-1.19336 z"
           style="color:#000000;font-style:normal;font-variant:normal;font-weight:normal;font-stretch:normal;font-size:medium;line-height:normal;font-family:sans-serif;font-variant-ligatures:normal;font-variant-position:normal;font-variant-caps:normal;font-variant-numeric:normal;font-variant-alternates:normal;font-feature-settings:normal;text-indent:0;text-align:start;text-decoration:none;text-decoration-line:none;text-decoration-style:solid;text-decoration-color:#000000;letter-spacing:normal;word-spacing:normal;text-transform:none;writing-mode:lr-tb;direction:ltr;text-orientation:mixed;dominant-baseline:auto;baseline-shift:baseline;text-anchor:start;white-space:normal;shape-padding:0;clip-rule:nonzero;display:inline;overflow:visible;visibility:visible;opacity:1;isolation:auto;mix-blend-mode:normal;color-interpolation:sRGB;color-interpolation-filters:linearRGB;solid-color:#000000;solid-opacity:1;vector-effect:none;fill:#000000;fill-opacity:1;fill-rule:nonzero;stroke:#ffffff;stroke-width:0.30000001;stroke-linecap:round;stroke-linejoin:miter;stroke-miterlimit:4;stroke-dasharray:none;stroke-dashoffset:0;stroke-opacity:1;color-rendering:auto;image-rendering:auto;shape-rendering:auto;text-rendering:auto;enable-background:accumulate" />
        <path
           inkscape:connector-curvature="0"
           id="path871"
           d="m 85.550781,118.40625 a 0.91369383,0.91369383 0 1 0 -0.03125,1.82617 l 15.207029,0.27344 a 0.91369383,0.91369383 0 1 0 0.0332,-1.82617 z"
           style="color:#000000;font-style:normal;font-variant:normal;font-weight:normal;font-stretch:normal;font-size:medium;line-height:normal;font-family:sans-serif;font-variant-ligatures:normal;font-variant-position:normal;font-variant-caps:normal;font-variant-numeric:normal;font-variant-alternates:normal;font-feature-settings:normal;text-indent:0;text-align:start;text-decoration:none;text-decoration-line:none;text-decoration-style:solid;text-decoration-color:#000000;letter-spacing:normal;word-spacing:normal;text-transform:none;writing-mode:lr-tb;direction:ltr;text-orientation:mixed;dominant-baseline:auto;baseline-shift:baseline;text-anchor:start;white-space:normal;shape-padding:0;clip-rule:nonzero;display:inline;overflow:visible;visibility:visible;opacity:1;isolation:auto;mix-blend-mode:normal;color-interpolation:sRGB;color-interpolation-filters:linearRGB;solid-color:#000000;solid-opacity:1;vector-effect:none;fill:#000000;fill-opacity:1;fill-rule:nonzero;stroke:#ffffff;stroke-width:0.30000001;stroke-linecap:round;stroke-linejoin:miter;stroke-miterlimit:4;stroke-dasharray:none;stroke-dashoffset:0;stroke-opacity:1;color-rendering:auto;image-rendering:auto;shape-rendering:auto;text-rendering:auto;enable-background:accumulate" />
        <g
           transform="matrix(0,-0.98175075,0.98175075,0,0.30472683,182.16642)"
           id="g877">
          <path
             inkscape:connector-curvature="0"
             id="path873"
             d="m 70.856264,97.004792 c -0.604698,0 -1.21801,-0.353822 -1.695896,-0.971837 -0.466563,-0.603373 -0.757776,-1.399241 -0.816623,-2.202727 -0.116614,-1.59225 0.69743,-2.808629 1.811498,-2.808629 1.114067,0 2.213145,1.216379 2.469643,2.808629 0.129435,0.803486 0.02472,1.599354 -0.300457,2.202727 -0.333066,0.618015 -0.863467,0.971837 -1.468165,0.971837 0,0 0,0 0,0"
             style="fill:#ffffff;fill-opacity:1;stroke:#000000;stroke-width:0.5;stroke-linecap:round;stroke-miterlimit:4;stroke-dasharray:none;stroke-opacity:1" />
          <path
             style="fill:#000000;fill-opacity:1;stroke:none;stroke-width:1.88976383;stroke-linecap:round;stroke-miterlimit:4;stroke-dasharray:none;stroke-opacity:1"
             d="m 274.5305,359.25358 c 0.22343,-1.48081 0.20715,-3.05438 -0.042,-4.61933 -0.25147,-1.53843 -0.72233,-3.03417 -1.37866,-4.39716 -0.002,10e-4 -0.004,0.002 -0.006,0.003 -0.0674,0.0265 -0.13673,0.0497 -0.20772,0.0693 -0.0711,0.0195 -0.1438,0.0354 -0.21775,0.0478 -0.0732,0.0123 -0.14758,0.021 -0.22282,0.0262 -0.0538,0.003 -0.10801,0.005 -0.1625,0.005 -0.0769,3e-5 -0.15422,-0.004 -0.23179,-0.0108 -0.0772,-0.007 -0.15457,-0.018 -0.23173,-0.0324 -0.0776,-0.0145 -0.15489,-0.0325 -0.2316,-0.054 -0.0762,-0.0212 -0.15171,-0.0459 -0.22626,-0.0739 -0.0748,-0.028 -0.14849,-0.0594 -0.22086,-0.0939 -0.0723,-0.0348 -0.14305,-0.0728 -0.21213,-0.11375 -0.069,-0.0406 -0.13615,-0.0842 -0.20128,-0.13048 -0.0651,-0.0464 -0.12814,-0.0955 -0.18877,-0.14714 -0.0607,-0.0517 -0.11886,-0.10581 -0.17438,-0.16218 -0.0555,-0.0564 -0.10833,-0.11507 -0.15816,-0.17562 -0.0497,-0.0602 -0.0964,-0.12227 -0.1399,-0.18594 -0.0439,-0.0639 -0.0845,-0.1294 -0.12167,-0.19618 -0.0366,-0.0662 -0.0698,-0.13354 -0.0996,-0.20183 -0.0301,-0.0689 -0.0566,-0.13859 -0.0795,-0.20892 -0.0227,-0.0701 -0.0418,-0.14064 -0.0571,-0.21146 -0.011,-0.0497 -0.0202,-0.0995 -0.0275,-0.14922 -0.009,-0.0709 -0.015,-0.1417 -0.0168,-0.2121 -0.002,-0.0701 -7.4e-4,-0.13968 0.005,-0.20859 0.005,-0.0692 0.0135,-0.13769 0.0259,-0.20512 0.0133,-0.067 0.0303,-0.13276 0.051,-0.19718 0.0201,-0.0646 0.0439,-0.1278 0.0711,-0.1893 0.0276,-0.0613 0.0588,-0.12091 0.0933,-0.17849 0.0342,-0.0575 0.0717,-0.11302 0.1124,-0.16627 0.0408,-0.0532 0.0848,-0.10419 0.1317,-0.15264 0.047,-0.0485 0.0969,-0.0944 0.14959,-0.13759 0.0522,-0.0432 0.10714,-0.0836 0.1645,-0.12113 -1.6208,-1.58942 -3.50199,-2.45176 -5.32508,-2.45281 -4.21037,3e-4 -7.28682,4.59738 -6.84626,10.615 0.47168,6.43832 4.73661,11.99758 9.4956,11.99797 2.06108,-0.001 3.90339,-1.09203 5.17273,-3.04377 -0.0225,-0.0127 -0.0448,-0.0258 -0.067,-0.0391 -0.0746,-0.047 -0.14741,-0.0974 -0.21799,-0.1509 -0.0706,-0.0537 -0.13891,-0.11045 -0.2047,-0.17014 -0.0658,-0.0598 -0.12904,-0.12234 -0.18938,-0.18751 -0.0604,-0.0652 -0.1178,-0.13301 -0.17207,-0.20301 -0.0541,-0.0696 -0.10501,-0.14132 -0.15253,-0.21491 -0.0477,-0.0733 -0.092,-0.14839 -0.13278,-0.22497 -0.0402,-0.077 -0.0768,-0.15545 -0.10956,-0.23494 -0.0331,-0.0796 -0.0624,-0.16012 -0.0878,-0.24136 -0.0251,-0.0803 -0.0463,-0.16128 -0.0635,-0.24249 -0.0125,-0.058 -0.023,-0.11601 -0.0315,-0.17407 -0.0109,-0.0819 -0.0177,-0.16362 -0.0204,-0.24491 -0.003,-0.0809 -0.002,-0.16127 0.003,-0.24082 0.004,-0.0799 0.0129,-0.15894 0.0255,-0.23677 0.0135,-0.0773 0.031,-0.15322 0.0525,-0.22756 0.0209,-0.0746 0.0457,-0.14747 0.0743,-0.21843 0.029,-0.0708 0.0618,-0.1395 0.0982,-0.20593 0.0361,-0.0664 0.0757,-0.13037 0.11884,-0.1918 0.0432,-0.0614 0.0899,-0.12017 0.1397,-0.17605 0.0499,-0.0559 0.10301,-0.10886 0.15907,-0.15867 0.0556,-0.0498 0.11409,-0.0964 0.17525,-0.13969 0.0619,-0.0432 0.12648,-0.0829 0.19341,-0.11908 0.066,-0.0365 0.13437,-0.0693 0.20473,-0.0985 0.0709,-0.0287 0.14381,-0.0536 0.21834,-0.0747 0.074,-0.0214 0.14969,-0.0389 0.22663,-0.0526 0.0773,-0.0136 0.1558,-0.0232 0.23523,-0.0288 0.0563,-0.004 0.11301,-0.007 0.17006,-0.007 0.0807,5.1e-4 0.1619,0.005 0.24336,0.0135 0.0811,0.008 0.16229,0.0198 0.2434,0.0356 0.0809,0.0154 0.1616,0.0346 0.24179,0.0577 0.0608,0.0188 0.12121,0.0398 0.18111,0.0629 0,0 6.4e-4,-5e-5 6.4e-4,-5e-5"
             id="path875"
             transform="scale(0.26458333)"
             inkscape:connector-curvature="0" />
        </g>
        <path
           inkscape:connector-curvature="0"
           id="path879"
           d="m 100.31641,114.21289 a 0.91369383,0.91369383 0 0 0 -0.556644,0.22461 c 0,0 -0.563861,0.47703 -1.298828,0.95703 -0.734968,0.48001 -1.690091,0.89555 -2.035157,0.9043 l -0.21875,0.006 -3.765625,2.03711 -3.224609,-1.86133 -0.255859,0.008 c -0.08529,0.002 -0.652422,-0.21608 -1.085938,-0.5293 -0.433516,-0.31321 -0.757813,-0.63086 -0.757812,-0.63086 a 0.91369383,0.91369383 0 1 0 -1.283204,1.30079 c 0,0 0.410252,0.40562 0.970704,0.81054 0.462404,0.33409 1.051544,0.66509 1.765624,0.7793 l 3.841797,2.2168 4.455079,-2.41016 c 0.976091,-0.14451 1.855476,-0.6194 2.59375,-1.10156 0.841412,-0.54952 1.480472,-1.09375 1.480472,-1.09375 a 0.91369383,0.91369383 0 0 0 -0.625,-1.61719 z"
           style="color:#000000;font-style:normal;font-variant:normal;font-weight:normal;font-stretch:normal;font-size:medium;line-height:normal;font-family:sans-serif;font-variant-ligatures:normal;font-variant-position:normal;font-variant-caps:normal;font-variant-numeric:normal;font-variant-alternates:normal;font-feature-settings:normal;text-indent:0;text-align:start;text-decoration:none;text-decoration-line:none;text-decoration-style:solid;text-decoration-color:#000000;letter-spacing:normal;word-spacing:normal;text-transform:none;writing-mode:lr-tb;direction:ltr;text-orientation:mixed;dominant-baseline:auto;baseline-shift:baseline;text-anchor:start;white-space:normal;shape-padding:0;clip-rule:nonzero;display:inline;overflow:visible;visibility:visible;opacity:1;isolation:auto;mix-blend-mode:normal;color-interpolation:sRGB;color-interpolation-filters:linearRGB;solid-color:#000000;solid-opacity:1;vector-effect:none;fill:#000000;fill-opacity:1;fill-rule:nonzero;stroke:#ffffff;stroke-width:0.30000001;stroke-linecap:round;stroke-linejoin:miter;stroke-miterlimit:4;stroke-dasharray:none;stroke-dashoffset:0;stroke-opacity:1;color-rendering:auto;image-rendering:auto;shape-rendering:auto;text-rendering:auto;enable-background:accumulate" />
        <path
           inkscape:connector-curvature="0"
           id="path881"
           d="m 98.515449,119.54459 c 0,4.26232 -2.909369,7.24894 -6.092825,6.7361 -2.809553,-0.4526 -4.855967,-3.53612 -4.855968,-6.93318 0,-3.39707 2.046414,-6.40692 4.855968,-6.75837 1.477642,-0.18485 2.983128,0.39305 4.153351,1.6596 1.225381,1.32624 1.939474,3.24901 1.939474,5.29585 0,0 0,0 0,0"
           style="fill:#ff0000;fill-opacity:1;stroke:#000000;stroke-width:0.49087536;stroke-miterlimit:4;stroke-dasharray:none;stroke-opacity:1" />
        <path
           style="opacity:0.43300003;fill:url(#radialGradient919);fill-opacity:1;stroke:none;stroke-width:0.49087536;stroke-miterlimit:4;stroke-dasharray:none;stroke-opacity:1"
           d="m 98.515449,119.54459 c 0,4.26232 -2.909369,7.24894 -6.092825,6.7361 -2.809553,-0.4526 -4.855967,-3.53612 -4.855968,-6.93318 0,-3.39707 2.046414,-6.40692 4.855968,-6.75837 1.477642,-0.18485 2.983128,0.39305 4.153351,1.6596 1.225381,1.32624 1.939474,3.24901 1.939474,5.29585 0,0 0,0 0,0"
           id="path883"
           inkscape:connector-curvature="0" />
        <path
           style="opacity:1;fill:#000000;fill-opacity:1;stroke:none;stroke-width:4.20388079;stroke-linecap:round;stroke-miterlimit:4;stroke-dasharray:none;stroke-opacity:1"
           d="m 89.680523,115.36153 c -0.167669,0.0846 -0.287037,0.25697 -0.314836,0.45345 0,0 0.34682,-0.17217 0.34682,-0.17217 0,0 0.188499,0.0475 0.188499,0.0475 0,0 0.104198,0.2821 0.104198,0.2821 0,0 -0.101376,0.19036 -0.101376,0.19036 0,0 -0.349112,0.16857 -0.349112,0.16857 0.0966,0.0777 0.217551,0.1135 0.340951,0.10063 0,0 0.370346,0.39924 0.370346,0.39924 0.08512,0.0971 0.214527,0.13491 0.338077,0.0982 0.124217,-0.0369 0.222641,-0.14323 0.256408,-0.27748 0.03382,-0.13445 -0.0027,-0.27489 -0.09519,-0.36612 0,0 -0.377331,-0.39714 -0.377331,-0.39714 0,0 -1.31e-4,-3.6e-4 -1.31e-4,-3.6e-4 0.0069,-0.0875 -0.0049,-0.17433 -0.03443,-0.25377 -0.05112,-0.13697 -0.151373,-0.24254 -0.278251,-0.29351 -0.126173,-0.0507 -0.268137,-0.0431 -0.394651,0.0205 0,0 7e-6,0 7e-6,0"
           id="path885"
           inkscape:connector-curvature="0" />
        <path
           inkscape:connector-curvature="0"
           id="path887"
           d="m 95.519914,114.94562 c 0.215606,0.0674 0.37121,0.24438 0.407704,0.46514 0,0 -0.44844,-0.14245 -0.44844,-0.14245 0,0 -0.23764,0.0822 -0.23764,0.0822 0,0 -0.129569,0.32944 -0.129569,0.32944 0,0 0.126045,0.19904 0.126045,0.19904 0,0 0.443353,0.14686 0.443353,0.14686 -0.124144,0.0995 -0.277986,0.1537 -0.433154,0.15311 0,0 -0.455124,0.47955 -0.455124,0.47955 -0.10242,0.1138 -0.256621,0.16554 -0.402153,0.13557 -0.144686,-0.0298 -0.258185,-0.13571 -0.296894,-0.27645 -0.03865,-0.14052 0.0031,-0.29438 0.109418,-0.40217 0,0 0.443112,-0.47645 0.443112,-0.47645 0,0 1.57e-4,-4e-4 1.57e-4,-4e-4 -0.0082,-0.0947 0.0059,-0.19125 0.0412,-0.28243 0.0614,-0.15783 0.182663,-0.2898 0.337741,-0.36694 0.156038,-0.0776 0.333813,-0.0935 0.49425,-0.0436 0,0 -3e-6,0 -3e-6,0"
           style="opacity:1;fill:#000000;fill-opacity:1;stroke:none;stroke-width:4.20388079;stroke-linecap:round;stroke-miterlimit:4;stroke-dasharray:none;stroke-opacity:1" />
        <path
           style="opacity:1;fill:#000000;fill-opacity:1;stroke:none;stroke-width:4.20388079;stroke-linecap:round;stroke-miterlimit:4;stroke-dasharray:none;stroke-opacity:1"
           d="m 96.480903,117.66908 c 0.223836,0.0804 0.385402,0.26925 0.423297,0.4962 0,0 -0.465583,-0.16965 -0.465583,-0.16965 0,0 -0.246662,0.0708 -0.246662,0.0708 0,0 -0.13447,0.32853 -0.13447,0.32853 0,0 0.130813,0.20968 0.130813,0.20968 0,0 0.460218,0.17394 0.460218,0.17394 -0.128881,0.0946 -0.288579,0.14135 -0.449633,0.13222 0,0 -0.472284,0.46347 -0.472284,0.46347 -0.106258,0.11027 -0.266227,0.15447 -0.417186,0.11593 -0.150067,-0.0383 -0.267775,-0.15244 -0.307916,-0.2979 -0.04008,-0.14522 0.0033,-0.2996 0.113479,-0.40353 0,0 0.459615,-0.46097 0.459615,-0.46097 0,0 1.63e-4,-4e-4 1.63e-4,-4e-4 -0.0085,-0.0969 0.0061,-0.19447 0.04274,-0.28542 0.0637,-0.1574 0.189516,-0.28522 0.350432,-0.35535 0.161931,-0.0706 0.346443,-0.0771 0.51298,-0.0175 0,0 -3e-6,0 -3e-6,0"
           id="path889"
           inkscape:connector-curvature="0" />
        <path
           inkscape:connector-curvature="0"
           id="path891"
           d="m 94.593863,119.87109 c 0.207823,0.0866 0.35779,0.27514 0.392959,0.49533 0,0 -0.432226,-0.18237 -0.432226,-0.18237 0,0 -0.229104,0.0582 -0.229104,0.0582 0,0 -0.124933,0.31122 -0.124933,0.31122 0,0 0.121534,0.20738 0.121534,0.20738 0,0 0.427398,0.18613 0.427398,0.18613 -0.119663,0.0859 -0.267967,0.12463 -0.417565,0.10938 0,0 -0.438882,0.42793 -0.438882,0.42793 -0.09878,0.1021 -0.247528,0.13837 -0.387928,0.0952 -0.139599,-0.0429 -0.249117,-0.15772 -0.286468,-0.29964 -0.03729,-0.14169 0.003,-0.28888 0.105595,-0.3847 0,0 0.427481,-0.42602 0.427481,-0.42602 0,0 1.51e-4,-3.8e-4 1.51e-4,-3.8e-4 -0.0079,-0.0937 0.0057,-0.18727 0.03974,-0.27347 0.05922,-0.14918 0.176175,-0.26727 0.325727,-0.32831 0.150461,-0.0614 0.321861,-0.0601 0.476527,0.004 0,0 -4e-6,0 -4e-6,0"
           style="opacity:1;fill:#000000;fill-opacity:1;stroke:none;stroke-width:4.20388079;stroke-linecap:round;stroke-miterlimit:4;stroke-dasharray:none;stroke-opacity:1" />
        <path
           inkscape:connector-curvature="0"
           id="path893"
           d="m 88.953111,117.8003 c -0.162316,0.0743 -0.277887,0.23757 -0.304803,0.42943 0,0 0.335749,-0.15099 0.335749,-0.15099 0,0 0.182458,0.0567 0.182458,0.0567 0,0 0.100844,0.28305 0.100844,0.28305 0,0 -0.09811,0.1819 -0.09811,0.1819 0,0 -0.337929,0.14739 -0.337929,0.14739 0.09352,0.0815 0.210592,0.12317 0.33003,0.11702 0,0 0.358395,0.41227 0.358395,0.41227 0.08235,0.10005 0.207567,0.14405 0.327106,0.11444 0.120174,-0.0298 0.215386,-0.12916 0.248042,-0.25943 0.0327,-0.13046 -0.0027,-0.27052 -0.09212,-0.36512 0,0 -0.365023,-0.41058 -0.365023,-0.41058 0,0 -1.25e-4,-3.5e-4 -1.25e-4,-3.5e-4 0.0066,-0.0857 -0.0048,-0.17174 -0.0333,-0.25144 -0.102868,-0.28587 -0.395433,-0.42104 -0.651205,-0.30433 0,0 -8e-6,0 -8e-6,0"
           style="opacity:1;fill:#000000;fill-opacity:1;stroke:none;stroke-width:4.20388079;stroke-linecap:round;stroke-miterlimit:4;stroke-dasharray:none;stroke-opacity:1" />
        <path
           style="opacity:1;fill:#000000;fill-opacity:1;stroke:none;stroke-width:4.20388079;stroke-linecap:round;stroke-miterlimit:4;stroke-dasharray:none;stroke-opacity:1"
           d="m 90.432193,119.76314 c -0.173293,0.0694 -0.296652,0.23274 -0.325379,0.42972 0,0 0.358434,-0.14058 0.358434,-0.14058 0,0 0.194856,0.067 0.194856,0.067 0,0 0.107721,0.2972 0.107721,0.2972 0,0 -0.104805,0.18346 -0.104805,0.18346 0,0 -0.360857,0.13663 -0.360857,0.13663 0.09984,0.0886 0.22486,0.13706 0.352421,0.13626 0,0 0.382906,0.44289 0.382906,0.44289 0.08802,0.10728 0.221854,0.15864 0.349646,0.13364 0.128493,-0.0251 0.230314,-0.12344 0.265244,-0.25663 0.03498,-0.13338 -0.0029,-0.27987 -0.09849,-0.38188 0,0 -0.39027,-0.44146 -0.39027,-0.44146 0,0 -1.36e-4,-3.7e-4 -1.36e-4,-3.7e-4 0.0071,-0.0883 -0.0051,-0.17778 -0.03561,-0.2615 -0.05286,-0.14435 -0.156529,-0.26166 -0.287713,-0.32608 -0.130445,-0.0641 -0.2772,-0.0705 -0.407972,-0.0183 0,0 3e-6,-1e-5 3e-6,-1e-5"
           id="path895"
           inkscape:connector-curvature="0" />
        <path
           inkscape:connector-curvature="0"
           id="path897"
           d="m 96.480895,121.574 c 0.223836,0.0973 0.385403,0.29824 0.423297,0.52805 0,0 -0.465583,-0.20468 -0.465583,-0.20468 0,0 -0.246662,0.0523 -0.246662,0.0523 0,0 -0.13447,0.31841 -0.13447,0.31841 0,0 0.130813,0.21953 0.130813,0.21953 0,0 0.460218,0.20856 0.460218,0.20856 -0.128882,0.0849 -0.288579,0.11963 -0.449634,0.0984 0,0 -0.472282,0.42794 -0.472282,0.42794 -0.106263,0.10225 -0.266225,0.13441 -0.417175,0.0845 -0.150058,-0.0496 -0.26776,-0.17258 -0.307902,-0.32105 -0.04008,-0.14823 0.0033,-0.29935 0.113453,-0.39499 0,0 0.459616,-0.42638 0.459616,-0.42638 0,0 1.62e-4,-3.9e-4 1.62e-4,-3.9e-4 -0.0085,-0.0975 0.0061,-0.19401 0.04274,-0.2822 0.13283,-0.31824 0.517817,-0.45757 0.863413,-0.30792 0,0 -3e-6,-3e-5 -3e-6,-3e-5"
           style="opacity:1;fill:#000000;fill-opacity:1;stroke:none;stroke-width:4.20388079;stroke-linecap:round;stroke-miterlimit:4;stroke-dasharray:none;stroke-opacity:1" />
        <path
           style="opacity:1;fill:#000000;fill-opacity:1;stroke:none;stroke-width:4.20388079;stroke-linecap:round;stroke-miterlimit:4;stroke-dasharray:none;stroke-opacity:1"
           d="m 88.953111,121.13883 c -0.162314,0.0621 -0.277881,0.21667 -0.304796,0.40651 0,0 0.335749,-0.12574 0.335749,-0.12574 0,0 0.182458,0.0705 0.182458,0.0705 0,0 0.100837,0.29064 0.100837,0.29064 0,0 -0.09811,0.17451 -0.09811,0.17451 0,0 -0.337922,0.12196 -0.337922,0.12196 0.09352,0.0886 0.210592,0.13902 0.330031,0.14185 0,0 0.358387,0.43925 0.358387,0.43925 0.08236,0.10619 0.207555,0.15957 0.327065,0.13894 0.120143,-0.0207 0.215331,-0.11294 0.247994,-0.24072 0.03271,-0.12796 -0.0026,-0.27065 -0.09202,-0.37199 0,0 -0.365023,-0.43804 -0.365023,-0.43804 0,0 -1.25e-4,-3.6e-4 -1.25e-4,-3.6e-4 0.0066,-0.0852 -0.0048,-0.1721 -0.0333,-0.25395 -0.10287,-0.2936 -0.395435,-0.45079 -0.651206,-0.35332 0,0 -1.5e-5,-3e-5 -1.5e-5,-3e-5"
           id="path899"
           inkscape:connector-curvature="0" />
        <path
           style="opacity:1;fill:#000000;fill-opacity:1;stroke:none;stroke-width:4.20388079;stroke-linecap:round;stroke-miterlimit:4;stroke-dasharray:none;stroke-opacity:1"
           d="m 94.593856,123.81572 c 0.207823,0.10303 0.35779,0.30336 0.392958,0.52632 0,0 -0.432227,-0.21645 -0.432227,-0.21645 0,0 -0.229103,0.0401 -0.229103,0.0401 0,0 -0.124932,0.30136 -0.124932,0.30136 0,0 0.121534,0.21697 0.121534,0.21697 0,0 0.427398,0.21983 0.427398,0.21983 -0.119663,0.0765 -0.267967,0.1035 -0.417565,0.0765 0,0 -0.438882,0.39331 -0.438882,0.39331 -0.09879,0.0943 -0.247525,0.11882 -0.387914,0.0646 -0.139588,-0.0539 -0.249097,-0.17732 -0.28645,-0.32217 -0.0373,-0.14463 0.003,-0.28863 0.105563,-0.37637 0,0 0.427481,-0.39229 0.427481,-0.39229 0,0 1.51e-4,-3.7e-4 1.51e-4,-3.7e-4 -0.0079,-0.0944 0.0057,-0.18682 0.03974,-0.27034 0.123484,-0.30132 0.481254,-0.41958 0.802253,-0.26094 0,0 -3e-6,-4e-5 -3e-6,-4e-5"
           id="path901"
           inkscape:connector-curvature="0" />
        <path
           inkscape:connector-curvature="0"
           id="path903"
           d="m 90.432199,123.37953 c -0.173296,0.0557 -0.296658,0.20935 -0.325385,0.40406 0,0 0.35844,-0.11231 0.35844,-0.11231 0,0 0.194856,0.0824 0.194856,0.0824 0,0 0.107721,0.3057 0.107721,0.3057 0,0 -0.104805,0.17519 -0.104805,0.17519 0,0 -0.360857,0.10816 -0.360857,0.10816 0.09984,0.0965 0.224859,0.1548 0.35242,0.16406 0,0 0.382907,0.4731 0.382907,0.4731 0.08802,0.11419 0.22185,0.1761 0.349629,0.16117 0.128481,-0.015 0.230291,-0.10527 0.265224,-0.23569 0.03498,-0.13061 -0.0028,-0.28007 -0.09845,-0.38962 0,0 -0.390272,-0.47225 -0.390272,-0.47225 0,0 -1.36e-4,-3.8e-4 -1.36e-4,-3.8e-4 0.0071,-0.0877 -0.0051,-0.17818 -0.03561,-0.2643 -0.109941,-0.30892 -0.422525,-0.48666 -0.695685,-0.39927 0,0 3e-6,-3e-5 3e-6,-3e-5"
           style="opacity:1;fill:#000000;fill-opacity:1;stroke:none;stroke-width:4.20388079;stroke-linecap:round;stroke-miterlimit:4;stroke-dasharray:none;stroke-opacity:1" />
        <path
           inkscape:connector-curvature="0"
           id="path905"
           d="m 90.920049,117.339 c -0.176994,0.0794 -0.30298,0.25105 -0.332317,0.45165 0,0 0.366079,-0.16119 0.366079,-0.16119 0,0 0.199037,0.0573 0.199037,0.0573 0,0 0.11004,0.29463 0.11004,0.29463 0,0 -0.107061,0.191 -0.107061,0.191 0,0 -0.368586,0.15729 -0.368586,0.15729 0.101975,0.0842 0.229668,0.12657 0.359969,0.11898 0,0 0.391173,0.4273 0.391173,0.4273 0.08993,0.10375 0.226673,0.14856 0.357245,0.1165 0.131296,-0.0322 0.235343,-0.137 0.271043,-0.27349 0.03575,-0.1367 -0.0029,-0.28277 -0.10063,-0.3808 0,0 -0.398792,-0.42547 -0.398792,-0.42547 0,0 -1.39e-4,-3.7e-4 -1.39e-4,-3.7e-4 0.0072,-0.0896 -0.0052,-0.17942 -0.03638,-0.26242 -0.05401,-0.14309 -0.159923,-0.25613 -0.293944,-0.31424 -0.133256,-0.0578 -0.283165,-0.0564 -0.416739,0.003 0,0 3e-6,0 3e-6,0"
           style="opacity:1;fill:#000000;fill-opacity:1;stroke:none;stroke-width:4.20388079;stroke-linecap:round;stroke-miterlimit:4;stroke-dasharray:none;stroke-opacity:1" />
        <path
           inkscape:connector-curvature="0"
           id="path907"
           d="m 94.026056,117.25624 c 0.203121,0.0749 0.349684,0.2535 0.384053,0.46934 0,0 -0.422434,-0.1579 -0.422434,-0.1579 0,0 -0.223947,0.0694 -0.223947,0.0694 0,0 -0.122131,0.31417 -0.122131,0.31417 0,0 0.118809,0.19875 0.118809,0.19875 0,0 0.41776,0.16182 0.41776,0.16182 -0.116956,0.0912 -0.261915,0.13714 -0.408148,0.12984 0,0 -0.429067,0.44594 -0.429067,0.44594 -0.09659,0.1061 -0.24203,0.14972 -0.379321,0.11435 -0.136516,-0.0352 -0.243621,-0.14296 -0.280152,-0.28136 -0.03647,-0.13819 0.003,-0.28585 0.103266,-0.38594 0,0 0.418029,-0.44346 0.418029,-0.44346 0,0 1.48e-4,-3.9e-4 1.48e-4,-3.9e-4 -0.0077,-0.0923 0.0056,-0.18547 0.03885,-0.27248 0.0579,-0.15057 0.172254,-0.27339 0.318466,-0.34147 0.14709,-0.0685 0.314639,-0.0761 0.465818,-0.0206 0,0 -4e-6,-10e-6 -4e-6,-10e-6"
           style="opacity:1;fill:#000000;fill-opacity:1;stroke:none;stroke-width:4.20388079;stroke-linecap:round;stroke-miterlimit:4;stroke-dasharray:none;stroke-opacity:1" />
        <path
           style="opacity:1;fill:#000000;fill-opacity:1;stroke:none;stroke-width:4.20388079;stroke-linecap:round;stroke-miterlimit:4;stroke-dasharray:none;stroke-opacity:1"
           d="m 94.026049,122.13121 c 0.203121,0.0949 0.349684,0.28798 0.384053,0.50721 0,0 -0.422434,-0.19955 -0.422434,-0.19955 0,0 -0.223947,0.0473 -0.223947,0.0473 0,0 -0.122131,0.30213 -0.122131,0.30213 0,0 0.118808,0.21046 0.118808,0.21046 0,0 0.41776,0.20301 0.41776,0.20301 -0.116956,0.0797 -0.261914,0.11131 -0.408147,0.0896 0,0 -0.429067,0.40364 -0.429067,0.40364 -0.09659,0.0966 -0.242027,0.12582 -0.37931,0.0769 -0.136508,-0.0486 -0.243607,-0.16697 -0.280139,-0.30897 -0.03648,-0.14177 0.003,-0.28554 0.103242,-0.37575 0,0 0.418029,-0.40224 0.418029,-0.40224 0,0 1.48e-4,-3.7e-4 1.48e-4,-3.7e-4 -0.0077,-0.093 0.0056,-0.18493 0.03885,-0.26865 0.120736,-0.30206 0.470509,-0.4309 0.784284,-0.28475 0,0 -4e-6,-3e-5 -4e-6,-3e-5"
           id="path909"
           inkscape:connector-curvature="0" />
        <path
           inkscape:connector-curvature="0"
           id="path911"
           d="m 90.920044,121.90776 c -0.176993,0.0619 -0.302978,0.22117 -0.332317,0.41887 0,0 0.366079,-0.1251 0.366079,-0.1251 0,0 0.199037,0.077 0.199037,0.077 0,0 0.110039,0.30548 0.110039,0.30548 0,0 -0.107061,0.18045 -0.107061,0.18045 0,0 -0.368585,0.12096 -0.368585,0.12096 0.101976,0.0943 0.229669,0.1492 0.359968,0.15445 0,0 0.391172,0.46587 0.391172,0.46587 0.08992,0.11265 0.226679,0.17097 0.357271,0.1518 0.131317,-0.0193 0.235381,-0.11381 0.271077,-0.2468 0.03575,-0.13319 -0.0029,-0.28309 -0.100689,-0.39075 0,0 -0.398792,-0.4648 -0.398792,-0.4648 0,0 -1.38e-4,-3.8e-4 -1.38e-4,-3.8e-4 0.0072,-0.0889 -0.0052,-0.17994 -0.03638,-0.266 -0.05401,-0.14843 -0.159922,-0.2719 -0.293942,-0.34322 -0.133256,-0.0709 -0.283166,-0.0843 -0.416739,-0.0378 0,0 2e-6,-2e-5 2e-6,-2e-5"
           style="opacity:1;fill:#000000;fill-opacity:1;stroke:none;stroke-width:4.20388079;stroke-linecap:round;stroke-miterlimit:4;stroke-dasharray:none;stroke-opacity:1" />
        <path
           style="opacity:1;fill:#000000;fill-opacity:1;stroke:none;stroke-width:4.20388079;stroke-linecap:round;stroke-miterlimit:4;stroke-dasharray:none;stroke-opacity:1"
           d="m 94.026056,113.42048 c 0.203121,0.0591 0.349684,0.22637 0.384053,0.43954 0,0 -0.422434,-0.12513 -0.422434,-0.12513 0,0 -0.223947,0.0868 -0.223947,0.0868 0,0 -0.122131,0.32365 -0.122131,0.32365 0,0 0.118809,0.18953 0.118809,0.18953 0,0 0.41776,0.12941 0.41776,0.12941 -0.116956,0.10026 -0.261915,0.15746 -0.408148,0.1615 0,0 -0.429067,0.47923 -0.429067,0.47923 -0.09659,0.1136 -0.24203,0.16849 -0.379321,0.14378 -0.136516,-0.0246 -0.243621,-0.12406 -0.280152,-0.25963 -0.03647,-0.13536 0.003,-0.28608 0.103266,-0.39395 0,0 0.418029,-0.47589 0.418029,-0.47589 0,0 1.48e-4,-4e-4 1.48e-4,-4e-4 -0.0077,-0.0917 0.0056,-0.1859 0.03885,-0.27549 0.0579,-0.15507 0.172254,-0.28676 0.318466,-0.36619 0.14709,-0.0799 0.314639,-0.10051 0.465818,-0.0567 0,0 -4e-6,0 -4e-6,0"
           id="path913"
           inkscape:connector-curvature="0" />
        <path
           inkscape:connector-curvature="0"
           id="path915"
           d="m 90.920049,113.74419 c -0.176994,0.0931 -0.302979,0.27456 -0.332317,0.47742 0,0 0.366079,-0.18958 0.366079,-0.18958 0,0 0.199037,0.0419 0.199037,0.0419 0,0 0.11004,0.28609 0.11004,0.28609 0,0 -0.107061,0.19931 -0.107061,0.19931 0,0 -0.368586,0.18589 -0.368586,0.18589 0.101975,0.0763 0.229668,0.10874 0.359969,0.091 0,0 0.391173,0.39695 0.391173,0.39695 0.08993,0.0968 0.226673,0.13098 0.357245,0.0888 0.131296,-0.0424 0.235343,-0.15526 0.271043,-0.29452 0.03575,-0.13947 -0.0029,-0.28254 -0.10063,-0.37299 0,0 -0.398792,-0.39454 -0.398792,-0.39454 0,0 -1.39e-4,-3.6e-4 -1.39e-4,-3.6e-4 0.0072,-0.0902 -0.0052,-0.17902 -0.03638,-0.25959 -0.05401,-0.13891 -0.159923,-0.24373 -0.293944,-0.29144 -0.133256,-0.0474 -0.283165,-0.0344 -0.416739,0.0356 0,0 3e-6,0 3e-6,0"
           style="opacity:1;fill:#000000;fill-opacity:1;stroke:none;stroke-width:4.20388079;stroke-linecap:round;stroke-miterlimit:4;stroke-dasharray:none;stroke-opacity:1" />
      </g>
    </g>
  </g>
</svg>
