<svg xmlns="http://www.w3.org/2000/svg" xmlns:xlink="http://www.w3.org/1999/xlink" width="20mm" height="20mm" viewBox="0 0 20 20"><defs><radialGradient xlink:href="#a" id="b" cx="64.326" cy="96.216" r="7.019" fx="64.326" fy="96.216" gradientTransform="matrix(0 -.98175 .7799 0 19.372 182.166)" gradientUnits="userSpaceOnUse"/><linearGradient id="a"><stop offset="0" style="stop-color:#fff;stop-opacity:1"/><stop offset="1" style="stop-color:#fff;stop-opacity:0"/></linearGradient></defs><path d="M.684 300.33h19.609v19.609H.684z" style="opacity:1;fill:none;fill-opacity:1;stroke:none;stroke-width:.38428652;stroke-miterlimit:4;stroke-dasharray:none;stroke-opacity:1" transform="translate(-.698 -306.32) scale(1.01994)"/><path d="m87.851 107.65 1.477-.342 1.574-.365 1.678-.389 1.794-.416c3.99-.924 3.99-.924 6.215 2.029l1.179 1.564 1.225 1.626 1.277 1.694 1.33 1.764c2.832 3.759 2.832 3.759 0 7.518l-1.33 1.764-1.277 1.693-1.225 1.627-1.179 1.563c-2.226 2.953-2.226 2.953-6.215 2.029l-1.794-.416-1.678-.389-1.574-.365-1.477-.342c-2.7-.626-2.7-.626-3.939-3.415l-.593-1.338-.577-1.3-.562-1.267-.547-1.233c-1.052-2.37-1.052-2.37 0-4.74l.547-1.234.562-1.266.577-1.301.594-1.337c1.237-2.79 1.237-2.79 3.938-3.416" style="fill:none;fill-opacity:1;stroke:#fff;stroke-width:2.09781361;stroke-linecap:butt;stroke-linejoin:miter;stroke-miterlimit:4;stroke-dasharray:none;stroke-opacity:1" transform="translate(-54.229 -70.879) scale(.68123)"/><path d="m88.151 108.16 1.409-.327 1.5-.347 1.6-.371 1.71-.397c3.803-.881 3.803-.881 5.925 1.934l1.124 1.491 1.168 1.55 1.217 1.615 1.268 1.682c2.7 3.584 2.7 3.584 0 7.168l-1.268 1.681-1.217 1.615-1.168 1.55-1.124 1.491c-2.122 2.816-2.122 2.816-5.925 1.934l-1.71-.396-1.6-.371-1.5-.348-1.41-.326c-2.574-.597-2.574-.597-3.754-3.256l-.566-1.275-.55-1.24-.535-1.208-.522-1.175c-1.003-2.26-1.003-2.26 0-4.52l.522-1.176.535-1.207.55-1.24.566-1.275c1.18-2.66 1.18-2.66 3.755-3.256" style="fill:#fff;fill-opacity:1;stroke:#000;stroke-width:2;stroke-linecap:butt;stroke-linejoin:miter;stroke-miterlimit:4;stroke-dasharray:none;stroke-opacity:1" transform="translate(-54.229 -70.879) scale(.68123)"/><g style="stroke:#fff;stroke-opacity:1"><path d="M70.856 97.005c-.604 0-1.218-.354-1.696-.972-.466-.603-.757-1.4-.816-2.203-.117-1.592.697-2.808 1.811-2.808 1.114 0 2.213 1.216 2.47 2.808.13.804.025 1.6-.3 2.203-.334.618-.864.972-1.469.972 0 0 0 0 0 0" style="fill:#fff;fill-opacity:1;stroke:#fff;stroke-width:.5;stroke-linecap:round;stroke-miterlimit:4;stroke-dasharray:none;stroke-opacity:1" transform="rotate(-90 -1.095 58.471) scale(.72777)"/><path d="M274.53 359.254a15.153 15.153 0 0 0-.041-4.62 16.213 16.213 0 0 0-1.38-4.397l-.005.003a2.082 2.082 0 0 1-.648.143 2.918 2.918 0 0 1-.395-.005 2.49 2.49 0 0 1-.463-.087 2.708 2.708 0 0 1-.86-.412 2.776 2.776 0 0 1-.522-.485 2.565 2.565 0 0 1-.361-.584 2.303 2.303 0 0 1-.164-.57 2.115 2.115 0 0 1 .014-.625 1.772 1.772 0 0 1 .774-1.143c-1.621-1.59-3.502-2.451-5.326-2.453-4.21 0-7.286 4.598-6.846 10.615.472 6.439 4.737 11.998 9.496 11.998 2.06 0 3.903-1.092 5.172-3.043a3.071 3.071 0 0 1-1.136-1.19 2.875 2.875 0 0 1-.292-.894 2.48 2.48 0 0 1 .008-.722 2.15 2.15 0 0 1 .344-.844 1.96 1.96 0 0 1 .872-.692 2.123 2.123 0 0 1 .445-.127 2.285 2.285 0 0 1 .648-.023 2.615 2.615 0 0 1 .667.157s0 0 0 0" style="fill:#000;fill-opacity:1;stroke:#fff;stroke-width:1.88976383;stroke-linecap:round;stroke-miterlimit:4;stroke-dasharray:none;stroke-opacity:1" transform="rotate(-90 -1.095 58.471) scale(.19256)"/></g><path d="M98.793 119.55c0 4.478-3.057 7.616-6.402 7.078-2.952-.476-5.102-3.716-5.102-7.286 0-3.569 2.15-6.732 5.102-7.1 1.553-.195 3.135.412 4.364 1.743 1.288 1.393 2.038 3.414 2.038 5.565" style="fill:red;fill-opacity:1;stroke:#fff;stroke-width:.51578605;stroke-miterlimit:4;stroke-dasharray:none;stroke-opacity:1" transform="translate(-54.229 -70.879) scale(.68123)"/><path d="m91.975 118.389-3.846 2.08c-.714.09-1.31.4-1.774.719-.563.386-.976.78-.976.78a.914.914 0 1 0 1.258 1.325s.321-.304.752-.6c.43-.295.985-.49 1.072-.484l.26.018 3.224-1.747 3.766 2.174.215.014c.347.021 1.311.476 2.049.984a15.742 15.742 0 0 1 1.302 1.006.914.914 0 1 0 1.21-1.369s-.637-.564-1.475-1.142c-.74-.51-1.617-1.018-2.596-1.194z" style="color:#000;font-style:normal;font-variant:normal;font-weight:400;font-stretch:normal;font-size:medium;line-height:normal;font-family:sans-serif;font-variant-ligatures:normal;font-variant-position:normal;font-variant-caps:normal;font-variant-numeric:normal;font-variant-alternates:normal;font-feature-settings:normal;text-indent:0;text-align:start;text-decoration:none;text-decoration-line:none;text-decoration-style:solid;text-decoration-color:#000;letter-spacing:normal;word-spacing:normal;text-transform:none;writing-mode:lr-tb;direction:ltr;text-orientation:mixed;dominant-baseline:auto;baseline-shift:baseline;text-anchor:start;white-space:normal;shape-padding:0;clip-rule:nonzero;display:inline;overflow:visible;visibility:visible;opacity:1;isolation:auto;mix-blend-mode:normal;color-interpolation:sRGB;color-interpolation-filters:linearRGB;solid-color:#000;solid-opacity:1;vector-effect:none;fill:#000;fill-opacity:1;fill-rule:nonzero;stroke:#fff;stroke-width:.30000001;stroke-linecap:round;stroke-linejoin:miter;stroke-miterlimit:4;stroke-dasharray:none;stroke-dashoffset:0;stroke-opacity:1;color-rendering:auto;image-rendering:auto;shape-rendering:auto;text-rendering:auto;enable-background:accumulate" transform="translate(-54.229 -70.879) scale(.68123)"/><path d="M85.55 118.406a.914.914 0 1 0-.03 1.826l15.207.274a.914.914 0 1 0 .033-1.826z" style="color:#000;font-style:normal;font-variant:normal;font-weight:400;font-stretch:normal;font-size:medium;line-height:normal;font-family:sans-serif;font-variant-ligatures:normal;font-variant-position:normal;font-variant-caps:normal;font-variant-numeric:normal;font-variant-alternates:normal;font-feature-settings:normal;text-indent:0;text-align:start;text-decoration:none;text-decoration-line:none;text-decoration-style:solid;text-decoration-color:#000;letter-spacing:normal;word-spacing:normal;text-transform:none;writing-mode:lr-tb;direction:ltr;text-orientation:mixed;dominant-baseline:auto;baseline-shift:baseline;text-anchor:start;white-space:normal;shape-padding:0;clip-rule:nonzero;display:inline;overflow:visible;visibility:visible;opacity:1;isolation:auto;mix-blend-mode:normal;color-interpolation:sRGB;color-interpolation-filters:linearRGB;solid-color:#000;solid-opacity:1;vector-effect:none;fill:#000;fill-opacity:1;fill-rule:nonzero;stroke:#fff;stroke-width:.30000001;stroke-linecap:round;stroke-linejoin:miter;stroke-miterlimit:4;stroke-dasharray:none;stroke-dashoffset:0;stroke-opacity:1;color-rendering:auto;image-rendering:auto;shape-rendering:auto;text-rendering:auto;enable-background:accumulate" transform="translate(-54.229 -70.879) scale(.68123)"/><path d="M70.856 97.005c-.604 0-1.218-.354-1.696-.972-.466-.603-.757-1.4-.816-2.203-.117-1.592.697-2.808 1.811-2.808 1.114 0 2.213 1.216 2.47 2.808.13.804.025 1.6-.3 2.203-.334.618-.864.972-1.469.972 0 0 0 0 0 0" style="fill:#fff;fill-opacity:1;stroke:#000;stroke-width:.5;stroke-linecap:round;stroke-miterlimit:4;stroke-dasharray:none;stroke-opacity:1" transform="rotate(-90 -.401 53.62) scale(.6688)"/><path d="M274.53 359.254a15.153 15.153 0 0 0-.041-4.62 16.213 16.213 0 0 0-1.38-4.397l-.005.003a2.082 2.082 0 0 1-.648.143 2.918 2.918 0 0 1-.395-.005 2.49 2.49 0 0 1-.463-.087 2.708 2.708 0 0 1-.86-.412 2.776 2.776 0 0 1-.522-.485 2.565 2.565 0 0 1-.361-.584 2.303 2.303 0 0 1-.164-.57 2.115 2.115 0 0 1 .014-.625 1.772 1.772 0 0 1 .774-1.143c-1.621-1.59-3.502-2.451-5.326-2.453-4.21 0-7.286 4.598-6.846 10.615.472 6.439 4.737 11.998 9.496 11.998 2.06 0 3.903-1.092 5.172-3.043a3.071 3.071 0 0 1-1.136-1.19 2.875 2.875 0 0 1-.292-.894 2.48 2.48 0 0 1 .008-.722 2.15 2.15 0 0 1 .344-.844 1.96 1.96 0 0 1 .872-.692 2.123 2.123 0 0 1 .445-.127 2.285 2.285 0 0 1 .648-.023 2.615 2.615 0 0 1 .667.157" style="fill:#000;fill-opacity:1;stroke:none;stroke-width:1.88976383;stroke-linecap:round;stroke-miterlimit:4;stroke-dasharray:none;stroke-opacity:1" transform="rotate(-90 -.401 53.62) scale(.17695)"/><path d="M100.316 114.213a.914.914 0 0 0-.556.225s-.564.477-1.3.957c-.734.48-1.69.895-2.034.904l-.219.006-3.766 2.037-3.224-1.861-.256.008c-.085.002-.652-.216-1.086-.53a7.397 7.397 0 0 1-.758-.63.914.914 0 1 0-1.283 1.3s.41.406.97.81c.463.335 1.052.666 1.766.78l3.842 2.217 4.455-2.41c.976-.145 1.856-.62 2.594-1.102.841-.55 1.48-1.094 1.48-1.094a.914.914 0 0 0-.625-1.617z" style="color:#000;font-style:normal;font-variant:normal;font-weight:400;font-stretch:normal;font-size:medium;line-height:normal;font-family:sans-serif;font-variant-ligatures:normal;font-variant-position:normal;font-variant-caps:normal;font-variant-numeric:normal;font-variant-alternates:normal;font-feature-settings:normal;text-indent:0;text-align:start;text-decoration:none;text-decoration-line:none;text-decoration-style:solid;text-decoration-color:#000;letter-spacing:normal;word-spacing:normal;text-transform:none;writing-mode:lr-tb;direction:ltr;text-orientation:mixed;dominant-baseline:auto;baseline-shift:baseline;text-anchor:start;white-space:normal;shape-padding:0;clip-rule:nonzero;display:inline;overflow:visible;visibility:visible;opacity:1;isolation:auto;mix-blend-mode:normal;color-interpolation:sRGB;color-interpolation-filters:linearRGB;solid-color:#000;solid-opacity:1;vector-effect:none;fill:#000;fill-opacity:1;fill-rule:nonzero;stroke:#fff;stroke-width:.30000001;stroke-linecap:round;stroke-linejoin:miter;stroke-miterlimit:4;stroke-dasharray:none;stroke-dashoffset:0;stroke-opacity:1;color-rendering:auto;image-rendering:auto;shape-rendering:auto;text-rendering:auto;enable-background:accumulate" transform="translate(-54.229 -70.879) scale(.68123)"/><path d="M98.515 119.545c0 4.262-2.909 7.249-6.092 6.736-2.81-.453-4.856-3.536-4.856-6.933 0-3.398 2.046-6.407 4.856-6.759 1.477-.185 2.983.393 4.153 1.66 1.225 1.326 1.94 3.249 1.94 5.296" style="fill:red;fill-opacity:1;stroke:#000;stroke-width:.49087536;stroke-miterlimit:4;stroke-dasharray:none;stroke-opacity:1" transform="translate(-54.229 -70.879) scale(.68123)"/><path d="M98.515 119.545c0 4.262-2.909 7.249-6.092 6.736-2.81-.453-4.856-3.536-4.856-6.933 0-3.398 2.046-6.407 4.856-6.759 1.477-.185 2.983.393 4.153 1.66 1.225 1.326 1.94 3.249 1.94 5.296" style="opacity:.43300003;fill:url(#b);fill-opacity:1;stroke:none;stroke-width:.49087536;stroke-miterlimit:4;stroke-dasharray:none;stroke-opacity:1" transform="translate(-54.229 -70.879) scale(.68123)"/><path d="M89.68 115.362a.602.602 0 0 0-.314.453l.347-.172.188.047.104.282-.101.19-.35.17a.464.464 0 0 0 .342.1l.37.4a.323.323 0 0 0 .338.097.384.384 0 0 0 .256-.277.383.383 0 0 0-.095-.366l-.377-.397a.595.595 0 0 0-.035-.254.477.477 0 0 0-.673-.273m5.84-.416a.585.585 0 0 1 .408.465l-.449-.143-.237.083-.13.329.126.199.443.147a.692.692 0 0 1-.433.153l-.455.48a.428.428 0 0 1-.402.135.386.386 0 0 1-.297-.276.418.418 0 0 1 .11-.403l.443-.476a.632.632 0 0 1 .04-.283.694.694 0 0 1 .339-.367.668.668 0 0 1 .494-.043m.96 2.724a.64.64 0 0 1 .424.495l-.465-.17-.247.071-.135.329.131.21.46.174a.695.695 0 0 1-.45.132l-.471.463a.431.431 0 0 1-.418.116.427.427 0 0 1-.308-.298.405.405 0 0 1 .114-.403l.46-.461a.618.618 0 0 1 .042-.286.66.66 0 0 1 .35-.355.698.698 0 0 1 .514-.018m-1.887 2.202a.651.651 0 0 1 .393.495l-.432-.182-.23.058-.124.311.121.208.427.186a.609.609 0 0 1-.417.11l-.439.427a.38.38 0 0 1-.388.095.43.43 0 0 1-.286-.3.388.388 0 0 1 .105-.384l.428-.426a.589.589 0 0 1 .365-.602.627.627 0 0 1 .477.004m-5.641-2.071a.551.551 0 0 0-.305.43l.336-.151.183.056.1.283-.098.182-.338.148c.094.081.21.123.33.117l.359.412c.082.1.207.144.327.115a.35.35 0 0 0 .248-.26.395.395 0 0 0-.092-.365l-.365-.41v-.001a.61.61 0 0 0-.034-.251c-.103-.286-.395-.421-.65-.305m1.478 1.963a.54.54 0 0 0-.325.43l.358-.14.195.066.108.297-.105.184-.36.137a.525.525 0 0 0 .352.136l.382.443a.365.365 0 0 0 .35.133.345.345 0 0 0 .265-.256.411.411 0 0 0-.098-.382l-.39-.442a.62.62 0 0 0-.036-.261.586.586 0 0 0-.288-.327.5.5 0 0 0-.408-.018m6.048 1.811a.712.712 0 0 1 .424.528l-.465-.205-.247.053-.135.318.131.22.46.208a.66.66 0 0 1-.45.099l-.471.428a.412.412 0 0 1-.418.084.474.474 0 0 1-.307-.321.384.384 0 0 1 .113-.395l.46-.426a.599.599 0 0 1 .042-.283c.133-.318.518-.458.864-.308m-7.528-.435a.5.5 0 0 0-.305.406l.336-.125.183.07.1.29-.098.175-.338.122a.5.5 0 0 0 .33.142l.359.44a.345.345 0 0 0 .327.138.315.315 0 0 0 .248-.24.415.415 0 0 0-.092-.372l-.365-.438a.627.627 0 0 0-.034-.255c-.103-.293-.395-.45-.65-.353m5.64 2.677a.724.724 0 0 1 .393.526l-.432-.216-.23.04-.124.301.121.217.427.22a.581.581 0 0 1-.417.076l-.439.394a.365.365 0 0 1-.388.064.478.478 0 0 1-.286-.322.367.367 0 0 1 .105-.376l.428-.393a.586.586 0 0 1 .04-.27c.123-.302.48-.42.802-.261m-4.162-.436a.486.486 0 0 0-.325.404l.358-.113.195.083.108.305-.105.176-.36.108a.569.569 0 0 0 .352.164l.382.473a.394.394 0 0 0 .35.161.31.31 0 0 0 .265-.236.433.433 0 0 0-.098-.39l-.39-.471a.64.64 0 0 0-.036-.265c-.11-.31-.423-.487-.696-.4m.488-6.04a.585.585 0 0 0-.332.452l.366-.162.199.058.11.294-.107.191-.369.158c.102.084.23.126.36.119l.391.427c.09.104.227.149.358.116a.376.376 0 0 0 .27-.273.398.398 0 0 0-.1-.38l-.399-.426a.608.608 0 0 0-.036-.263.552.552 0 0 0-.294-.314.516.516 0 0 0-.417.003m3.106-.083a.6.6 0 0 1 .384.47l-.422-.158-.224.07-.122.313.118.199.418.162a.614.614 0 0 1-.408.13l-.429.446a.383.383 0 0 1-.38.114.393.393 0 0 1-.28-.281.401.401 0 0 1 .104-.386l.418-.444a.62.62 0 0 1 .823-.635m0 4.875c.203.095.35.288.384.507l-.422-.2-.224.048-.122.302.118.21.418.204a.572.572 0 0 1-.408.09l-.43.403a.36.36 0 0 1-.378.077.45.45 0 0 1-.28-.31.375.375 0 0 1 .103-.375l.418-.402a.595.595 0 0 1 .039-.27c.12-.301.47-.43.784-.284m-3.106-.223a.514.514 0 0 0-.332.419l.366-.125.199.077.11.305-.107.18-.369.121c.102.095.23.15.36.155l.391.466c.09.112.227.17.358.152a.33.33 0 0 0 .27-.247.425.425 0 0 0-.1-.391l-.399-.465a.634.634 0 0 0-.33-.61.52.52 0 0 0-.417-.037m3.106-8.488a.54.54 0 0 1 .384.44l-.422-.125-.224.087-.122.323.118.19.418.13a.66.66 0 0 1-.408.16l-.429.48a.408.408 0 0 1-.38.144.354.354 0 0 1-.28-.26.423.423 0 0 1 .104-.394l.418-.476a.64.64 0 0 1 .039-.276.697.697 0 0 1 .318-.366c.147-.08.315-.1.466-.056m-3.106.323a.648.648 0 0 0-.332.478l.366-.19.199.042.11.286-.107.2-.369.185c.102.077.23.109.36.091l.391.397a.34.34 0 0 0 .358.089.418.418 0 0 0 .27-.295.378.378 0 0 0-.1-.373l-.399-.394a.59.59 0 0 0-.036-.26.494.494 0 0 0-.711-.256" style="opacity:1;fill:#000;fill-opacity:1;stroke:none;stroke-width:4.20388079;stroke-linecap:round;stroke-miterlimit:4;stroke-dasharray:none;stroke-opacity:1" transform="translate(-54.229 -70.879) scale(.68123)"/></svg>