<svg xmlns="http://www.w3.org/2000/svg" width="21cm" height="2cm" viewBox="0 0 210 20"><defs><radialGradient id="a" cx="64.326" cy="96.216" r="7.019" gradientTransform="matrix(0 -.98175 .7799 0 19.372 182.17)" gradientUnits="userSpaceOnUse"><stop offset="0" stop-color="#fff"/><stop offset="1" stop-color="#fff" stop-opacity="0"/></radialGradient></defs><path fill="none" stroke="#fff" stroke-width="1.401" d="m6.309 2.87.986-.228 3.37-.781c2.665-.618 2.665-.618 4.151 1.355l.788 1.044 2.559 3.396c1.892 2.51 1.892 2.51 0 5.021l-1.74 2.31-1.607 2.13c-1.486 1.972-1.486 1.972-4.15 1.355l-1.199-.278-1.121-.26-1.05-.243-.988-.229c-1.803-.418-1.803-.418-2.63-2.281l-.396-.893-1.126-2.538c-.703-1.584-.703-1.584 0-3.167l.74-1.67.782-1.761c.827-1.863.827-1.863 2.63-2.282"/><path fill="#fff" stroke="#000" stroke-width="1.336" d="m6.509 3.211 1.942-.45 1.07-.248 1.142-.265c2.54-.588 2.54-.588 3.957 1.292l.75.996 1.594 2.114.846 1.123c1.804 2.394 1.804 2.394 0 4.788l-.846 1.123-.813 1.078-.78 1.036-.75.995c-1.418 1.88-1.418 1.88-3.958 1.292L9.52 17.82l-1.069-.247-1.001-.233-.941-.218c-1.72-.398-1.72-.398-2.508-2.174l-.378-.852-1.073-2.42c-.67-1.51-.67-1.51 0-3.019L4 5.386c.79-1.776.79-1.776 2.51-2.175"/><g stroke="#fff" stroke-linecap="round" stroke-width=".357"><path fill="#fff" d="M11.615 6.16c0 .431-.252.869-.693 1.21-.43.333-.999.54-1.572.582-1.136.084-2.004-.497-2.004-1.292s.868-1.58 2.004-1.762c.573-.093 1.141-.018 1.572.214.44.238.693.616.693 1.048"/><path d="M10.22 4.89a2.9 2.9 0 0 0-.871.008 3 3 0 0 0-.83.26v.002a.4.4 0 0 1 .028.153.5.5 0 0 1-.155.362.5.5 0 0 1-.182.113.4.4 0 0 1-.148.018.4.4 0 0 1-.112-.028.33.33 0 0 1-.142-.123c-.3.306-.463.661-.463 1.005 0 .795.868 1.376 2.004 1.293 1.215-.09 2.265-.894 2.265-1.793 0-.389-.207-.737-.575-.976a.6.6 0 0 1-.068.092.6.6 0 0 1-.247.16.5.5 0 0 1-.215.016.4.4 0 0 1-.192-.091.37.37 0 0 1-.112-.18.4.4 0 0 1-.014-.165.5.5 0 0 1 .03-.126h0"/></g><path fill="red" stroke="#fff" stroke-width=".345" d="M13.617 10.819c0 2.99-2.042 5.087-4.276 4.727-1.972-.318-3.408-2.482-3.408-4.866S7.369 6.184 9.34 5.937c1.037-.13 2.093.276 2.915 1.165.86.93 1.36 2.28 1.36 3.717"/><path stroke="#fff" stroke-linecap="round" stroke-width=".3" d="m91.975 118.39-3.846 2.08c-.714.09-1.309.4-1.773.719-.564.387-.977.781-.977.781a.914.914 0 1 0 1.258 1.324s.322-.304.752-.6c.43-.295.985-.489 1.072-.484l.26.018 3.225-1.746 3.765 2.174.215.013c.347.022 1.312.476 2.049.985a16 16 0 0 1 1.303 1.006.914.914 0 1 0 1.209-1.37s-.636-.564-1.475-1.142c-.74-.51-1.617-1.018-2.596-1.194z" color="#000" style="font-feature-settings:normal;font-variant-alternates:normal;font-variant-caps:normal;font-variant-ligatures:normal;font-variant-numeric:normal;font-variant-position:normal;isolation:auto;mix-blend-mode:normal;shape-padding:0;text-decoration-color:#000;text-decoration-line:none;text-decoration-style:solid;text-indent:0;text-orientation:mixed;text-transform:none;white-space:normal" transform="translate(-52.368 -69.03)scale(.66791)"/><path stroke="#fff" stroke-linecap="round" stroke-width=".3" d="M85.551 118.41a.914.914 0 1 0-.031 1.826l15.207.274a.914.914 0 1 0 .033-1.827z" color="#000" style="font-feature-settings:normal;font-variant-alternates:normal;font-variant-caps:normal;font-variant-ligatures:normal;font-variant-numeric:normal;font-variant-position:normal;isolation:auto;mix-blend-mode:normal;shape-padding:0;text-decoration-color:#000;text-decoration-line:none;text-decoration-style:solid;text-indent:0;text-orientation:mixed;text-transform:none;white-space:normal" transform="translate(-52.368 -69.03)scale(.66791)"/><path fill="#fff" stroke="#000" stroke-linecap="round" stroke-width=".328" d="M11.444 6.181c0 .397-.232.8-.638 1.112a2.73 2.73 0 0 1-1.444.536C8.318 7.905 7.52 7.372 7.52 6.64s.798-1.451 1.842-1.62c.527-.084 1.049-.015 1.444.198.406.218.638.566.638.962h0"/><path d="M10.162 5.015a2.6 2.6 0 0 0-.801.007 2.8 2.8 0 0 0-.763.24.4.4 0 0 1 .026.141.46.46 0 0 1-.142.333.5.5 0 0 1-.168.104.4.4 0 0 1-.136.016.3.3 0 0 1-.102-.025.3.3 0 0 1-.131-.113c-.276.281-.426.607-.426.924 0 .73.798 1.264 1.842 1.187 1.117-.081 2.081-.821 2.081-1.647 0-.358-.19-.677-.528-.897a.5.5 0 0 1-.062.085.54.54 0 0 1-.227.146.5.5 0 0 1-.198.015.4.4 0 0 1-.177-.084.34.34 0 0 1-.102-.165.4.4 0 0 1-.013-.152.5.5 0 0 1 .027-.115"/><path stroke="#fff" stroke-linecap="round" stroke-width=".3" d="M100.32 114.21a.9.9 0 0 0-.557.225s-.564.477-1.298.957-1.69.895-2.036.904l-.218.006-3.766 2.037-3.225-1.861-.255.008c-.086.002-.653-.216-1.086-.53a7 7 0 0 1-.758-.63.914.914 0 1 0-1.283 1.3s.41.406.97.81c.463.335 1.052.666 1.766.78l3.842 2.217 4.455-2.41c.976-.145 1.855-.62 2.594-1.102.841-.55 1.48-1.094 1.48-1.094a.914.914 0 0 0-.625-1.617z" color="#000" style="font-feature-settings:normal;font-variant-alternates:normal;font-variant-caps:normal;font-variant-ligatures:normal;font-variant-numeric:normal;font-variant-position:normal;isolation:auto;mix-blend-mode:normal;shape-padding:0;text-decoration-color:#000;text-decoration-line:none;text-decoration-style:solid;text-indent:0;text-orientation:mixed;text-transform:none;white-space:normal" transform="translate(-52.368 -69.03)scale(.66791)"/><path fill="red" stroke="#000" stroke-width=".328" d="M13.431 10.812c0 2.847-1.943 4.842-4.07 4.5-1.876-.303-3.243-2.363-3.243-4.632s1.367-4.279 3.244-4.514c.987-.123 1.992.263 2.774 1.109.818.886 1.295 2.17 1.295 3.537"/><path fill="url(#a)" d="M98.515 119.54c0 4.262-2.91 7.249-6.093 6.736-2.81-.452-4.856-3.536-4.856-6.933s2.047-6.407 4.856-6.758c1.478-.185 2.983.393 4.154 1.66 1.225 1.325 1.94 3.248 1.94 5.295" opacity=".433" transform="translate(-52.368 -69.03)scale(.66791)"/><path d="M7.53 8.02a.4.4 0 0 0-.21.303l.232-.115.126.032.07.188-.068.127-.233.113a.3.3 0 0 0 .228.067l.247.267c.057.065.143.09.226.065a.26.26 0 0 0 .171-.185.26.26 0 0 0-.064-.245l-.252-.265a.4.4 0 0 0-.023-.17.32.32 0 0 0-.45-.182m3.9-.274a.39.39 0 0 1 .273.31l-.3-.094-.158.055-.087.22.084.133.297.098a.46.46 0 0 1-.29.102l-.304.32a.29.29 0 0 1-.268.09.26.26 0 0 1-.199-.184.28.28 0 0 1 .073-.268l.296-.319a.4.4 0 0 1 .028-.189.464.464 0 0 1 .556-.274m.642 1.817a.43.43 0 0 1 .282.331l-.31-.113-.165.047-.09.22.087.14.308.116a.46.46 0 0 1-.3.088l-.316.31a.29.29 0 0 1-.279.077.29.29 0 0 1-.205-.199.27.27 0 0 1 .075-.27l.307-.307a.4.4 0 0 1 .029-.191.44.44 0 0 1 .234-.237.47.47 0 0 1 .343-.012m-1.261 1.469a.44.44 0 0 1 .263.331l-.289-.122-.153.04-.083.207.08.139.286.124a.4.4 0 0 1-.279.073l-.293.286a.25.25 0 0 1-.259.063.29.29 0 0 1-.191-.2.26.26 0 0 1 .07-.257l.286-.284a.39.39 0 0 1 .244-.402c.1-.041.215-.04.318.002M7.045 9.65a.37.37 0 0 0-.204.287l.224-.101.122.038.067.189-.065.121-.226.099a.3.3 0 0 0 .22.078l.24.275a.22.22 0 0 0 .219.077.23.23 0 0 0 .165-.174.26.26 0 0 0-.061-.244l-.244-.274a.4.4 0 0 0-.022-.168c-.07-.19-.265-.281-.435-.203m.987 1.309a.36.36 0 0 0-.217.287l.24-.094.13.045.072.198-.07.123-.241.091c.066.06.15.092.235.091l.256.296a.24.24 0 0 0 .233.09.23.23 0 0 0 .177-.172.28.28 0 0 0-.065-.255l-.261-.295a.4.4 0 0 0-.024-.175.4.4 0 0 0-.192-.218.33.33 0 0 0-.273-.012m4.041 1.209c.15.065.257.199.282.353l-.31-.137-.165.035-.09.212.087.147.308.14a.44.44 0 0 1-.3.065l-.316.286a.28.28 0 0 1-.279.056.32.32 0 0 1-.205-.214.26.26 0 0 1 .075-.264l.307-.285a.4.4 0 0 1 .029-.188c.089-.213.346-.306.577-.206m-5.028-.288a.33.33 0 0 0-.204.272l.224-.084.122.047.067.194-.065.117-.226.081a.33.33 0 0 0 .22.095l.24.293a.23.23 0 0 0 .219.093.21.21 0 0 0 .165-.16.28.28 0 0 0-.061-.249l-.244-.293a.4.4 0 0 0-.022-.17c-.07-.195-.265-.3-.435-.235m3.767 1.789a.48.48 0 0 1 .263.352l-.289-.144-.153.026-.083.202.08.145.286.146a.4.4 0 0 1-.279.051l-.293.263a.24.24 0 0 1-.259.043.32.32 0 0 1-.191-.215.25.25 0 0 1 .07-.251l.286-.262a.4.4 0 0 1 .026-.181c.083-.201.322-.28.536-.174m-2.78-.294a.33.33 0 0 0-.217.27l.24-.075.13.055.072.204-.07.117-.241.072c.066.065.15.103.235.11l.256.316a.26.26 0 0 0 .233.107.21.21 0 0 0 .177-.157.29.29 0 0 0-.065-.26l-.261-.316a.4.4 0 0 0-.024-.177c-.073-.206-.282-.325-.465-.266m.326-4.034a.39.39 0 0 0-.222.301l.245-.107.133.038.073.197-.071.127-.246.105a.35.35 0 0 0 .24.08l.261.285c.06.07.152.1.239.078a.25.25 0 0 0 .181-.183.27.27 0 0 0-.067-.254l-.267-.284a.4.4 0 0 0-.024-.176.37.37 0 0 0-.196-.21.35.35 0 0 0-.279.002m2.075-.052a.4.4 0 0 1 .256.313l-.282-.106-.15.046-.08.21.078.133.28.108a.4.4 0 0 1-.273.087l-.287.298a.26.26 0 0 1-.253.076.26.26 0 0 1-.187-.188.27.27 0 0 1 .069-.258l.279-.296a.414.414 0 0 1 .55-.424m0 3.253a.46.46 0 0 1 .256.339l-.282-.134-.15.032-.08.202.078.14.28.136a.38.38 0 0 1-.273.06l-.287.27a.24.24 0 0 1-.253.05.3.3 0 0 1-.187-.206.25.25 0 0 1 .069-.25l.279-.27a.4.4 0 0 1 .026-.179c.08-.202.314-.288.524-.19m-2.075-.147a.34.34 0 0 0-.222.28l.245-.084.133.052.073.204-.071.12-.246.08c.068.064.153.1.24.104l.261.311c.06.075.152.114.239.102a.22.22 0 0 0 .181-.165.28.28 0 0 0-.067-.261l-.267-.31a.42.42 0 0 0-.22-.408.35.35 0 0 0-.279-.025m2.075-5.671a.36.36 0 0 1 .256.294l-.282-.084-.15.058-.08.216.078.127.28.087a.44.44 0 0 1-.273.107l-.287.32a.27.27 0 0 1-.253.096.24.24 0 0 1-.187-.173.28.28 0 0 1 .069-.263l.279-.318a.4.4 0 0 1 .026-.184.47.47 0 0 1 .213-.245.4.4 0 0 1 .31-.038m-2.074.214a.43.43 0 0 0-.222.319l.245-.127.133.028.073.191-.071.134-.246.124a.33.33 0 0 0 .24.06l.261.266c.06.064.152.087.239.059a.28.28 0 0 0 .181-.197.25.25 0 0 0-.067-.249l-.267-.263a.4.4 0 0 0-.024-.174.33.33 0 0 0-.475-.171"/><path fill="#fff" d="M34.677.99v2.805h-5.534v15.55h-3.414V3.794h-5.534V.99zm13.977 0v2.716h-8.149v5.09h6.423v2.627h-6.423v5.192h8.149v2.729H37.078V.99zm12.775 3.34q-.152.267-.33.393-.165.115-.419.115-.266 0-.584-.19-.304-.204-.736-.445-.431-.241-1.015-.431-.571-.204-1.358-.204-.711 0-1.244.178-.533.165-.901.47-.356.304-.534.736-.177.419-.177.927 0 .647.355 1.078.368.432.965.737.596.304 1.358.545.761.242 1.561.52.8.267 1.561.635.762.356 1.358.914.597.546.952 1.346.368.8.368 1.942 0 1.244-.431 2.335-.419 1.08-1.244 1.891-.812.8-1.993 1.27-1.18.457-2.703.457-.876 0-1.727-.178-.85-.165-1.637-.482-.774-.318-1.46-.762t-1.218-.99l1.002-1.637q.127-.178.33-.292.204-.127.432-.127.317 0 .685.266.369.254.876.571t1.18.584q.686.254 1.638.254 1.46 0 2.26-.685.799-.698.799-1.993 0-.724-.368-1.18-.356-.457-.952-.762-.597-.317-1.358-.533t-1.549-.47-1.548-.609-1.358-.927-.965-1.421q-.355-.863-.355-2.12 0-1.003.393-1.955.406-.951 1.168-1.688.761-.736 1.878-1.18t2.564-.444q1.625 0 2.996.507 1.37.508 2.335 1.422zM78.407.99v2.805h-5.534v15.55h-3.414V3.794h-5.534V.99zm13.978 0v2.716h-8.149v5.09h6.423v2.627h-6.423v5.192h8.149v2.729H80.809V.99zM98.8 12.17v7.171h-3.414V.987h5.597q1.866 0 3.199.394 1.345.38 2.196 1.079.863.698 1.269 1.675.406.965.406 2.133 0 .926-.28 1.751-.266.825-.786 1.498-.508.673-1.27 1.18-.748.508-1.713.813.647.368 1.117 1.053l4.595 6.778h-3.084q-.876 0-1.27-.685l-3.858-5.877q-.216-.33-.483-.47-.254-.14-.761-.14zm0-2.45h2.132q.965 0 1.676-.24.723-.242 1.18-.66.47-.432.698-1.016.229-.584.229-1.282 0-1.396-.927-2.145-.914-.75-2.805-.75H98.8zM123.27.99v2.716h-8.149v5.09h6.423v2.627h-6.423v5.192h8.149v2.729h-11.576V.99zm12.22 10.74q.216.406.393.85.19.432.369.876.177-.47.368-.901.19-.444.406-.85l5.42-10.167q.101-.19.215-.305.115-.114.242-.165.14-.05.304-.064.165-.012.394-.012h2.576v18.354h-3.008V7.49q0-.33.013-.724.025-.393.063-.8L137.7 16.377q-.394.749-1.206.749h-.483q-.812 0-1.205-.75l-5.61-10.445q.038.419.063.825.025.393.025.736v11.855h-3.008V.992h2.577q.228 0 .393.013t.292.063q.14.05.241.165.115.114.216.305zm14.44 7.61V.995h5.277q1.568 0 2.722.311t1.906.92q.752.597 1.115 1.466t.363 1.97q0 .726-.26 1.4-.246.675-.725 1.245-.48.57-1.18.998-.687.415-1.569.636 2.165.324 3.32 1.452 1.166 1.115 1.166 2.93 0 1.166-.415 2.1-.415.933-1.206 1.582-.79.648-1.944.998-1.154.337-2.62.337zm1.335-8.79v7.727h4.603q2.411 0 3.643-1.037 1.244-1.05 1.244-2.943 0-.869-.337-1.556-.324-.7-.946-1.18-.622-.493-1.53-.752-.907-.26-2.061-.26zm0-.972h3.968q1.27 0 2.165-.324.907-.325 1.478-.856.583-.532.855-1.206.273-.674.273-1.387 0-1.854-1.18-2.8-1.167-.96-3.617-.96h-3.942zm20.185 2.202v7.558h-1.322V11.78L163.334.993h1.167q.181 0 .298.09.117.079.195.234l5.25 8.427q.169.298.298.584.143.272.247.544.103-.272.233-.544.143-.286.311-.584l5.251-8.427q.065-.142.181-.233.13-.091.312-.091h1.166zm22.16 4.47q.13 0 .22.09l.519.558q-.57.61-1.245 1.102-.66.48-1.465.83-.79.337-1.75.519-.946.194-2.087.194-1.906 0-3.5-.661-1.582-.674-2.723-1.893-1.141-1.232-1.776-2.969-.623-1.737-.623-3.863 0-2.088.649-3.812.648-1.724 1.815-2.956 1.166-1.244 2.8-1.919 1.634-.687 3.604-.687 1.88 0 3.332.584t2.645 1.646l-.402.584q-.104.155-.324.155-.156 0-.506-.285t-.972-.622q-.622-.35-1.556-.636-.92-.285-2.217-.285-1.66 0-3.047.57-1.374.571-2.372 1.634-.985 1.063-1.543 2.593t-.557 3.436q0 1.944.557 3.474.57 1.53 1.556 2.593.985 1.05 2.32 1.62 1.349.558 2.905.558.985 0 1.75-.13.778-.13 1.426-.388.648-.26 1.206-.636t1.102-.881q.065-.052.13-.078.064-.039.129-.039"/><path fill="red" d="M204.92 17.13h4.58v2.42h-13.01v-4.228q0-1.305.306-2.258t.855-1.575q.548-.62 1.313-.917.765-.306 1.673-.306.945 0 1.737.315.782.314 1.35.944.566.63.88 1.584.316.944.316 2.213zm-1.89 0v-1.808q0-.666-.161-1.16-.171-.496-.477-.82-.315-.332-.756-.494-.45-.162-.998-.162-.522 0-.945.162t-.72.486q-.296.323-.45.818-.161.495-.161 1.17v1.808zm4.47-11.14V.79h1.997v7.62h-13.009V5.99z"/></svg>