<svg xmlns="http://www.w3.org/2000/svg" width="200" height="64" fill="none"><g fill="#fff" clip-path="url(#a)"><path d="M2.594 48.218A2.39 2.39 0 0 0 .207 50.61a2.39 2.39 0 0 0 2.387 2.394A2.39 2.39 0 0 0 4.98 50.61a2.39 2.39 0 0 0-2.386-2.393m195.019.001a2.39 2.39 0 0 0-2.386 2.393 2.39 2.39 0 0 0 2.386 2.394A2.39 2.39 0 0 0 200 50.611a2.39 2.39 0 0 0-2.387-2.393M0 1.464h15.412v3.555H9.463v19.552H5.792V5.018H0zm31.362 0q1.9 0 3.464.508 1.567.508 2.688 1.443a6.24 6.24 0 0 1 1.727 2.302q.6 1.366.6 3.175 0 1.364-.41 2.73a7 7 0 0 1-1.345 2.476q-.934 1.113-2.452 1.78-1.518.668-3.733.668h-3.355v8.03h-3.701V1.465h6.52zm.473 11.49q1.204 0 2.026-.38t1.297-.982q.473-.601.68-1.286a4.5 4.5 0 0 0 .208-1.286q.001-.572-.19-1.254a4.2 4.2 0 0 0-.648-1.318q-.459-.634-1.25-1.031-.792-.397-1.992-.398h-3.417v7.936h3.292zm3.989 2.255 5.886 9.365h-4.305l-5.981-9.27zm12.531 9.361L58.575.51h.223l10.191 24.06h-4.207L57.566 6.287l2.659-1.746-8.229 20.03zm28.48-23.107 7.248 18.126-2.12-.446 6.74-17.68h4.334L82.721 25.619 72.468 1.464zm40.887 21.298q-.474.378-1.486.873-1.012.494-2.389.858-1.378.365-3.053.333-2.69-.031-4.826-.968-2.137-.935-3.639-2.54a11.3 11.3 0 0 1-2.31-3.682q-.808-2.079-.808-4.461 0-2.57.823-4.779.823-2.206 2.342-3.81a10.7 10.7 0 0 1 3.607-2.492q2.088-.887 4.589-.888 2.151 0 3.876.588 1.724.587 2.895 1.348l-1.456 3.46q-.888-.666-2.215-1.253-1.33-.588-3.005-.588a7 7 0 0 0-2.896.617 7.6 7.6 0 0 0-2.437 1.747 8.5 8.5 0 0 0-2.295 5.857c0 1.143.184 2.29.554 3.317q.555 1.541 1.581 2.65a7 7 0 0 0 2.452 1.713q1.424.602 3.227.603 1.804 0 3.148-.555 1.345-.556 2.167-1.254l1.552 3.303zm8.229-9.712q0-2.38.918-4.523a12.3 12.3 0 0 1 2.532-3.793 11.9 11.9 0 0 1 3.733-2.587q2.12-.935 4.59-.935c1.646 0 3.118.311 4.542.935a12.2 12.2 0 0 1 3.781 2.587 12.1 12.1 0 0 1 2.564 3.793q.919 2.143.918 4.523c0 1.586-.305 3.154-.918 4.57a11.8 11.8 0 0 1-2.579 3.764 12.2 12.2 0 0 1-3.781 2.54q-2.118.904-4.557.905-2.437 0-4.557-.906a11.77 11.77 0 0 1-6.265-6.252q-.919-2.142-.918-4.618zm3.799-.033q-.001 1.747.616 3.238a8.1 8.1 0 0 0 4.305 4.38q1.471.637 3.147.636 1.675 0 3.118-.636a7.55 7.55 0 0 0 2.499-1.76 8.5 8.5 0 0 0 1.679-2.62 8.3 8.3 0 0 0 .616-3.205c0-1.14-.21-2.242-.634-3.237a8.9 8.9 0 0 0-1.708-2.635 7.6 7.6 0 0 0-2.532-1.779 7.8 7.8 0 0 0-3.132-.635 7.6 7.6 0 0 0-3.133.65 8.1 8.1 0 0 0-2.546 1.78 8 8 0 0 0-1.694 2.634 8.6 8.6 0 0 0-.601 3.19m35.948-11.554q1.9 0 3.464.508 1.566.508 2.688 1.443a6.25 6.25 0 0 1 1.727 2.302q.6 1.366.601 3.175a9.4 9.4 0 0 1-.412 2.73 7 7 0 0 1-1.344 2.476q-.933 1.113-2.452 1.78-1.518.668-3.734.668h-3.354v8.03h-3.701V1.465h6.52zm.473 11.49q1.204 0 2.026-.38t1.296-.982.681-1.286q.207-.681.208-1.286.001-.572-.19-1.254a4.2 4.2 0 0 0-.648-1.318q-.459-.634-1.25-1.031-.792-.397-1.992-.398h-3.417v7.936h3.292zm3.989 2.255 5.886 9.365h-4.305l-5.981-9.27zm21.488-13.745q2.625 0 4.494.888 1.867.89 2.864 2.554.996 1.667.997 3.983a9.3 9.3 0 0 1-.426 2.744 7.1 7.1 0 0 1-1.344 2.477q-.918 1.094-2.422 1.78-1.501.681-3.624.682h-3.355v7.999h-3.701V1.463h6.52zm.506 11.49q1.235.001 2.04-.412.808-.413 1.267-1.03.458-.62.664-1.32.206-.698.207-1.238.001-.57-.19-1.238a4.4 4.4 0 0 0-.615-1.286q-.427-.62-1.235-1.016-.81-.397-2.04-.398h-3.417v7.936h3.322zm-164.067 26.6q2.625 0 4.495.888c1.243.594 2.2 1.444 2.863 2.554q.996 1.667.998 3.983a9.3 9.3 0 0 1-.426 2.744 7.1 7.1 0 0 1-1.345 2.477q-.918 1.095-2.422 1.78-1.5.682-3.624.683h-3.355v7.998h-3.7V39.55h6.52zm.507 11.491q1.235 0 2.04-.413.806-.412 1.267-1.03.458-.62.663-1.319.206-.7.207-1.239.001-.57-.19-1.238a4.4 4.4 0 0 0-.615-1.286q-.426-.619-1.235-1.016t-2.04-.398h-3.417v7.936h3.322zm15.63.095q0-2.38.918-4.523a12.3 12.3 0 0 1 2.531-3.793 11.9 11.9 0 0 1 3.734-2.587q2.119-.935 4.59-.935c1.645 0 3.117.312 4.541.935a12.2 12.2 0 0 1 3.781 2.587 12.1 12.1 0 0 1 2.564 3.793q.919 2.143.918 4.523c0 1.586-.305 3.154-.918 4.57a11.8 11.8 0 0 1-2.578 3.764 12.2 12.2 0 0 1-3.782 2.54q-2.117.904-4.556.905-2.439 0-4.557-.906a11.77 11.77 0 0 1-6.265-6.252q-.919-2.142-.918-4.618zm3.799-.033q0 1.746.615 3.238a8.1 8.1 0 0 0 4.306 4.38q1.47.637 3.147.636 1.674.002 3.118-.636a7.6 7.6 0 0 0 2.499-1.76 8.6 8.6 0 0 0 1.679-2.62 8.3 8.3 0 0 0 .615-3.205 8.3 8.3 0 0 0-.633-3.237 8.9 8.9 0 0 0-1.709-2.635 7.6 7.6 0 0 0-2.531-1.779 7.8 7.8 0 0 0-3.133-.635 7.6 7.6 0 0 0-3.133.65 8.1 8.1 0 0 0-2.546 1.78 8 8 0 0 0-1.694 2.634 8.6 8.6 0 0 0-.6 3.19m29.431-11.554h3.701V59.11h11.361v3.555H77.451v-23.11zM99.7 62.664l10.22-24.06h.222l10.192 24.06h-4.208l-7.215-18.284 2.658-1.746-8.228 20.03zm6.454-8.572h7.849l1.268 3.11h-10.254l1.14-3.11zm43.104 9.398-17.692-17.206 1.107.446.063 15.934h-3.734V38.76h.189l17.375 17.205-.823-.252-.062-16.157h3.671v23.935zm11.203-.826v-23.11h6.549q3.42-.001 5.839 1.048t3.894 2.763a11.3 11.3 0 0 1 2.167 3.825q.697 2.113.696 4.238 0 2.602-.918 4.666a10.8 10.8 0 0 1-2.499 3.54 10.9 10.9 0 0 1-3.671 2.255 12.4 12.4 0 0 1-4.368.778h-7.689zm3.701-3.555h3.26q1.866-.001 3.402-.523a7.5 7.5 0 0 0 2.641-1.524 6.8 6.8 0 0 0 1.726-2.477q.617-1.474.616-3.412 0-2.157-.713-3.698t-1.869-2.507a7.5 7.5 0 0 0-2.516-1.413 8.6 8.6 0 0 0-2.689-.446h-3.861v16z"/></g><defs><clipPath id="a"><path fill="#fff" d="M0 .51h200v62.98H0z"/></clipPath></defs></svg>