<svg xmlns="http://www.w3.org/2000/svg" width="2cm" height="2cm" viewBox="0 0 20 20"><g style="display:inline"><path d="m6.509 280.21.94-.217 1.002-.233 1.069-.247 1.142-.265c2.54-.589 2.54-.589 3.958 1.292l.75.995.78 1.036.813 1.078.847 1.124c1.804 2.393 1.804 2.393 0 4.787l-.847 1.123-.812 1.078-.78 1.036-.751.996c-1.417 1.88-1.417 1.88-3.958 1.292l-1.142-.265-1.069-.248-1.002-.232-.94-.218c-1.72-.399-1.72-.399-2.508-2.175l-.378-.852-.368-.828-.357-.806-.349-.785c-.67-1.51-.67-1.51 0-3.02l.349-.784.357-.807.368-.828.378-.852c.788-1.776.788-1.776 2.508-2.174" style="display:inline;fill:#fff;fill-opacity:1;stroke:#000;stroke-width:1.33581;stroke-linecap:butt;stroke-linejoin:miter;stroke-miterlimit:4;stroke-dasharray:none;stroke-opacity:1" transform="translate(-.569 -277.19)"/><path d="M23.346 43.45c-1.28.35-2.378.953-3.28 1.571a21.845 21.845 0 0 0-2.464 1.973 2.307 2.307 0 1 0 3.175 3.342s.813-.768 1.899-1.514a9.616 9.616 0 0 1 1.814-.947 20.954 20.954 0 0 1-1.144-4.426zm26.77 2.784a18.87 18.87 0 0 1-1.694 4.381c.335.203.664.414.976.63a39.114 39.114 0 0 1 3.288 2.538 2.307 2.307 0 1 0 3.052-3.457s-1.605-1.425-3.722-2.885a27.863 27.863 0 0 0-1.9-1.207zM18.035 38a2.307 2.307 0 1 0-.078 4.611l5.295.096a21.403 21.403 0 0 1-.004-4.613zm32.608.588c.078.753.12 1.516.12 2.287 0 .793-.04 1.568-.117 2.324l5.7.102a2.307 2.307 0 1 0 .082-4.61zm4.666-11.174v.002a2.307 2.307 0 0 0-1.405.566s-1.424 1.205-3.279 2.416c-.63.412-1.322.803-1.998 1.143a20.071 20.071 0 0 1 1.568 4.383c1.06-.49 2.05-1.075 2.955-1.666a40.802 40.802 0 0 0 3.737-2.762 2.307 2.307 0 0 0-1.578-4.082zm-34.854 2.13a2.307 2.307 0 0 0-1.705 3.97s1.036 1.024 2.451 2.047c.643.464 1.382.923 2.217 1.293.267-1.584.71-3.101 1.307-4.51a8.721 8.721 0 0 1-.823-.522 18.647 18.647 0 0 1-1.912-1.592 2.307 2.307 0 0 0-1.535-.685z" style="color:#000;font-style:normal;font-variant:normal;font-weight:400;font-stretch:normal;font-size:medium;line-height:normal;font-family:sans-serif;font-variant-ligatures:normal;font-variant-position:normal;font-variant-caps:normal;font-variant-numeric:normal;font-variant-alternates:normal;font-feature-settings:normal;text-indent:0;text-align:start;text-decoration:none;text-decoration-line:none;text-decoration-style:solid;text-decoration-color:#000;letter-spacing:normal;word-spacing:normal;text-transform:none;writing-mode:lr-tb;direction:ltr;text-orientation:mixed;dominant-baseline:auto;baseline-shift:baseline;text-anchor:start;white-space:normal;shape-padding:0;clip-rule:nonzero;display:inline;overflow:visible;visibility:visible;isolation:auto;mix-blend-mode:normal;color-interpolation:sRGB;color-interpolation-filters:linearRGB;solid-color:#000;solid-opacity:1;vector-effect:none;fill:#000;fill-opacity:1;fill-rule:nonzero;stroke:#fff;stroke-width:.757311;stroke-linecap:round;stroke-linejoin:miter;stroke-miterlimit:4;stroke-dasharray:none;stroke-dashoffset:0;stroke-opacity:1;color-rendering:auto;image-rendering:auto;shape-rendering:auto;text-rendering:auto;enable-background:accumulate" transform="translate(-.569 -.19) scale(.26458)"/><path d="M37.049 18.834c-.547 0-1.106.045-1.666.135-3.946.635-6.961 3.36-6.961 6.12 0 .51.103.992.295 1.44 1.884-1.742 4.154-2.898 6.666-3.213 2.57-.321 5.171.27 7.508 1.715.236-.55.359-1.116.359-1.68 0-1.498-.877-2.813-2.408-3.638-1.075-.58-2.396-.877-3.793-.879z" style="fill:#fff;fill-opacity:1;stroke:#000;stroke-width:1.23915;stroke-linecap:round;stroke-miterlimit:4;stroke-dasharray:none;stroke-opacity:1" transform="translate(-.569 -.19) scale(.26458)"/><path d="M36.918 18.838c-.508.005-1.022.048-1.535.129-1.009.165-1.99.474-2.883.904l.002.004a1.378 1.378 0 0 1 .076.28 1.542 1.542 0 0 1-.008.556 1.753 1.753 0 0 1-.304.715 1.932 1.932 0 0 1-.203.238 1.393 1.393 0 0 1-.116.104c-.04.034-.081.063-.123.091a1.25 1.25 0 0 1-.129.08c-.043.023-.086.047-.13.067a1.548 1.548 0 0 1-.276.09c-.032.007-.067.01-.1.017a1.234 1.234 0 0 1-.275.008.779.779 0 0 1-.135-.017.774.774 0 0 1-.129-.036c-.042-.011-.082-.028-.123-.045a1.312 1.312 0 0 1-.226-.136 1.115 1.115 0 0 1-.27-.291c-1.042 1.063-1.608 2.296-1.61 3.492.001.51.104.992.296 1.441 1.884-1.742 4.154-2.898 6.666-3.213 2.571-.321 5.176.272 7.514 1.72.23-.542.353-1.11.353-1.686 0-1.352-.716-2.559-1.996-3.391a2.074 2.074 0 0 1-.492.557 2.7 2.7 0 0 1-.14.1c-.049.03-.097.06-.147.087a1.884 1.884 0 0 1-.473.17c-.038.008-.075.016-.113.02a1.572 1.572 0 0 1-.768-.084 1.317 1.317 0 0 1-.57-.454 1.298 1.298 0 0 1-.143-.261 1.34 1.34 0 0 1-.084-.291 1.475 1.475 0 0 1-.015-.426 1.616 1.616 0 0 1 .103-.436 9.439 9.439 0 0 0-1.494-.103z" style="fill:#000;fill-opacity:1;stroke:none;stroke-width:1.23915;stroke-linecap:round;stroke-miterlimit:4;stroke-dasharray:none;stroke-opacity:1" transform="translate(-.569 -.19) scale(.26458)"/><path d="M13.431 287.815c0 2.847-1.943 4.841-4.07 4.499-1.876-.303-3.243-2.362-3.243-4.63 0-2.27 1.367-4.28 3.244-4.515.987-.123 1.992.263 2.774 1.109.818.885 1.295 2.17 1.295 3.537" style="fill:red;fill-opacity:1;stroke:#000;stroke-width:.327859;stroke-miterlimit:4;stroke-dasharray:none;stroke-opacity:1" transform="translate(-.569 -277.19)"/><path d="M10.812 290.667a.483.483 0 0 1 .262.352l-.288-.145-.153.027-.084.201.081.145.286.147c-.08.051-.18.07-.28.051l-.292.263a.243.243 0 0 1-.26.043.32.32 0 0 1-.19-.215.245.245 0 0 1 .07-.251l.285-.262a.39.39 0 0 1 .027-.181c.082-.202.321-.28.536-.175m-2.78-.291a.325.325 0 0 0-.217.27l.24-.075.13.055.071.204-.07.117-.24.072c.066.065.15.104.235.11l.256.316a.263.263 0 0 0 .233.108.207.207 0 0 0 .177-.158.29.29 0 0 0-.066-.26l-.26-.316a.427.427 0 0 0-.024-.176c-.074-.207-.282-.325-.465-.267m4.04-1.206c.15.065.258.2.283.353l-.311-.137-.165.035-.09.213.088.146.307.14a.44.44 0 0 1-.3.065l-.316.286a.275.275 0 0 1-.278.057.317.317 0 0 1-.206-.215.256.256 0 0 1 .076-.264l.307-.284a.4.4 0 0 1 .029-.19c.088-.212.345-.305.576-.205m-1.639.372a.456.456 0 0 1 .256.34l-.282-.134-.15.031-.081.202.08.14.278.136a.382.382 0 0 1-.272.06l-.287.27a.24.24 0 0 1-.253.051.3.3 0 0 1-.187-.206.25.25 0 0 1 .069-.251l.279-.269a.397.397 0 0 1 .026-.18c.08-.201.314-.287.524-.19m-2.075-.149a.343.343 0 0 0-.222.28l.245-.084.133.052.073.204-.071.12-.247.081c.068.063.154.1.24.103l.262.311c.06.076.151.114.239.102a.22.22 0 0 0 .18-.165.284.284 0 0 0-.067-.261l-.266-.31a.422.422 0 0 0-.22-.408.348.348 0 0 0-.279-.025m-1.314-.513a.334.334 0 0 0-.203.271l.224-.084.122.047.067.194-.065.117-.226.081c.062.06.14.093.22.095l.24.293a.23.23 0 0 0 .218.093.21.21 0 0 0 .166-.16.277.277 0 0 0-.062-.249l-.243-.293a.419.419 0 0 0-.023-.17c-.068-.196-.264-.3-.435-.235m3.768-.847a.435.435 0 0 1 .262.33l-.288-.121-.153.039-.084.208.081.138.286.124a.406.406 0 0 1-.28.073l-.292.286a.254.254 0 0 1-.26.064.287.287 0 0 1-.19-.2.26.26 0 0 1 .07-.257l.285-.285a.393.393 0 0 1 .244-.402.424.424 0 0 1 .319.003m-2.78-.073a.36.36 0 0 0-.217.288l.24-.094.13.045.071.198-.07.123-.24.09a.35.35 0 0 0 .235.092l.256.296a.244.244 0 0 0 .233.089.23.23 0 0 0 .177-.171.275.275 0 0 0-.066-.255l-.26-.295a.414.414 0 0 0-.024-.175.391.391 0 0 0-.192-.218.334.334 0 0 0-.273-.012m4.04-1.399a.43.43 0 0 1 .283.331l-.311-.113-.165.047-.09.22.088.14.307.116a.464.464 0 0 1-.3.088l-.316.31a.288.288 0 0 1-.278.077.286.286 0 0 1-.206-.199.27.27 0 0 1 .076-.27l.307-.307a.413.413 0 0 1 .029-.19.441.441 0 0 1 .234-.238.467.467 0 0 1 .342-.012m-1.639-.276a.4.4 0 0 1 .256.314l-.282-.106-.15.047-.081.21.08.132.278.108a.41.41 0 0 1-.272.087l-.287.298a.256.256 0 0 1-.253.076.262.262 0 0 1-.187-.188.268.268 0 0 1 .069-.257l.279-.297a.414.414 0 0 1 .55-.424m-2.075.056a.39.39 0 0 0-.222.301l.245-.107.133.038.073.197-.071.127-.247.105a.346.346 0 0 0 .24.08l.262.285c.06.07.151.1.239.078a.251.251 0 0 0 .18-.183.266.266 0 0 0-.067-.254l-.266-.284a.406.406 0 0 0-.024-.176.368.368 0 0 0-.197-.21.345.345 0 0 0-.278.002m-1.314.309a.368.368 0 0 0-.203.286l.224-.1.122.038.067.189-.065.121-.226.098a.31.31 0 0 0 .22.079l.24.275a.215.215 0 0 0 .218.076.233.233 0 0 0 .166-.173.264.264 0 0 0-.062-.244l-.243-.274a.407.407 0 0 0-.023-.168c-.068-.191-.264-.281-.435-.203m4.386-1.907a.39.39 0 0 1 .273.31l-.3-.094-.159.054-.086.22.084.133.296.099a.462.462 0 0 1-.29.102l-.303.32a.286.286 0 0 1-.269.09.258.258 0 0 1-.198-.184.28.28 0 0 1 .073-.269l.296-.318a.42.42 0 0 1 .028-.189.464.464 0 0 1 .555-.274m-3.9.277a.402.402 0 0 0-.21.304l.232-.115.125.031.07.189-.068.127-.233.112a.31.31 0 0 0 .228.068l.247.266c.057.065.144.09.226.066a.257.257 0 0 0 .171-.185.256.256 0 0 0-.063-.245l-.252-.265a.397.397 0 0 0-.023-.17.319.319 0 0 0-.45-.182m2.903-1.297a.36.36 0 0 1 .256.294l-.282-.084-.15.058-.081.216.08.127.278.086a.44.44 0 0 1-.272.108l-.287.32a.273.273 0 0 1-.253.096.236.236 0 0 1-.187-.173.283.283 0 0 1 .069-.263l.279-.318a.427.427 0 0 1 .026-.184.466.466 0 0 1 .212-.245.413.413 0 0 1 .312-.038m-2.075.216a.433.433 0 0 0-.222.32l.245-.127.133.028.073.19-.071.134-.247.124a.325.325 0 0 0 .24.061l.262.265c.06.065.151.088.239.06a.28.28 0 0 0 .18-.197.252.252 0 0 0-.067-.25l-.266-.263a.394.394 0 0 0-.024-.174.33.33 0 0 0-.475-.17" style="fill:#000;fill-opacity:1;stroke:none;stroke-width:2.8078;stroke-linecap:round;stroke-miterlimit:4;stroke-dasharray:none;stroke-opacity:1" transform="translate(-.569 -277.19)"/></g></svg>