<svg xmlns="http://www.w3.org/2000/svg" width="19.1cm" height="2cm" viewBox="0 0 191 20"><path d="M15.589 277.99v2.804h-5.534v15.55H6.641v-15.55H1.107v-2.805zm13.977 0v2.716h-8.148v5.09h6.422v2.627h-6.422v5.191h8.148v2.73H17.991v-18.355zm12.774 3.338q-.151.266-.33.393-.164.114-.418.114-.267 0-.584-.19-.304-.203-.736-.444-.432-.242-1.015-.432-.572-.203-1.359-.203-.71 0-1.243.178-.534.165-.902.47-.355.304-.533.736-.177.418-.177.926 0 .647.355 1.079.368.432.965.736.596.305 1.358.546.761.241 1.56.52.8.267 1.562.635.762.355 1.358.914.597.546.952 1.345.368.8.368 1.942 0 1.244-.431 2.336-.42 1.079-1.244 1.89-.812.8-1.993 1.27-1.18.457-2.703.457-.876 0-1.727-.178-.85-.165-1.637-.482-.774-.317-1.46-.761-.685-.445-1.218-.99l1.003-1.638q.126-.178.33-.292.203-.127.431-.127.317 0 .686.267.368.254.875.571.508.317 1.18.584.686.254 1.638.254 1.46 0 2.26-.686.8-.698.8-1.992 0-.724-.369-1.18-.355-.458-.952-.762-.597-.318-1.358-.534-.762-.215-1.549-.47-.787-.253-1.548-.608-.762-.356-1.358-.927t-.965-1.422q-.355-.863-.355-2.12 0-1.002.393-1.954.406-.952 1.168-1.688t1.878-1.18 2.564-.445q1.625 0 2.996.508t2.335 1.422zm16.98-3.338v2.804h-5.535v15.55h-3.414v-15.55h-5.534v-2.805zm13.977 0v2.716h-8.149v5.09h6.423v2.627h-6.423v5.191h8.149v2.73H61.72v-18.355zm6.415 11.182v7.171h-3.414v-18.354h5.597q1.866 0 3.199.394 1.345.38 2.196 1.079.863.698 1.27 1.675.405.965.405 2.133 0 .926-.279 1.751-.267.825-.787 1.498-.508.673-1.27 1.18-.748.508-1.713.813.648.368 1.117 1.053l4.595 6.778h-3.084q-.876 0-1.27-.685l-3.858-5.877q-.216-.33-.483-.47-.253-.14-.761-.14zm0-2.45h2.133q.964 0 1.675-.241.724-.241 1.18-.66.47-.432.699-1.016.228-.583.228-1.282 0-1.396-.927-2.145-.913-.749-2.805-.749h-2.183zm24.474-8.732v2.716h-8.149v5.09h6.423v2.627h-6.423v5.191h8.149v2.73H92.61v-18.355zm12.216 10.737q.216.407.393.85.19.432.368.877.178-.47.368-.902.19-.444.407-.85l5.42-10.167q.1-.19.215-.304.114-.115.241-.165.14-.051.305-.064t.393-.013h2.577v18.354h-3.008v-11.855q0-.33.013-.723.025-.394.063-.8l-5.547 10.408q-.393.749-1.205.749h-.483q-.812 0-1.206-.75l-5.61-10.445q.038.419.064.825.025.393.025.736v11.855h-3.008v-18.354h2.577q.228 0 .393.013t.292.064q.14.05.241.165.114.114.216.304z" style="font-style:normal;font-variant:normal;font-weight:700;font-stretch:normal;font-size:25.3854px;line-height:1.25;font-family:Lato;-inkscape-font-specification:&quot;Lato Bold&quot;;letter-spacing:0;word-spacing:0;fill:#fff;fill-opacity:1;stroke:none;stroke-width:.446464;stroke-miterlimit:4;stroke-dasharray:none;stroke-opacity:1" transform="translate(0 -277)"/><path d="M130.846 296.339v-18.345h5.277q1.569 0 2.722.31 1.154.312 1.906.921.752.597 1.115 1.465t.363 1.971q0 .726-.259 1.4-.246.674-.726 1.245-.48.57-1.18.998-.687.415-1.569.635 2.166.324 3.32 1.452 1.166 1.115 1.166 2.93 0 1.167-.415 2.1-.415.934-1.205 1.582-.791.649-1.945.999-1.154.337-2.619.337zm1.336-8.79v7.727h4.602q2.412 0 3.643-1.038 1.245-1.05 1.245-2.943 0-.868-.337-1.555-.324-.7-.947-1.18-.622-.493-1.53-.752-.907-.26-2.06-.26zm0-.973h3.967q1.27 0 2.165-.324.907-.324 1.478-.855.583-.532.856-1.206.272-.674.272-1.387 0-1.854-1.18-2.8-1.167-.96-3.617-.96h-3.941zm20.181 2.204v7.559h-1.322v-7.559l-6.794-10.786h1.167q.182 0 .298.09.117.078.195.234l5.25 8.427q.169.298.299.583.142.273.246.545.104-.272.233-.545.143-.285.311-.583l5.251-8.427q.065-.143.182-.233.13-.091.31-.091h1.168zm22.157 4.473q.13 0 .22.09l.519.558q-.57.61-1.245 1.102-.661.48-1.465.83-.79.337-1.75.519-.947.194-2.087.194-1.906 0-3.5-.661-1.583-.674-2.723-1.893-1.141-1.231-1.777-2.969-.622-1.737-.622-3.863 0-2.088.648-3.812.649-1.724 1.815-2.956 1.167-1.244 2.8-1.919 1.634-.687 3.605-.687 1.88 0 3.332.584 1.452.583 2.645 1.646l-.402.584q-.104.155-.324.155-.156 0-.506-.285t-.972-.622q-.623-.35-1.556-.636-.92-.285-2.217-.285-1.66 0-3.047.57-1.374.571-2.372 1.634-.986 1.063-1.543 2.593-.558 1.53-.558 3.436 0 1.944.558 3.474.57 1.53 1.556 2.593.985 1.05 2.32 1.62 1.349.558 2.904.558.986 0 1.75-.13.779-.129 1.427-.388.648-.26 1.205-.636.558-.376 1.102-.881.065-.052.13-.078.065-.039.13-.039" style="font-style:normal;font-variant:normal;font-weight:300;font-stretch:normal;font-size:25.9293px;line-height:1.25;font-family:Lato;-inkscape-font-specification:&quot;Lato Light&quot;;letter-spacing:0;word-spacing:0;fill:#fff;fill-opacity:1;stroke:none;stroke-width:.446464;stroke-miterlimit:4;stroke-dasharray:none" transform="translate(0 -277)"/><path d="M185.832 294.126h4.579v2.42h-13.009v-4.228q0-1.305.306-2.258t.855-1.575q.548-.62 1.313-.917.765-.306 1.673-.306.945 0 1.737.315.782.315 1.35.944.566.63.88 1.584.316.944.316 2.213zm-1.89 0v-1.808q0-.666-.161-1.16-.171-.495-.477-.82-.315-.332-.756-.494-.45-.162-.998-.162-.522 0-.945.162t-.72.486-.45.818q-.162.495-.162 1.17v1.808zm4.472-11.14v-5.2h1.997v7.62h-13.009v-2.42z" style="font-style:normal;font-variant:normal;font-weight:700;font-stretch:normal;font-size:17.9926px;line-height:1.25;font-family:Lato;-inkscape-font-specification:&quot;Lato Bold&quot;;letter-spacing:0;word-spacing:0;fill:red;fill-opacity:1;stroke:none;stroke-width:.309806;stroke-miterlimit:4;stroke-dasharray:none" transform="translate(0 -277)"/></svg>