<svg xmlns="http://www.w3.org/2000/svg" width="876.85" height="4cm" viewBox="0 0 232 40"><g style="display:inline"><g style="display:inline;mix-blend-mode:normal"><path d="m6.509 280.21.94-.217 1.002-.233 1.069-.247 1.142-.265c2.54-.589 2.54-.589 3.958 1.292l.75.995.78 1.036.813 1.078.847 1.124c1.804 2.393 1.804 2.393 0 4.787l-.847 1.123-.812 1.078-.78 1.036-.751.996c-1.417 1.88-1.417 1.88-3.958 1.292l-1.142-.265-1.069-.248-1.002-.232-.94-.218c-1.72-.399-1.72-.399-2.508-2.175l-.378-.852-.368-.828-.357-.806-.349-.785c-.67-1.51-.67-1.51 0-3.02l.349-.784.357-.807.368-.828.378-.852c.788-1.776.788-1.776 2.508-2.174" style="display:inline;fill:#fff;fill-opacity:1;stroke:#000;stroke-width:1.33581;stroke-linecap:butt;stroke-linejoin:miter;stroke-miterlimit:4;stroke-dasharray:none;stroke-opacity:1" transform="translate(-1.51 -581.58)scale(2.09473)"/><path d="M23.346 43.45c-1.28.35-2.378.953-3.28 1.571a22 22 0 0 0-2.464 1.973 2.307 2.307 0 1 0 3.175 3.342s.813-.768 1.899-1.514a9.6 9.6 0 0 1 1.814-.947 21 21 0 0 1-1.144-4.426zm26.77 2.784a19 19 0 0 1-1.694 4.381c.335.203.664.414.976.63a39 39 0 0 1 3.288 2.538 2.307 2.307 0 1 0 3.052-3.457s-1.605-1.425-3.722-2.885a28 28 0 0 0-1.9-1.207zM18.035 38a2.307 2.307 0 1 0-.078 4.611l5.295.096a21.4 21.4 0 0 1-.004-4.613zm32.608.588q.119 1.13.12 2.287 0 1.19-.117 2.324l5.7.102a2.307 2.307 0 1 0 .082-4.61zm4.666-11.174v.002a2.3 2.3 0 0 0-1.405.566s-1.424 1.205-3.279 2.416c-.63.412-1.322.803-1.998 1.143a20 20 0 0 1 1.568 4.383c1.06-.49 2.05-1.075 2.955-1.666a41 41 0 0 0 3.737-2.762 2.307 2.307 0 0 0-1.578-4.082zm-34.854 2.13a2.307 2.307 0 0 0-1.705 3.97s1.036 1.024 2.451 2.047c.643.464 1.382.923 2.217 1.293.267-1.584.71-3.101 1.307-4.51a9 9 0 0 1-.823-.522 19 19 0 0 1-1.912-1.592 2.3 2.3 0 0 0-1.535-.685z" style="color:#000;font-style:normal;font-variant:normal;font-weight:400;font-stretch:normal;font-size:medium;line-height:normal;font-family:sans-serif;font-variant-ligatures:normal;font-variant-position:normal;font-variant-caps:normal;font-variant-numeric:normal;font-variant-alternates:normal;font-feature-settings:normal;text-indent:0;text-align:start;text-decoration:none;text-decoration-line:none;text-decoration-style:solid;text-decoration-color:#000;letter-spacing:normal;word-spacing:normal;text-transform:none;writing-mode:lr-tb;direction:ltr;text-orientation:mixed;dominant-baseline:auto;baseline-shift:baseline;text-anchor:start;white-space:normal;shape-padding:0;clip-rule:nonzero;display:inline;overflow:visible;visibility:visible;isolation:auto;mix-blend-mode:normal;color-interpolation:sRGB;color-interpolation-filters:linearRGB;solid-color:#000;solid-opacity:1;vector-effect:none;fill:#000;fill-opacity:1;fill-rule:nonzero;stroke:#fff;stroke-width:.757311;stroke-linecap:round;stroke-linejoin:miter;stroke-miterlimit:4;stroke-dasharray:none;stroke-dashoffset:0;stroke-opacity:1;color-rendering:auto;image-rendering:auto;shape-rendering:auto;text-rendering:auto" transform="translate(-1.51 -1.34)scale(.55423)"/><path d="M37.049 18.834c-.547 0-1.106.045-1.666.135-3.946.635-6.961 3.36-6.961 6.12 0 .51.103.992.295 1.44 1.884-1.742 4.154-2.898 6.666-3.213 2.57-.321 5.171.27 7.508 1.715.236-.55.359-1.116.359-1.68 0-1.498-.877-2.813-2.408-3.638-1.075-.58-2.396-.877-3.793-.879z" style="fill:#fff;fill-opacity:1;stroke:#000;stroke-width:1.23915;stroke-linecap:round;stroke-miterlimit:4;stroke-dasharray:none;stroke-opacity:1" transform="translate(-1.51 -1.34)scale(.55423)"/><path d="M36.918 18.838q-.764.007-1.535.129c-1.009.165-1.99.474-2.883.904l.002.004a1.4 1.4 0 0 1 .076.28 1.5 1.5 0 0 1-.008.556 1.75 1.75 0 0 1-.304.715 2 2 0 0 1-.203.238 1 1 0 0 1-.116.104q-.06.05-.123.091-.063.045-.129.08-.064.036-.13.067a1.6 1.6 0 0 1-.276.09l-.1.017a1.2 1.2 0 0 1-.275.008q-.068-.003-.135-.017a1 1 0 0 1-.129-.036q-.062-.018-.123-.045a1.3 1.3 0 0 1-.226-.136 1.1 1.1 0 0 1-.27-.291c-1.042 1.063-1.608 2.296-1.61 3.492.001.51.104.992.296 1.441 1.884-1.742 4.154-2.898 6.666-3.213 2.571-.321 5.176.272 7.514 1.72.23-.542.353-1.11.353-1.686 0-1.352-.716-2.559-1.996-3.391l-.025.043a2.1 2.1 0 0 1-.467.514 3 3 0 0 1-.14.1q-.073.046-.147.087a2 2 0 0 1-.473.17q-.056.013-.113.02a1.6 1.6 0 0 1-.768-.084 1.3 1.3 0 0 1-.57-.454 1.3 1.3 0 0 1-.143-.261 1.3 1.3 0 0 1-.084-.291 1.5 1.5 0 0 1-.015-.426 1.6 1.6 0 0 1 .103-.436 9.4 9.4 0 0 0-1.494-.103" style="fill:#000;fill-opacity:1;stroke:none;stroke-width:1.23915;stroke-linecap:round;stroke-miterlimit:4;stroke-dasharray:none;stroke-opacity:1" transform="translate(-1.51 -1.34)scale(.55423)"/><path d="M13.431 287.815c0 2.847-1.943 4.841-4.07 4.499-1.876-.303-3.243-2.362-3.243-4.63 0-2.27 1.367-4.28 3.244-4.515.987-.123 1.992.263 2.774 1.109.818.885 1.295 2.17 1.295 3.537" style="fill:red;fill-opacity:1;stroke:#000;stroke-width:.327859;stroke-miterlimit:4;stroke-dasharray:none;stroke-opacity:1" transform="translate(-1.51 -581.58)scale(2.09473)"/><path d="M10.812 290.667a.48.48 0 0 1 .262.352l-.288-.145-.153.027-.084.201.081.145.286.147c-.08.051-.18.07-.28.051l-.292.263a.24.24 0 0 1-.26.043.32.32 0 0 1-.19-.215.25.25 0 0 1 .07-.251l.285-.262a.4.4 0 0 1 .027-.181c.082-.202.321-.28.536-.175m-2.78-.291a.33.33 0 0 0-.217.27l.24-.075.13.055.071.204-.07.117-.24.072c.066.065.15.104.235.11l.256.316a.26.26 0 0 0 .233.108.21.21 0 0 0 .177-.158.29.29 0 0 0-.066-.26l-.26-.316a.4.4 0 0 0-.024-.176c-.074-.207-.282-.325-.465-.267m4.04-1.206c.15.065.258.2.283.353l-.311-.137-.165.035-.09.213.088.146.307.14a.44.44 0 0 1-.3.065l-.316.286a.28.28 0 0 1-.278.057.32.32 0 0 1-.206-.215.26.26 0 0 1 .076-.264l.307-.284a.4.4 0 0 1 .029-.19c.088-.212.345-.305.576-.205m-1.639.372a.46.46 0 0 1 .256.34l-.282-.134-.15.031-.081.202.08.14.278.136a.38.38 0 0 1-.272.06l-.287.27a.24.24 0 0 1-.253.051.3.3 0 0 1-.187-.206.25.25 0 0 1 .069-.251l.279-.269a.4.4 0 0 1 .026-.18c.08-.201.314-.287.524-.19m-2.075-.149a.34.34 0 0 0-.222.28l.245-.084.133.052.073.204-.071.12-.247.081c.068.063.154.1.24.103l.262.311c.06.076.151.114.239.102a.22.22 0 0 0 .18-.165.28.28 0 0 0-.067-.261l-.266-.31a.42.42 0 0 0-.22-.408.35.35 0 0 0-.279-.025m-1.314-.513a.33.33 0 0 0-.203.271l.224-.084.122.047.067.194-.065.117-.226.081c.062.06.14.093.22.095l.24.293a.23.23 0 0 0 .218.093.21.21 0 0 0 .166-.16.28.28 0 0 0-.062-.249l-.243-.293a.4.4 0 0 0-.023-.17c-.068-.196-.264-.3-.435-.235m3.768-.847a.44.44 0 0 1 .262.33l-.288-.121-.153.039-.084.208.081.138.286.124a.4.4 0 0 1-.28.073l-.292.286a.25.25 0 0 1-.26.064.29.29 0 0 1-.19-.2.26.26 0 0 1 .07-.257l.285-.285a.39.39 0 0 1 .244-.402.42.42 0 0 1 .319.003m-2.78-.073a.36.36 0 0 0-.217.288l.24-.094.13.045.071.198-.07.123-.24.09a.35.35 0 0 0 .235.092l.256.296a.24.24 0 0 0 .233.089.23.23 0 0 0 .177-.171.28.28 0 0 0-.066-.255l-.26-.295a.4.4 0 0 0-.024-.175.4.4 0 0 0-.192-.218.33.33 0 0 0-.273-.012m4.04-1.399a.43.43 0 0 1 .283.331l-.311-.113-.165.047-.09.22.088.14.307.116a.46.46 0 0 1-.3.088l-.316.31a.29.29 0 0 1-.278.077.29.29 0 0 1-.206-.199.27.27 0 0 1 .076-.27l.307-.307a.4.4 0 0 1 .029-.19.44.44 0 0 1 .234-.238.47.47 0 0 1 .342-.012m-1.639-.276a.4.4 0 0 1 .256.314l-.282-.106-.15.047-.081.21.08.132.278.108a.4.4 0 0 1-.272.087l-.287.298a.26.26 0 0 1-.253.076.26.26 0 0 1-.187-.188.27.27 0 0 1 .069-.257l.279-.297a.414.414 0 0 1 .55-.424m-2.075.056a.39.39 0 0 0-.222.301l.245-.107.133.038.073.197-.071.127-.247.105a.35.35 0 0 0 .24.08l.262.285c.06.07.151.1.239.078a.25.25 0 0 0 .18-.183.27.27 0 0 0-.067-.254l-.266-.284a.4.4 0 0 0-.024-.176.37.37 0 0 0-.197-.21.35.35 0 0 0-.278.002m-1.314.309a.37.37 0 0 0-.203.286l.224-.1.122.038.067.189-.065.121-.226.098a.3.3 0 0 0 .22.079l.24.275a.22.22 0 0 0 .218.076.23.23 0 0 0 .166-.173.26.26 0 0 0-.062-.244l-.243-.274a.4.4 0 0 0-.023-.168c-.068-.191-.264-.281-.435-.203m4.386-1.907a.39.39 0 0 1 .273.31l-.3-.094-.159.054-.086.22.084.133.296.099a.46.46 0 0 1-.29.102l-.303.32a.29.29 0 0 1-.269.09.26.26 0 0 1-.198-.184.28.28 0 0 1 .073-.269l.296-.318a.4.4 0 0 1 .028-.189.464.464 0 0 1 .555-.274m-3.9.277a.4.4 0 0 0-.21.304l.232-.115.125.031.07.189-.068.127-.233.112a.3.3 0 0 0 .228.068l.247.266c.057.065.144.09.226.066a.26.26 0 0 0 .171-.185.26.26 0 0 0-.063-.245l-.252-.265a.4.4 0 0 0-.023-.17.32.32 0 0 0-.45-.182m2.903-1.297a.36.36 0 0 1 .256.294l-.282-.084-.15.058-.081.216.08.127.278.086a.44.44 0 0 1-.272.108l-.287.32a.27.27 0 0 1-.253.096.24.24 0 0 1-.187-.173.28.28 0 0 1 .069-.263l.279-.318a.4.4 0 0 1 .026-.184.47.47 0 0 1 .212-.245.4.4 0 0 1 .312-.038m-2.075.216a.43.43 0 0 0-.222.32l.245-.127.133.028.073.19-.071.134-.247.124a.33.33 0 0 0 .24.061l.262.265c.06.065.151.088.239.06a.28.28 0 0 0 .18-.197.25.25 0 0 0-.067-.25l-.266-.263a.4.4 0 0 0-.024-.174.33.33 0 0 0-.475-.17" style="fill:#000;fill-opacity:1;stroke:none;stroke-width:2.8078;stroke-linecap:round;stroke-miterlimit:4;stroke-dasharray:none;stroke-opacity:1" transform="translate(-1.51 -581.58)scale(2.09473)"/></g><path d="M34.677 277.99v2.804h-5.534v15.55h-3.415v-15.55h-5.534v-2.805zm13.977 0v2.716h-8.148v5.09h6.422v2.627h-6.422v5.191h8.148v2.73H37.078v-18.355zm12.775 3.338q-.153.266-.33.393-.165.114-.42.114-.266 0-.583-.19-.305-.203-.736-.444-.432-.242-1.016-.432-.57-.203-1.358-.203-.71 0-1.244.178-.533.165-.9.47-.356.304-.534.736-.178.418-.178.926 0 .647.356 1.079.368.432.964.736.597.305 1.359.546.761.241 1.56.52.8.267 1.562.635.762.355 1.358.914.597.546.952 1.345.368.8.368 1.942 0 1.244-.431 2.336-.42 1.079-1.244 1.89-.813.8-1.993 1.27-1.18.457-2.704.457-.875 0-1.726-.178-.85-.165-1.637-.482-.774-.317-1.46-.761-.685-.445-1.218-.99l1.002-1.638q.127-.178.33-.292.203-.127.432-.127.317 0 .685.267.368.254.876.571t1.18.584q.686.254 1.638.254 1.46 0 2.26-.686.799-.698.799-1.992 0-.724-.368-1.18-.356-.458-.952-.762-.597-.318-1.358-.534-.762-.215-1.549-.47-.787-.253-1.548-.608-.762-.356-1.358-.927t-.965-1.422q-.356-.863-.356-2.12 0-1.002.394-1.954.406-.952 1.168-1.688t1.878-1.18 2.564-.445q1.625 0 2.996.508t2.335 1.422zm16.978-3.338v2.804h-5.534v15.55H69.46v-15.55h-5.534v-2.805zm13.978 0v2.716h-8.15v5.09h6.423v2.627h-6.422v5.191h8.149v2.73H80.809v-18.355zm6.415 11.182v7.171h-3.414v-18.354h5.597q1.866 0 3.199.394 1.345.38 2.196 1.079.863.698 1.269 1.675.406.965.406 2.133 0 .926-.28 1.751-.266.825-.786 1.498-.508.673-1.27 1.18-.748.508-1.713.813.647.368 1.117 1.053l4.595 6.778h-3.085q-.875 0-1.269-.685l-3.858-5.877q-.216-.33-.483-.47-.254-.14-.761-.14zm0-2.45h2.132q.965 0 1.676-.241.723-.241 1.18-.66.47-.432.698-1.016.229-.583.229-1.282 0-1.396-.927-2.145-.914-.749-2.805-.749H98.8zm24.474-8.732v2.716h-8.15v5.09h6.423v2.627h-6.422v5.191h8.149v2.73h-11.576v-18.355zm12.216 10.737q.215.407.393.85.19.432.368.877.178-.47.368-.902.19-.444.406-.85l5.42-10.167q.102-.19.216-.304.114-.115.241-.165.14-.051.305-.064t.393-.013h2.577v18.354h-3.008v-11.855q0-.33.012-.723.026-.394.064-.8l-5.547 10.408q-.393.749-1.206.749h-.482q-.812 0-1.206-.75l-5.61-10.445q.038.419.063.825.026.393.026.736v11.855h-3.008v-18.354h2.576q.229 0 .394.013t.292.064q.14.05.24.165.115.114.217.304z" style="font-style:normal;font-variant:normal;font-weight:700;font-stretch:normal;font-size:25.3854px;line-height:1.25;font-family:Lato;-inkscape-font-specification:&quot;Lato Bold&quot;;letter-spacing:0;word-spacing:0;fill:#fff;fill-opacity:1;stroke:none;stroke-width:.446464;stroke-miterlimit:4;stroke-dasharray:none;stroke-opacity:1" transform="translate(20.937 -267.656)"/><path d="M149.934 296.339v-18.345h5.277q1.568 0 2.722.31 1.154.312 1.906.921.752.597 1.115 1.465t.363 1.971q0 .726-.26 1.4-.246.674-.725 1.245-.48.57-1.18.998-.687.415-1.569.635 2.165.324 3.32 1.452 1.166 1.115 1.166 2.93 0 1.167-.415 2.1-.415.934-1.206 1.582-.79.649-1.944.999-1.154.337-2.62.337zm1.335-8.79v7.727h4.603q2.411 0 3.643-1.038 1.245-1.05 1.245-2.943 0-.868-.338-1.555-.324-.7-.946-1.18-.622-.493-1.53-.752-.907-.26-2.061-.26zm0-.973h3.968q1.27 0 2.165-.324.907-.324 1.478-.855.583-.532.855-1.206.273-.674.273-1.387 0-1.854-1.18-2.8-1.167-.96-3.617-.96h-3.942zm20.182 2.204v7.559h-1.322v-7.559l-6.794-10.786h1.167q.181 0 .298.09.117.078.195.234l5.25 8.427q.169.298.298.583.143.273.247.545.103-.272.233-.545.143-.285.311-.583l5.251-8.427q.065-.143.181-.233.13-.091.312-.091h1.166zm22.157 4.473q.13 0 .22.09l.519.558q-.57.61-1.245 1.102-.661.48-1.465.83-.79.337-1.75.519-.947.194-2.088.194-1.905 0-3.5-.661-1.582-.674-2.723-1.893-1.14-1.231-1.776-2.969-.622-1.737-.622-3.863 0-2.088.648-3.812t1.815-2.956q1.167-1.244 2.8-1.919 1.634-.687 3.605-.687 1.88 0 3.332.584 1.452.583 2.644 1.646l-.401.584q-.104.155-.325.155-.155 0-.505-.285t-.973-.622q-.622-.35-1.555-.636-.92-.285-2.217-.285-1.66 0-3.047.57-1.374.571-2.373 1.634-.985 1.063-1.542 2.593-.558 1.53-.558 3.436 0 1.944.558 3.474.57 1.53 1.555 2.593.986 1.05 2.321 1.62 1.348.558 2.904.558.986 0 1.75-.13.778-.129 1.427-.388.648-.26 1.205-.636.558-.376 1.102-.881.065-.052.13-.078.065-.039.13-.039" style="font-style:normal;font-variant:normal;font-weight:300;font-stretch:normal;font-size:25.9293px;line-height:1.25;font-family:Lato;-inkscape-font-specification:&quot;Lato Light&quot;;letter-spacing:0;word-spacing:0;fill:#fff;fill-opacity:1;stroke:none;stroke-width:.446464;stroke-miterlimit:4;stroke-dasharray:none" transform="translate(20.937 -267.656)"/><path d="M204.92 294.126h4.579v2.42H196.49v-4.228q0-1.305.306-2.258t.855-1.575q.548-.62 1.313-.917.765-.306 1.673-.306.945 0 1.737.315.782.315 1.349.944.567.63.882 1.584.315.944.315 2.213zm-1.89 0v-1.808q0-.666-.162-1.16-.17-.495-.476-.82-.315-.332-.756-.494-.45-.162-.999-.162-.521 0-.944.162t-.72.486-.45.818q-.162.495-.162 1.17v1.808zm4.471-11.14v-5.2h1.998v7.62H196.49v-2.42z" style="font-style:normal;font-variant:normal;font-weight:700;font-stretch:normal;font-size:17.9926px;line-height:1.25;font-family:Lato;-inkscape-font-specification:&quot;Lato Bold&quot;;letter-spacing:0;word-spacing:0;fill:red;fill-opacity:1;stroke:none;stroke-width:.309806;stroke-miterlimit:4;stroke-dasharray:none" transform="translate(20.937 -267.656)"/></g></svg>