<svg xmlns="http://www.w3.org/2000/svg" width="21cm" height="2cm" viewBox="0 0 210 20"><g style="display:inline"><path d="M34.677 277.99v2.804h-5.534v15.55h-3.415v-15.55h-5.534v-2.805zm13.977 0v2.716h-8.148v5.09h6.422v2.627h-6.422v5.191h8.148v2.73H37.078v-18.355zm12.775 3.338q-.153.266-.33.393-.165.114-.42.114-.266 0-.583-.19-.305-.203-.736-.444-.432-.242-1.016-.432-.57-.203-1.358-.203-.71 0-1.244.178-.533.165-.9.47-.356.304-.534.736-.178.418-.178.926 0 .647.356 1.079.368.432.964.736.597.305 1.359.546.761.241 1.56.52.8.267 1.562.635.762.355 1.358.914.597.546.952 1.345.368.8.368 1.942 0 1.244-.431 2.336-.42 1.079-1.244 1.89-.813.8-1.993 1.27-1.18.457-2.704.457-.875 0-1.726-.178-.85-.165-1.637-.482-.774-.317-1.46-.761-.685-.445-1.218-.99l1.002-1.638q.127-.178.33-.292.203-.127.432-.127.317 0 .685.267.368.254.876.571t1.18.584q.686.254 1.638.254 1.46 0 2.26-.686.799-.698.799-1.992 0-.724-.368-1.18-.356-.458-.952-.762-.597-.318-1.358-.534-.762-.215-1.549-.47-.787-.253-1.548-.608-.762-.356-1.358-.927t-.965-1.422q-.356-.863-.356-2.12 0-1.002.394-1.954.406-.952 1.168-1.688t1.878-1.18 2.564-.445q1.625 0 2.996.508t2.335 1.422zm16.978-3.338v2.804h-5.534v15.55H69.46v-15.55h-5.534v-2.805zm13.978 0v2.716h-8.15v5.09h6.423v2.627h-6.422v5.191h8.149v2.73H80.809v-18.355zm6.415 11.182v7.171h-3.414v-18.354h5.597q1.866 0 3.199.394 1.345.38 2.196 1.079.863.698 1.269 1.675.406.965.406 2.133 0 .926-.28 1.751-.266.825-.786 1.498-.508.673-1.27 1.18-.748.508-1.713.813.647.368 1.117 1.053l4.595 6.778h-3.085q-.875 0-1.269-.685l-3.858-5.877q-.216-.33-.483-.47-.254-.14-.761-.14zm0-2.45h2.132q.965 0 1.676-.241.723-.241 1.18-.66.47-.432.698-1.016.229-.583.229-1.282 0-1.396-.927-2.145-.914-.749-2.805-.749H98.8zm24.474-8.732v2.716h-8.15v5.09h6.423v2.627h-6.422v5.191h8.149v2.73h-11.576v-18.355zm12.216 10.737q.215.407.393.85.19.432.368.877.178-.47.368-.902.19-.444.406-.85l5.42-10.167q.102-.19.216-.304.114-.115.241-.165.14-.051.305-.064t.393-.013h2.577v18.354h-3.008v-11.855q0-.33.012-.723.026-.394.064-.8l-5.547 10.408q-.393.749-1.206.749h-.482q-.812 0-1.206-.75l-5.61-10.445q.038.419.063.825.026.393.026.736v11.855h-3.008v-18.354h2.576q.229 0 .394.013t.292.064q.14.05.24.165.115.114.217.304z" style="font-style:normal;font-variant:normal;font-weight:700;font-stretch:normal;font-size:25.3854px;line-height:1.25;font-family:Lato;-inkscape-font-specification:&quot;Lato Bold&quot;;letter-spacing:0;word-spacing:0;fill:#fff;fill-opacity:1;stroke:none;stroke-width:.446464;stroke-miterlimit:4;stroke-dasharray:none;stroke-opacity:1" transform="translate(0 -277)"/><path d="M149.934 296.339v-18.345h5.277q1.568 0 2.722.31 1.154.312 1.906.921.752.597 1.115 1.465t.363 1.971q0 .726-.26 1.4-.246.674-.725 1.245-.48.57-1.18.998-.687.415-1.569.635 2.165.324 3.32 1.452 1.166 1.115 1.166 2.93 0 1.167-.415 2.1-.415.934-1.206 1.582-.79.649-1.944.999-1.154.337-2.62.337zm1.335-8.79v7.727h4.603q2.411 0 3.643-1.038 1.245-1.05 1.245-2.943 0-.868-.338-1.555-.324-.7-.946-1.18-.622-.493-1.53-.752-.907-.26-2.061-.26zm0-.973h3.968q1.27 0 2.165-.324.907-.324 1.478-.855.583-.532.855-1.206.273-.674.273-1.387 0-1.854-1.18-2.8-1.167-.96-3.617-.96h-3.942zm20.182 2.204v7.559h-1.322v-7.559l-6.794-10.786h1.167q.181 0 .298.09.117.078.195.234l5.25 8.427q.169.298.298.583.143.273.247.545.103-.272.233-.545.143-.285.311-.583l5.251-8.427q.065-.143.181-.233.13-.091.312-.091h1.166zm22.157 4.473q.13 0 .22.09l.519.558q-.57.61-1.245 1.102-.661.48-1.465.83-.79.337-1.75.519-.947.194-2.088.194-1.905 0-3.5-.661-1.582-.674-2.723-1.893-1.14-1.231-1.776-2.969-.622-1.737-.622-3.863 0-2.088.648-3.812t1.815-2.956q1.167-1.244 2.8-1.919 1.634-.687 3.605-.687 1.88 0 3.332.584 1.452.583 2.644 1.646l-.401.584q-.104.155-.325.155-.155 0-.505-.285t-.973-.622q-.622-.35-1.555-.636-.92-.285-2.217-.285-1.66 0-3.047.57-1.374.571-2.373 1.634-.985 1.063-1.542 2.593-.558 1.53-.558 3.436 0 1.944.558 3.474.57 1.53 1.555 2.593.986 1.05 2.321 1.62 1.348.558 2.904.558.986 0 1.75-.13.778-.129 1.427-.388.648-.26 1.205-.636.558-.376 1.102-.881.065-.052.13-.078.065-.039.13-.039" style="font-style:normal;font-variant:normal;font-weight:300;font-stretch:normal;font-size:25.9293px;line-height:1.25;font-family:Lato;-inkscape-font-specification:&quot;Lato Light&quot;;letter-spacing:0;word-spacing:0;fill:#fff;fill-opacity:1;stroke:none;stroke-width:.446464;stroke-miterlimit:4;stroke-dasharray:none" transform="translate(0 -277)"/><path d="M204.92 294.126h4.579v2.42H196.49v-4.228q0-1.305.306-2.258t.855-1.575q.548-.62 1.313-.917.765-.306 1.673-.306.945 0 1.737.315.782.315 1.349.944.567.63.882 1.584.315.944.315 2.213zm-1.89 0v-1.808q0-.666-.162-1.16-.17-.495-.476-.82-.315-.332-.756-.494-.45-.162-.999-.162-.521 0-.944.162t-.72.486-.45.818q-.162.495-.162 1.17v1.808zm4.471-11.14v-5.2h1.998v7.62H196.49v-2.42z" style="font-style:normal;font-variant:normal;font-weight:700;font-stretch:normal;font-size:17.9926px;line-height:1.25;font-family:Lato;-inkscape-font-specification:&quot;Lato Bold&quot;;letter-spacing:0;word-spacing:0;fill:red;fill-opacity:1;stroke:none;stroke-width:.309806;stroke-miterlimit:4;stroke-dasharray:none" transform="translate(0 -277)"/></g></svg>