<?xml version="1.0" encoding="UTF-8" standalone="no"?>
<!-- Created with Inkscape (http://www.inkscape.org/) -->

<svg
   width="2cm"
   height="2cm"
   viewBox="0 0 20 20"
   version="1.1"
   id="svg1439"
   inkscape:version="1.1.1 (c3084ef, 2021-09-22)"
   sodipodi:docname="logo_black.svg"
   inkscape:export-filename="/Users/maq/git/testerembyc/themes/testerembyc-pl/logos/logo_black.png"
   inkscape:export-xdpi="1905"
   inkscape:export-ydpi="1905"
   xmlns:inkscape="http://www.inkscape.org/namespaces/inkscape"
   xmlns:sodipodi="http://sodipodi.sourceforge.net/DTD/sodipodi-0.dtd"
   xmlns="http://www.w3.org/2000/svg"
   xmlns:svg="http://www.w3.org/2000/svg"
   xmlns:rdf="http://www.w3.org/1999/02/22-rdf-syntax-ns#"
   xmlns:cc="http://creativecommons.org/ns#"
   xmlns:dc="http://purl.org/dc/elements/1.1/">
  <defs
     id="defs1433" />
  <sodipodi:namedview
     id="base"
     pagecolor="#ffffff"
     bordercolor="#666666"
     borderopacity="1.0"
     inkscape:pageopacity="0.0"
     inkscape:pageshadow="2"
     inkscape:zoom="5.5821336"
     inkscape:cx="98.25992"
     inkscape:cy="57.236179"
     inkscape:document-units="mm"
     inkscape:current-layer="layer1"
     showgrid="false"
     inkscape:snap-global="false"
     showguides="true"
     inkscape:guide-bbox="true"
     units="cm"
     inkscape:window-width="2560"
     inkscape:window-height="1323"
     inkscape:window-x="2560"
     inkscape:window-y="25"
     inkscape:window-maximized="0"
     inkscape:pagecheckerboard="0" />
  <metadata
     id="metadata1436">
    <rdf:RDF>
      <cc:Work
         rdf:about="">
        <dc:format>image/svg+xml</dc:format>
        <dc:type
           rdf:resource="http://purl.org/dc/dcmitype/StillImage" />
      </cc:Work>
    </rdf:RDF>
  </metadata>
  <g
     inkscape:label="Layer 1"
     inkscape:groupmode="layer"
     id="layer1"
     transform="translate(0,-277.00001)"
     style="display:inline">
    <g
       id="g1801"
       inkscape:label="Logo"
       transform="translate(-0.56877893,-0.18959298)">
      <path
         sodipodi:nodetypes="ccccccccccccccccccccccccccccccc"
         inkscape:connector-curvature="0"
         id="path4808"
         d="m 6.5086037,280.21057 c 0,0 0.9407842,-0.21805 0.9407842,-0.21805 0,0 1.0016767,-0.23215 1.0016767,-0.23215 0,0 1.0686804,-0.24769 1.0686804,-0.24769 0,0 1.142636,-0.26483 1.142636,-0.26483 2.540125,-0.58872 2.540125,-0.58872 3.957336,1.29172 0,0 0.750454,0.99575 0.750454,0.99575 0,0 0.78059,1.03574 0.78059,1.03574 0,0 0.812583,1.07818 0.812583,1.07818 0,0 0.846586,1.1233 0.846586,1.1233 1.804071,2.39376 1.804071,2.39376 0,4.78745 0,0 -0.846586,1.12327 -0.846586,1.12327 0,0 -0.812583,1.07816 -0.812583,1.07816 0,0 -0.78059,1.0357 -0.78059,1.0357 0,0 -0.750454,0.99573 -0.750454,0.99573 -1.417204,1.88039 -1.417204,1.88039 -3.957356,1.29167 0,0 -1.1426427,-0.26482 -1.1426427,-0.26482 0,0 -1.0686858,-0.24769 -1.0686858,-0.24769 0,0 -1.0016826,-0.23215 -1.0016826,-0.23215 0,0 -0.9407903,-0.21804 -0.9407903,-0.21804 -1.7198406,-0.3986 -1.7198406,-0.3986 -2.5079038,-2.17484 0,0 -0.3777918,-0.85152 -0.3777918,-0.85152 0,0 -0.3675541,-0.82845 -0.3675541,-0.82845 0,0 -0.3577258,-0.80629 -0.3577258,-0.80629 0,0 -0.3482916,-0.78502 -0.3482916,-0.78502 -0.6697147,-1.5095 -0.6697147,-1.5095 1.13e-5,-3.019 0,0 0.348295,-0.78502 0.348295,-0.78502 0,0 0.3577345,-0.8063 0.3577345,-0.8063 0,0 0.3675621,-0.82844 0.3675621,-0.82844 0,0 0.3777971,-0.85152 0.3777971,-0.85152 0.7880786,-1.77624 0.7880786,-1.77624 2.5079112,-2.17485 0,0 0,0 0,0"
         style="display:inline;fill:#ffffff;fill-opacity:1;stroke:#000000;stroke-width:1.33581;stroke-linecap:butt;stroke-linejoin:miter;stroke-miterlimit:4;stroke-dasharray:none;stroke-opacity:1"
         inkscape:label="Hexagon" />
      <path
         id="path4814"
         style="color:#000000;font-style:normal;font-variant:normal;font-weight:normal;font-stretch:normal;font-size:medium;line-height:normal;font-family:sans-serif;font-variant-ligatures:normal;font-variant-position:normal;font-variant-caps:normal;font-variant-numeric:normal;font-variant-alternates:normal;font-feature-settings:normal;text-indent:0;text-align:start;text-decoration:none;text-decoration-line:none;text-decoration-style:solid;text-decoration-color:#000000;letter-spacing:normal;word-spacing:normal;text-transform:none;writing-mode:lr-tb;direction:ltr;text-orientation:mixed;dominant-baseline:auto;baseline-shift:baseline;text-anchor:start;white-space:normal;shape-padding:0;clip-rule:nonzero;display:inline;overflow:visible;visibility:visible;isolation:auto;mix-blend-mode:normal;color-interpolation:sRGB;color-interpolation-filters:linearRGB;solid-color:#000000;solid-opacity:1;vector-effect:none;fill:#000000;fill-opacity:1;fill-rule:nonzero;stroke:#ffffff;stroke-width:0.757311;stroke-linecap:round;stroke-linejoin:miter;stroke-miterlimit:4;stroke-dasharray:none;stroke-dashoffset:0;stroke-opacity:1;color-rendering:auto;image-rendering:auto;shape-rendering:auto;text-rendering:auto;enable-background:accumulate"
         d="m 23.345703,43.449219 c -1.279079,0.35042 -2.377861,0.953498 -3.279297,1.572265 -1.423249,0.976933 -2.464843,1.972657 -2.464844,1.972657 a 2.3065051,2.3065051 0 1 0 3.175782,3.341797 c 0,0 0.81229,-0.768123 1.898437,-1.513672 0.594289,-0.407931 1.276816,-0.732773 1.814453,-0.947266 -0.531459,-1.39897 -0.921063,-2.88613 -1.144531,-4.425781 z m 26.769531,2.785156 c -0.400412,1.587996 -0.975953,3.057277 -1.693359,4.380859 0.334637,0.203196 0.664121,0.413587 0.976563,0.628907 1.861647,1.28296 3.287109,2.539062 3.287109,2.539062 a 2.3065051,2.3065051 0 1 0 3.052734,-3.457031 c 0,0 -1.60538,-1.425604 -3.722656,-2.884766 -0.598609,-0.412528 -1.23341,-0.822924 -1.900391,-1.207031 z"
         transform="matrix(0.26458333,0,0,0.26458333,0,277.00001)"
         inkscape:label="Legs bottom" />
      <path
         id="path4810"
         style="color:#000000;font-style:normal;font-variant:normal;font-weight:normal;font-stretch:normal;font-size:medium;line-height:normal;font-family:sans-serif;font-variant-ligatures:normal;font-variant-position:normal;font-variant-caps:normal;font-variant-numeric:normal;font-variant-alternates:normal;font-feature-settings:normal;text-indent:0;text-align:start;text-decoration:none;text-decoration-line:none;text-decoration-style:solid;text-decoration-color:#000000;letter-spacing:normal;word-spacing:normal;text-transform:none;writing-mode:lr-tb;direction:ltr;text-orientation:mixed;dominant-baseline:auto;baseline-shift:baseline;text-anchor:start;white-space:normal;shape-padding:0;clip-rule:nonzero;display:inline;overflow:visible;visibility:visible;isolation:auto;mix-blend-mode:normal;color-interpolation:sRGB;color-interpolation-filters:linearRGB;solid-color:#000000;solid-opacity:1;vector-effect:none;fill:#000000;fill-opacity:1;fill-rule:nonzero;stroke:#ffffff;stroke-width:0.757311;stroke-linecap:round;stroke-linejoin:miter;stroke-miterlimit:4;stroke-dasharray:none;stroke-dashoffset:0;stroke-opacity:1;color-rendering:auto;image-rendering:auto;shape-rendering:auto;text-rendering:auto;enable-background:accumulate"
         d="m 18.035156,38 a 2.3065051,2.3065051 0 1 0 -0.07813,4.611328 l 5.294922,0.0957 C 23.167921,41.940056 23.125,41.161666 23.125,40.376953 c 0,-0.770471 0.042,-1.532671 0.123047,-2.283203 z m 32.607422,0.587891 c 0.07851,0.752781 0.121094,1.516434 0.121094,2.287109 0,0.793426 -0.03998,1.568066 -0.117188,2.324219 l 5.699219,0.101562 a 2.3065051,2.3065051 0 1 0 0.08203,-4.609375 z"
         transform="matrix(0.26458333,0,0,0.26458333,0,277.00001)"
         inkscape:label="Legs middle" />
      <path
         id="path4812"
         style="color:#000000;font-style:normal;font-variant:normal;font-weight:normal;font-stretch:normal;font-size:medium;line-height:normal;font-family:sans-serif;font-variant-ligatures:normal;font-variant-position:normal;font-variant-caps:normal;font-variant-numeric:normal;font-variant-alternates:normal;font-feature-settings:normal;text-indent:0;text-align:start;text-decoration:none;text-decoration-line:none;text-decoration-style:solid;text-decoration-color:#000000;letter-spacing:normal;word-spacing:normal;text-transform:none;writing-mode:lr-tb;direction:ltr;text-orientation:mixed;dominant-baseline:auto;baseline-shift:baseline;text-anchor:start;white-space:normal;shape-padding:0;clip-rule:nonzero;display:inline;overflow:visible;visibility:visible;isolation:auto;mix-blend-mode:normal;color-interpolation:sRGB;color-interpolation-filters:linearRGB;solid-color:#000000;solid-opacity:1;vector-effect:none;fill:#000000;fill-opacity:1;fill-rule:nonzero;stroke:#ffffff;stroke-width:0.757311;stroke-linecap:round;stroke-linejoin:miter;stroke-miterlimit:4;stroke-dasharray:none;stroke-dashoffset:0;stroke-opacity:1;color-rendering:auto;image-rendering:auto;shape-rendering:auto;text-rendering:auto;enable-background:accumulate"
         d="m 55.308594,27.414062 v 0.002 a 2.3065051,2.3065051 0 0 0 -1.404297,0.566406 c 0,0 -1.423965,1.204337 -3.279297,2.416016 -0.629626,0.411208 -1.322321,0.802622 -1.998047,1.142578 0.679242,1.362614 1.206946,2.836772 1.568359,4.382812 1.059998,-0.488963 2.050201,-1.075045 2.955079,-1.666016 2.124037,-1.387162 3.736328,-2.761718 3.736328,-2.761718 a 2.3065051,2.3065051 0 0 0 -1.578125,-4.082032 z m -34.853516,2.13086 A 2.3065051,2.3065051 0 0 0 18.75,33.513672 c 0,0 1.036381,1.024702 2.451172,2.046875 0.642341,0.464093 1.381451,0.92349 2.216797,1.292969 0.267042,-1.583313 0.710725,-3.100864 1.30664,-4.509766 -0.279292,-0.157325 -0.560317,-0.332216 -0.822265,-0.521484 -1.094357,-0.79064 -1.912112,-1.591797 -1.91211,-1.591797 a 2.3065051,2.3065051 0 0 0 -1.535156,-0.685547 z"
         transform="matrix(0.26458333,0,0,0.26458333,0,277.00001)"
         inkscape:label="Legs top" />
      <path
         id="path4816"
         style="fill:#ffffff;fill-opacity:1;stroke:#000000;stroke-width:1.23915;stroke-linecap:round;stroke-miterlimit:4;stroke-dasharray:none;stroke-opacity:1"
         d="m 37.048828,18.833984 c -0.546868,-8.3e-4 -1.105967,0.04452 -1.666016,0.134766 -3.946083,0.635679 -6.960937,3.360073 -6.960937,6.121094 0,0.508805 0.103206,0.990924 0.294922,1.439453 1.884486,-1.742525 4.15458,-2.898727 6.666015,-3.212891 2.569349,-0.321413 5.171329,0.270282 7.507813,1.714844 C 43.126643,24.480834 43.25,23.914905 43.25,23.351562 c 0,-1.498658 -0.876572,-2.813223 -2.408203,-3.638671 -1.074778,-0.579193 -2.395416,-0.876785 -3.792969,-0.878907 z"
         transform="matrix(0.26458333,0,0,0.26458333,0,277.00001)"
         inkscape:label="Head" />
      <path
         id="path4818"
         style="fill:#000000;fill-opacity:1;stroke:none;stroke-width:1.23915;stroke-linecap:round;stroke-miterlimit:4;stroke-dasharray:none;stroke-opacity:1"
         d="m 36.917969,18.837891 c -0.5076,0.0047 -1.022073,0.04783 -1.535157,0.128906 -1.008777,0.164787 -1.989074,0.473922 -2.882812,0.904297 6.56e-4,0.0013 0.0013,0.0027 0.002,0.0039 0.01739,0.04422 0.03206,0.09023 0.04492,0.136719 0.01277,0.04649 0.02312,0.09382 0.03125,0.142578 0.008,0.048 0.01414,0.09697 0.01758,0.146484 0.002,0.03402 0.0039,0.06956 0.0039,0.105469 2e-5,0.05027 -0.0034,0.101698 -0.0078,0.152344 -0.0046,0.05064 -0.01204,0.101698 -0.02148,0.152344 -0.0095,0.05102 -0.02106,0.102076 -0.03516,0.152343 -0.01391,0.04989 -0.03046,0.09773 -0.04883,0.146485 -0.01837,0.04913 -0.03792,0.09924 -0.06055,0.146484 -0.02283,0.04762 -0.04932,0.09332 -0.07617,0.138672 -0.02661,0.04535 -0.05364,0.08815 -0.08398,0.130859 -0.03043,0.04271 -0.06379,0.08494 -0.09766,0.125 -0.0339,0.03968 -0.06851,0.077 -0.105469,0.113281 -0.037,0.0378 -0.07553,0.07101 -0.115234,0.103516 -0.03947,0.03402 -0.0813,0.06307 -0.123047,0.0918 -0.0419,0.03024 -0.08512,0.05589 -0.128907,0.08008 -0.04341,0.02268 -0.08608,0.04675 -0.130859,0.06641 -0.04518,0.0189 -0.0906,0.03642 -0.136719,0.05078 -0.04597,0.01512 -0.09223,0.02772 -0.138672,0.03906 -0.03258,0.0076 -0.067,0.01002 -0.09961,0.01758 -0.04649,0.0076 -0.09251,0.01172 -0.138672,0.01172 -0.04597,0.0013 -0.09153,-1.65e-4 -0.136719,-0.0039 -0.04538,-0.0033 -0.09055,-0.0062 -0.134765,-0.01758 -0.04393,-0.0076 -0.08667,-0.02004 -0.128906,-0.03516 -0.04236,-0.01134 -0.08272,-0.02867 -0.123047,-0.04492 -0.0402,-0.0189 -0.07943,-0.03982 -0.117188,-0.0625 -0.03772,-0.02268 -0.07446,-0.04738 -0.109375,-0.07422 -0.03488,-0.02646 -0.06784,-0.05495 -0.09961,-0.08594 -0.03179,-0.03024 -0.06348,-0.06326 -0.0918,-0.09766 -0.02831,-0.03402 -0.05352,-0.07 -0.07813,-0.107422 -1.042212,1.062803 -1.608687,2.296761 -1.609375,3.492188 3.6e-5,0.509356 0.10277,0.99248 0.294922,1.441406 1.884486,-1.742525 4.15458,-2.898727 6.666015,-3.212891 2.571538,-0.321687 5.175652,0.271504 7.513672,1.71875 0.230145,-0.541462 0.353469,-1.108212 0.353516,-1.685547 -6.54e-4,-1.351483 -0.7163,-2.558297 -1.996094,-3.390625 -0.0083,0.01512 -0.0167,0.02936 -0.02539,0.04297 -0.03099,0.04876 -0.06454,0.09647 -0.09961,0.142578 -0.03515,0.04611 -0.07217,0.09168 -0.111328,0.134766 -0.03919,0.04309 -0.0803,0.08532 -0.123047,0.125 -0.04275,0.03968 -0.08693,0.0758 -0.132812,0.111328 -0.04566,0.03402 -0.09236,0.06824 -0.140625,0.09961 -0.04808,0.03024 -0.09625,0.06143 -0.146485,0.08789 -0.05049,0.02646 -0.102177,0.05072 -0.154297,0.07227 -0.0522,0.02268 -0.104949,0.04001 -0.158203,0.05664 -0.05265,0.01512 -0.106902,0.02968 -0.160156,0.04102 -0.03802,0.0076 -0.07522,0.01575 -0.113281,0.01953 -0.05371,0.0076 -0.106865,0.01185 -0.160156,0.01563 -0.05306,0.002 -0.106046,0.0013 -0.158204,-0.002 -0.05238,-0.0026 -0.105188,-0.0081 -0.15625,-0.01563 -0.05068,-0.0076 -0.09968,-0.01808 -0.148437,-0.0332 -0.04891,-0.01512 -0.09797,-0.03031 -0.144531,-0.04883 -0.04641,-0.0189 -0.09119,-0.04064 -0.134766,-0.06445 -0.04354,-0.02268 -0.08475,-0.04978 -0.125,-0.07813 -0.04025,-0.02646 -0.07861,-0.05929 -0.115234,-0.0918 -0.03666,-0.03402 -0.07086,-0.06685 -0.103516,-0.103516 -0.0325,-0.03779 -0.06338,-0.07517 -0.0918,-0.115234 -0.02835,-0.04044 -0.05439,-0.08311 -0.07813,-0.126953 -0.02381,-0.04346 -0.04529,-0.08866 -0.06445,-0.134766 -0.0189,-0.04649 -0.035,-0.09344 -0.04883,-0.142578 -0.01398,-0.04838 -0.02609,-0.09817 -0.03516,-0.148438 -0.0091,-0.05064 -0.01575,-0.102139 -0.01953,-0.154296 -0.0026,-0.0378 -0.0039,-0.07391 -0.0039,-0.111329 3.37e-4,-0.05291 0.0024,-0.106865 0.0078,-0.160156 0.0053,-0.05329 0.01286,-0.10529 0.02344,-0.158203 0.0102,-0.05291 0.02391,-0.105668 0.03906,-0.158203 0.01247,-0.03968 0.02586,-0.07983 0.04102,-0.119141 -0.485496,-0.07332 -0.986541,-0.108193 -1.49414,-0.103515 z"
         transform="matrix(0.26458333,0,0,0.26458333,0,277.00001)"
         inkscape:label="Eyes" />
      <path
         inkscape:connector-curvature="0"
         id="path4822"
         d="m 13.431089,287.81469 c 0,2.84683 -1.943189,4.84162 -4.069443,4.49909 -1.876521,-0.3023 -3.2433359,-2.3618 -3.2433366,-4.63072 0,-2.26893 1.3668149,-4.27923 3.2433366,-4.51397 0.986928,-0.12346 1.992453,0.26252 2.774054,1.10846 0.818441,0.88581 1.295389,2.17004 1.295389,3.53714 0,0 0,0 0,0"
         style="fill:#ff0000;fill-opacity:1;stroke:#000000;stroke-width:0.327859;stroke-miterlimit:4;stroke-dasharray:none;stroke-opacity:1"
         inkscape:label="Body" />
      <path
         style="fill:#000000;fill-opacity:1;stroke:none;stroke-width:2.8078;stroke-linecap:round;stroke-miterlimit:4;stroke-dasharray:none;stroke-opacity:1"
         d="m 10.811828,290.66741 c 0.138806,0.0688 0.23897,0.20261 0.262459,0.35153 0,0 -0.288687,-0.14457 -0.288687,-0.14457 0,0 -0.15302,0.0268 -0.15302,0.0268 0,0 -0.08344,0.20129 -0.08344,0.20129 0,0 0.08117,0.14491 0.08117,0.14491 0,0 0.285462,0.14683 0.285462,0.14683 -0.07992,0.0511 -0.178977,0.0691 -0.278895,0.0511 0,0 -0.293132,0.2627 -0.293132,0.2627 -0.06598,0.063 -0.165324,0.0794 -0.259091,0.0431 -0.093232,-0.036 -0.1663737,-0.11843 -0.191322,-0.21518 -0.024913,-0.0966 0.002,-0.19277 0.070506,-0.25138 0,0 0.285518,-0.26201 0.285518,-0.26201 0,0 1.01e-4,-2.5e-4 1.01e-4,-2.5e-4 -0.0053,-0.063 0.0038,-0.12478 0.02654,-0.18056 0.08248,-0.20125 0.321434,-0.28024 0.535831,-0.17428 0,0 -2e-6,-3e-5 -2e-6,-3e-5"
         id="path4842"
         inkscape:connector-curvature="0"
         inkscape:label="K16" />
      <path
         inkscape:connector-curvature="0"
         id="path4844"
         d="m 8.0322266,290.37607 c -0.1157457,0.0372 -0.1981401,0.13983 -0.217327,0.26988 0,0 0.2394047,-0.075 0.2394047,-0.075 0,0 0.1301457,0.055 0.1301457,0.055 0,0 0.071948,0.20418 0.071948,0.20418 0,0 -0.07,0.11701 -0.07,0.11701 0,0 -0.241019,0.0722 -0.241019,0.0722 0.066684,0.0644 0.150185,0.10339 0.2353839,0.10958 0,0 0.2557464,0.31598 0.2557464,0.31598 0.058789,0.0763 0.1481752,0.11762 0.2335198,0.10765 0.085813,-0.01 0.153813,-0.0703 0.177145,-0.15742 0.023363,-0.0872 -0.00187,-0.18706 -0.065756,-0.26023 0,0 -0.2606655,-0.31542 -0.2606655,-0.31542 0,0 -9.08e-5,-2.5e-4 -9.08e-5,-2.5e-4 0.00474,-0.0586 -0.00341,-0.11901 -0.023784,-0.17653 -0.07343,-0.20633 -0.2822076,-0.32504 -0.4646531,-0.26667 0,0 2e-6,-2e-5 2e-6,-2e-5"
         style="fill:#000000;fill-opacity:1;stroke:none;stroke-width:2.8078;stroke-linecap:round;stroke-miterlimit:4;stroke-dasharray:none;stroke-opacity:1"
         inkscape:label="K15" />
      <path
         inkscape:connector-curvature="0"
         id="path4838"
         d="m 12.072195,289.17015 c 0.149502,0.065 0.257413,0.19919 0.282723,0.35268 0,0 -0.310966,-0.1367 -0.310966,-0.1367 0,0 -0.164748,0.0349 -0.164748,0.0349 0,0 -0.08981,0.21267 -0.08981,0.21267 0,0 0.08737,0.14662 0.08737,0.14662 0,0 0.307383,0.1393 0.307383,0.1393 -0.08608,0.0567 -0.192744,0.0799 -0.300314,0.0657 0,0 -0.315441,0.28583 -0.315441,0.28583 -0.07097,0.0683 -0.177813,0.0898 -0.278634,0.0564 -0.100225,-0.0331 -0.178839,-0.11527 -0.20565,-0.21444 -0.02677,-0.099 0.0022,-0.19993 0.07578,-0.26381 0,0 0.306981,-0.28478 0.306981,-0.28478 0,0 1.08e-4,-2.7e-4 1.08e-4,-2.7e-4 -0.0057,-0.0651 0.0041,-0.12958 0.02855,-0.18848 0.08872,-0.21255 0.345854,-0.30561 0.57668,-0.20566 0,0 -2e-6,-2e-5 -2e-6,-2e-5"
         style="fill:#000000;fill-opacity:1;stroke:none;stroke-width:2.8078;stroke-linecap:round;stroke-miterlimit:4;stroke-dasharray:none;stroke-opacity:1"
         inkscape:label="K14" />
      <path
         style="fill:#000000;fill-opacity:1;stroke:none;stroke-width:2.8078;stroke-linecap:round;stroke-miterlimit:4;stroke-dasharray:none;stroke-opacity:1"
         d="m 10.432585,289.54231 c 0.135666,0.0634 0.233557,0.19234 0.256512,0.33877 0,0 -0.282147,-0.13328 -0.282147,-0.13328 0,0 -0.149575,0.0316 -0.149575,0.0316 0,0 -0.08157,0.2018 -0.08157,0.2018 0,0 0.07935,0.14056 0.07935,0.14056 0,0 0.279025,0.1356 0.279025,0.1356 -0.07812,0.0532 -0.174934,0.0743 -0.272604,0.0598 0,0 -0.2865773,0.26959 -0.2865773,0.26959 -0.064513,0.0645 -0.1616516,0.084 -0.2533439,0.0514 -0.091175,-0.0325 -0.1627069,-0.11152 -0.1871069,-0.20637 -0.024365,-0.0947 0.002,-0.19071 0.068956,-0.25096 0,0 0.2792046,-0.26866 0.2792046,-0.26866 0,0 9.88e-5,-2.5e-4 9.88e-5,-2.5e-4 -0.00514,-0.0621 0.00374,-0.12352 0.025948,-0.17943 0.080641,-0.20175 0.3142567,-0.2878 0.5238297,-0.19019 0,0 -3e-6,-2e-5 -3e-6,-2e-5"
         id="path4850"
         inkscape:connector-curvature="0"
         inkscape:label="K13" />
      <path
         inkscape:connector-curvature="0"
         id="path4852"
         d="m 8.3580618,289.39307 c -0.1182149,0.0413 -0.2023612,0.14772 -0.2219569,0.27976 0,0 0.2445068,-0.0836 0.2445068,-0.0836 0,0 0.1329383,0.0514 0.1329383,0.0514 0,0 0.073496,0.20403 0.073496,0.20403 0,0 -0.071507,0.12052 -0.071507,0.12052 0,0 -0.2461806,0.0808 -0.2461806,0.0808 0.06811,0.063 0.1533976,0.0996 0.2404253,0.10316 0,0 0.2612666,0.31116 0.2612666,0.31116 0.060058,0.0752 0.1514006,0.11419 0.2386239,0.10139 0.087708,-0.0129 0.1572127,-0.076 0.1810543,-0.16484 0.023878,-0.089 -0.00194,-0.18908 -0.067251,-0.26099 0,0 -0.2663561,-0.31044 -0.2663561,-0.31044 0,0 -9.22e-5,-2.5e-4 -9.22e-5,-2.5e-4 0.00481,-0.0594 -0.00347,-0.12019 -0.024298,-0.17767 -0.036074,-0.0991 -0.1068131,-0.1816 -0.196326,-0.22924 -0.089003,-0.0474 -0.1891287,-0.0563 -0.2783431,-0.0252 0,0 1.4e-6,-2e-5 1.4e-6,-2e-5"
         style="fill:#000000;fill-opacity:1;stroke:none;stroke-width:2.8078;stroke-linecap:round;stroke-miterlimit:4;stroke-dasharray:none;stroke-opacity:1"
         inkscape:label="K12" />
      <path
         style="fill:#000000;fill-opacity:1;stroke:none;stroke-width:2.8078;stroke-linecap:round;stroke-miterlimit:4;stroke-dasharray:none;stroke-opacity:1"
         d="m 7.0443329,288.87949 c -0.1084107,0.0415 -0.1855988,0.14472 -0.2035755,0.27151 0,0 0.2242492,-0.084 0.2242492,-0.084 0,0 0.121865,0.0471 0.121865,0.0471 0,0 0.06735,0.19412 0.06735,0.19412 0,0 -0.065528,0.11656 -0.065528,0.11656 0,0 -0.2257006,0.0815 -0.2257006,0.0815 0.062463,0.0592 0.140656,0.0929 0.2204302,0.0948 0,0 0.2393693,0.29337 0.2393693,0.29337 0.055009,0.0709 0.1386275,0.10658 0.2184491,0.0928 0.080244,-0.0138 0.1438211,-0.0754 0.165637,-0.16078 0.021847,-0.0855 -0.00174,-0.18076 -0.061461,-0.24845 0,0 -0.2438016,-0.29257 -0.2438016,-0.29257 0,0 -8.35e-5,-2.4e-4 -8.35e-5,-2.4e-4 0.00441,-0.0569 -0.00321,-0.11495 -0.022241,-0.16962 -0.068708,-0.19609 -0.2641139,-0.30108 -0.4349452,-0.23598 0,0 -1.01e-5,-2e-5 -1.01e-5,-2e-5"
         id="path4840"
         inkscape:connector-curvature="0"
         inkscape:label="K11" />
      <path
         inkscape:connector-curvature="0"
         id="path4832"
         d="m 10.811832,288.03276 c 0.138807,0.0578 0.238971,0.18377 0.262461,0.33083 0,0 -0.288687,-0.1218 -0.288687,-0.1218 0,0 -0.15302,0.0389 -0.15302,0.0389 0,0 -0.08344,0.20787 -0.08344,0.20787 0,0 0.08117,0.13851 0.08117,0.13851 0,0 0.285463,0.12431 0.285463,0.12431 -0.07992,0.0574 -0.178978,0.0833 -0.278895,0.0731 0,0 -0.293133,0.28582 -0.293133,0.28582 -0.06598,0.0682 -0.165325,0.0924 -0.2591,0.0636 -0.093239,-0.0287 -0.1663867,-0.10534 -0.1913337,-0.20013 -0.024906,-0.0946 0.002,-0.19294 0.070528,-0.25694 0,0 0.2855177,-0.28455 0.2855177,-0.28455 0,0 1.01e-4,-2.5e-4 1.01e-4,-2.5e-4 -0.0053,-0.0626 0.0038,-0.12508 0.02654,-0.18265 0.03955,-0.0996 0.117669,-0.17851 0.217556,-0.21928 0.100494,-0.041 0.214973,-0.0401 0.318275,0.003 0,0 -2e-6,0 -2e-6,0"
         style="fill:#000000;fill-opacity:1;stroke:none;stroke-width:2.8078;stroke-linecap:round;stroke-miterlimit:4;stroke-dasharray:none;stroke-opacity:1"
         inkscape:label="K10" />
      <path
         style="fill:#000000;fill-opacity:1;stroke:none;stroke-width:2.8078;stroke-linecap:round;stroke-miterlimit:4;stroke-dasharray:none;stroke-opacity:1"
         d="m 8.0322226,287.96066 c -0.1157437,0.0463 -0.1981361,0.15545 -0.217323,0.28701 0,0 0.2394006,-0.0939 0.2394006,-0.0939 0,0 0.1301458,0.0448 0.1301458,0.0448 0,0 0.071948,0.1985 0.071948,0.1985 0,0 -0.07,0.12253 -0.07,0.12253 0,0 -0.241019,0.0913 -0.241019,0.0913 0.066684,0.0592 0.1501856,0.0915 0.2353846,0.091 0,0 0.2557457,0.29581 0.2557457,0.29581 0.058789,0.0717 0.1481779,0.10596 0.2335311,0.0893 0.085821,-0.0168 0.1538284,-0.0824 0.1771584,-0.17141 0.023363,-0.0891 -0.00194,-0.18692 -0.065782,-0.25506 0,0 -0.2606642,-0.29485 -0.2606642,-0.29485 0,0 -9.08e-5,-2.5e-4 -9.08e-5,-2.5e-4 0.00474,-0.059 -0.00341,-0.11874 -0.023784,-0.17466 -0.035306,-0.0964 -0.1045469,-0.17476 -0.1921656,-0.21779 -0.087125,-0.0428 -0.1851439,-0.0471 -0.2724875,-0.0122 0,0 2e-6,-10e-6 2e-6,-10e-6"
         id="path4836"
         inkscape:connector-curvature="0"
         inkscape:label="K09" />
      <path
         style="fill:#000000;fill-opacity:1;stroke:none;stroke-width:2.8078;stroke-linecap:round;stroke-miterlimit:4;stroke-dasharray:none;stroke-opacity:1"
         d="m 12.0722,286.56202 c 0.149502,0.0537 0.257413,0.17984 0.282723,0.33142 0,0 -0.310966,-0.11331 -0.310966,-0.11331 0,0 -0.164747,0.0473 -0.164747,0.0473 0,0 -0.08981,0.21943 -0.08981,0.21943 0,0 0.08737,0.14005 0.08737,0.14005 0,0 0.307383,0.11617 0.307383,0.11617 -0.08608,0.0632 -0.192744,0.0944 -0.300313,0.0883 0,0 -0.315442,0.30956 -0.315442,0.30956 -0.07097,0.0736 -0.177815,0.10317 -0.278641,0.0774 -0.100231,-0.0256 -0.178849,-0.10182 -0.20566,-0.19897 -0.02677,-0.097 0.0022,-0.2001 0.07579,-0.26952 0,0 0.30698,-0.30789 0.30698,-0.30789 0,0 1.09e-4,-2.6e-4 1.09e-4,-2.6e-4 -0.0057,-0.0647 0.0041,-0.12989 0.02855,-0.19064 0.04255,-0.10512 0.126579,-0.1905 0.234056,-0.23734 0.108155,-0.0471 0.231392,-0.0515 0.342623,-0.0117 0,0 -2e-6,0 -2e-6,0"
         id="path4830"
         inkscape:connector-curvature="0"
         inkscape:label="K08" />
      <path
         inkscape:connector-curvature="0"
         id="path4848"
         d="m 10.43259,286.28628 c 0.135666,0.05 0.233557,0.16932 0.256512,0.31348 0,0 -0.282147,-0.10546 -0.282147,-0.10546 0,0 -0.149576,0.0464 -0.149576,0.0464 0,0 -0.08157,0.20983 -0.08157,0.20983 0,0 0.07935,0.13275 0.07935,0.13275 0,0 0.279025,0.10808 0.279025,0.10808 -0.07812,0.0609 -0.174935,0.0916 -0.272605,0.0867 0,0 -0.2865766,0.29785 -0.2865766,0.29785 -0.064513,0.0709 -0.1616536,0.1 -0.2533513,0.0764 -0.09118,-0.0235 -0.1627163,-0.0955 -0.1871156,-0.18792 -0.024359,-0.0923 0.002,-0.19092 0.068972,-0.25777 0,0 0.2792047,-0.29619 0.2792047,-0.29619 0,0 9.88e-5,-2.6e-4 9.88e-5,-2.6e-4 -0.00514,-0.0616 0.00374,-0.12388 0.025948,-0.18199 0.038672,-0.10057 0.11505,-0.1826 0.212706,-0.22807 0.09824,-0.0457 0.21015,-0.0508 0.311123,-0.0138 0,0 -2e-6,-1e-5 -2e-6,-1e-5"
         style="fill:#000000;fill-opacity:1;stroke:none;stroke-width:2.8078;stroke-linecap:round;stroke-miterlimit:4;stroke-dasharray:none;stroke-opacity:1"
         inkscape:label="K07" />
      <path
         inkscape:connector-curvature="0"
         id="path4846"
         d="m 8.3580652,286.34156 c -0.1182156,0.053 -0.2023626,0.16768 -0.221957,0.30166 0,0 0.2445069,-0.10766 0.2445069,-0.10766 0,0 0.1329382,0.0383 0.1329382,0.0383 0,0 0.073497,0.19679 0.073497,0.19679 0,0 -0.071507,0.12757 -0.071507,0.12757 0,0 -0.2461813,0.10505 -0.2461813,0.10505 0.06811,0.0562 0.153397,0.0845 0.240426,0.0795 0,0 0.2612673,0.2854 0.2612673,0.2854 0.060065,0.0693 0.1513965,0.0992 0.2386065,0.0778 0.087694,-0.0215 0.1571874,-0.0915 0.1810316,-0.18267 0.023878,-0.0913 -0.00194,-0.18886 -0.067212,-0.25434 0,0 -0.2663561,-0.28417 -0.2663561,-0.28417 0,0 -9.28e-5,-2.5e-4 -9.28e-5,-2.5e-4 0.00481,-0.0598 -0.00347,-0.11984 -0.024298,-0.17527 -0.036074,-0.0956 -0.1068137,-0.17107 -0.1963273,-0.20989 -0.089003,-0.0386 -0.189128,-0.0377 -0.2783431,0.002 0,0 2e-6,0 2e-6,0"
         style="fill:#000000;fill-opacity:1;stroke:none;stroke-width:2.8078;stroke-linecap:round;stroke-miterlimit:4;stroke-dasharray:none;stroke-opacity:1"
         inkscape:label="K06" />
      <path
         inkscape:connector-curvature="0"
         id="path4834"
         d="m 7.0443329,286.64966 c -0.1084121,0.0496 -0.1856028,0.15868 -0.2035802,0.28682 0,0 0.2242492,-0.10084 0.2242492,-0.10084 0,0 0.1218651,0.0379 0.1218651,0.0379 0,0 0.067354,0.18905 0.067354,0.18905 0,0 -0.065528,0.12149 -0.065528,0.12149 0,0 -0.2257052,0.0984 -0.2257052,0.0984 0.062463,0.0544 0.1406559,0.0823 0.2204294,0.0782 0,0 0.2393747,0.27536 0.2393747,0.27536 0.055002,0.0668 0.1386355,0.0962 0.2184765,0.0764 0.080265,-0.0199 0.1438578,-0.0863 0.165669,-0.17327 0.021841,-0.0871 -0.0018,-0.18068 -0.061528,-0.24387 0,0 -0.2438015,-0.27423 -0.2438015,-0.27423 0,0 -8.35e-5,-2.3e-4 -8.35e-5,-2.3e-4 0.00441,-0.0572 -0.00321,-0.11471 -0.022241,-0.16794 -0.068706,-0.19093 -0.2641126,-0.28121 -0.4349446,-0.20326 0,0 -5.4e-6,0 -5.4e-6,0"
         style="fill:#000000;fill-opacity:1;stroke:none;stroke-width:2.8078;stroke-linecap:round;stroke-miterlimit:4;stroke-dasharray:none;stroke-opacity:1"
         inkscape:label="K05" />
      <path
         inkscape:connector-curvature="0"
         id="path4828"
         d="m 11.430349,284.743 c 0.144005,0.045 0.247934,0.16323 0.272308,0.31067 0,0 -0.299516,-0.0951 -0.299516,-0.0951 0,0 -0.158722,0.0549 -0.158722,0.0549 0,0 -0.08654,0.22004 -0.08654,0.22004 0,0 0.08419,0.13294 0.08419,0.13294 0,0 0.296118,0.0981 0.296118,0.0981 -0.08292,0.0665 -0.185669,0.10265 -0.289306,0.10226 0,0 -0.303981,0.32029 -0.303981,0.32029 -0.06841,0.076 -0.171399,0.11057 -0.268601,0.0906 -0.09664,-0.0199 -0.172444,-0.0906 -0.198298,-0.18464 -0.02581,-0.0939 0.0021,-0.19662 0.07308,-0.26861 0,0 0.295958,-0.31823 0.295958,-0.31823 0,0 1.05e-4,-2.6e-4 1.05e-4,-2.6e-4 -0.0055,-0.0633 0.0039,-0.12774 0.02752,-0.18864 0.04101,-0.10542 0.122002,-0.19356 0.22558,-0.24508 0.104218,-0.0518 0.222956,-0.0624 0.330113,-0.0291 0,0 -2e-6,0 -2e-6,0"
         style="fill:#000000;fill-opacity:1;stroke:none;stroke-width:2.8078;stroke-linecap:round;stroke-miterlimit:4;stroke-dasharray:none;stroke-opacity:1"
         inkscape:label="K04" />
      <path
         style="fill:#000000;fill-opacity:1;stroke:none;stroke-width:2.8078;stroke-linecap:round;stroke-miterlimit:4;stroke-dasharray:none;stroke-opacity:1"
         d="m 7.5301767,285.02079 c -0.1119874,0.0565 -0.1917141,0.17163 -0.2102813,0.30286 0,0 0.2316436,-0.11499 0.2316436,-0.11499 0,0 0.1258999,0.0317 0.1258999,0.0317 0,0 0.069595,0.18841 0.069595,0.18841 0,0 -0.06771,0.12715 -0.06771,0.12715 0,0 -0.2331744,0.11258 -0.2331744,0.11258 0.06452,0.0519 0.1453039,0.0758 0.2277236,0.0672 0,0 0.2473568,0.26665 0.2473568,0.26665 0.056852,0.0649 0.1432842,0.0901 0.2258041,0.0656 0.082965,-0.0247 0.1487036,-0.0957 0.1712568,-0.18533 0.022589,-0.0898 -0.0018,-0.1836 -0.063578,-0.24454 0,0 -0.2520221,-0.26525 -0.2520221,-0.26525 0,0 -8.75e-5,-2.4e-4 -8.75e-5,-2.4e-4 0.00461,-0.0584 -0.00327,-0.11643 -0.022996,-0.16949 -0.034143,-0.0915 -0.1011031,-0.162 -0.1858458,-0.19604 -0.084272,-0.0339 -0.1790907,-0.0288 -0.2635903,0.0137 0,0 4.6e-6,0 4.6e-6,0"
         id="path4826"
         inkscape:connector-curvature="0"
         inkscape:label="K03" />
      <path
         style="fill:#000000;fill-opacity:1;stroke:none;stroke-width:2.8078;stroke-linecap:round;stroke-miterlimit:4;stroke-dasharray:none;stroke-opacity:1"
         d="m 10.43259,283.72435 c 0.135666,0.0395 0.233557,0.15119 0.256512,0.29357 0,0 -0.282147,-0.0836 -0.282147,-0.0836 0,0 -0.149576,0.058 -0.149576,0.058 0,0 -0.08157,0.21617 -0.08157,0.21617 0,0 0.07935,0.12659 0.07935,0.12659 0,0 0.279025,0.0864 0.279025,0.0864 -0.07812,0.067 -0.174935,0.10517 -0.272605,0.10787 0,0 -0.2865766,0.32008 -0.2865766,0.32008 -0.064513,0.0759 -0.1616536,0.11254 -0.2533513,0.096 -0.09118,-0.0164 -0.1627163,-0.0829 -0.1871156,-0.17341 -0.024359,-0.0904 0.002,-0.19107 0.068972,-0.26312 0,0 0.2792047,-0.31785 0.2792047,-0.31785 0,0 9.88e-5,-2.7e-4 9.88e-5,-2.7e-4 -0.00514,-0.0612 0.00374,-0.12416 0.025948,-0.184 0.038672,-0.10357 0.11505,-0.19153 0.212706,-0.24458 0.09824,-0.0534 0.21015,-0.0671 0.311123,-0.0379 0,0 -2e-6,0 -2e-6,0"
         id="path4854"
         inkscape:connector-curvature="0"
         inkscape:label="K02" />
      <path
         inkscape:connector-curvature="0"
         id="path4856"
         d="m 8.3580652,283.94056 c -0.1182156,0.0622 -0.2023619,0.18338 -0.221957,0.31887 0,0 0.2445069,-0.12662 0.2445069,-0.12662 0,0 0.1329382,0.028 0.1329382,0.028 0,0 0.073497,0.19109 0.073497,0.19109 0,0 -0.071507,0.13312 -0.071507,0.13312 0,0 -0.2461813,0.12415 -0.2461813,0.12415 0.06811,0.051 0.153397,0.0726 0.240426,0.0608 0,0 0.2612673,0.26513 0.2612673,0.26513 0.060065,0.0646 0.1513965,0.0875 0.2386065,0.0593 0.087694,-0.0283 0.1571874,-0.1037 0.1810316,-0.19671 0.023878,-0.0932 -0.00194,-0.18871 -0.067212,-0.24913 0,0 -0.2663561,-0.26351 -0.2663561,-0.26351 0,0 -9.28e-5,-2.4e-4 -9.28e-5,-2.4e-4 0.00481,-0.0602 -0.00347,-0.11957 -0.024298,-0.17338 -0.036074,-0.0928 -0.1068137,-0.16279 -0.1963273,-0.19466 -0.089003,-0.0317 -0.189128,-0.023 -0.2783431,0.0238 0,0 2e-6,0 2e-6,0"
         style="fill:#000000;fill-opacity:1;stroke:none;stroke-width:2.8078;stroke-linecap:round;stroke-miterlimit:4;stroke-dasharray:none;stroke-opacity:1"
         inkscape:label="K01" />
    </g>
  </g>
</svg>
