<svg xmlns="http://www.w3.org/2000/svg" width="20mm" height="20mm" viewBox="0 0 20 20"><path d="m6.357 281.237.84-.18.896-.192.954-.205 1.02-.219c2.27-.486 2.27-.486 3.536 1.068l.67.822.697.856.726.891.756.929c1.612 1.978 1.612 1.978 0 3.956l-.756.928-.726.89-.697.857-.67.822c-1.266 1.554-1.266 1.554-3.535 1.068l-1.02-.219-.956-.205-.894-.191-.84-.18c-1.537-.33-1.537-.33-2.24-1.798l-.338-.704-.328-.684-.32-.666-.311-.65c-.598-1.246-.598-1.246 0-2.494l.311-.649.32-.666.328-.684.337-.704c.704-1.468.704-1.468 2.24-1.797" style="fill:none;fill-opacity:1;stroke:#fff;stroke-width:4.58539;stroke-linecap:butt;stroke-linejoin:miter;stroke-miterlimit:4;stroke-dasharray:none;stroke-opacity:1" transform="translate(0 -277)"/><path d="M1.667 279.34h16.699v15.448H1.667z" style="fill:none;fill-opacity:1;stroke:none;stroke-width:.314763;stroke-miterlimit:4;stroke-dasharray:none;stroke-opacity:1" transform="translate(0 -277)"/><path d="m6.357 281.237.84-.18.896-.192.954-.205 1.02-.219c2.27-.486 2.27-.486 3.536 1.068l.67.822.697.856.726.891.756.929c1.612 1.978 1.612 1.978 0 3.956l-.756.928-.726.89-.697.857-.67.822c-1.266 1.554-1.266 1.554-3.535 1.068l-1.02-.219-.956-.205-.894-.191-.84-.18c-1.537-.33-1.537-.33-2.24-1.798l-.338-.704-.328-.684-.32-.666-.311-.65c-.598-1.246-.598-1.246 0-2.494l.311-.649.32-.666.328-.684.337-.704c.704-1.468.704-1.468 2.24-1.797" style="fill:#000;fill-opacity:1;stroke:#000;stroke-width:1.71639;stroke-linecap:butt;stroke-linejoin:miter;stroke-miterlimit:4;stroke-dasharray:none;stroke-opacity:1" transform="translate(0 -277)"/><path d="m6.528 281.505.801-.172.853-.183.91-.195.973-.209c2.163-.464 2.163-.464 3.37 1.018l.64.784.664.816.692.85.721.885c1.536 1.886 1.536 1.886 0 3.771l-.72.885-.693.85-.665.816-.639.784c-1.207 1.482-1.207 1.482-3.37 1.018l-.973-.209-.91-.195-.853-.183-.801-.172c-1.465-.314-1.465-.314-2.136-1.713l-.321-.67-.313-.654-.305-.635-.297-.618c-.57-1.19-.57-1.19 0-2.379l.297-.618.305-.635.313-.653.321-.67c.671-1.4.671-1.4 2.136-1.714" style="fill:#fff;fill-opacity:1;stroke:#000;stroke-width:1.09415;stroke-linecap:butt;stroke-linejoin:miter;stroke-miterlimit:4;stroke-dasharray:none;stroke-opacity:1" transform="translate(0 -277)"/><g style="stroke:#fff;stroke-opacity:1"><path d="M70.856 97.005c-.604 0-1.218-.354-1.696-.972-.466-.603-.757-1.4-.816-2.203-.117-1.592.697-2.808 1.811-2.808s2.213 1.216 2.47 2.808c.13.804.025 1.6-.3 2.203-.334.618-.864.972-1.469.972q0 0 0 0" style="fill:#fff;fill-opacity:1;stroke:#fff;stroke-width:.5;stroke-linecap:round;stroke-miterlimit:4;stroke-dasharray:none;stroke-opacity:1" transform="matrix(0 -.56215 .60764 0 -48.066 46.658)"/><path d="M274.53 359.254a15.2 15.2 0 0 0-.041-4.62 16.2 16.2 0 0 0-1.38-4.397l-.005.003a2.1 2.1 0 0 1-.648.143 3 3 0 0 1-.395-.005 2.5 2.5 0 0 1-.463-.087 2.7 2.7 0 0 1-.86-.412 2.8 2.8 0 0 1-.522-.485 2.6 2.6 0 0 1-.361-.584 2.3 2.3 0 0 1-.164-.57 2.1 2.1 0 0 1 .014-.625 1.77 1.77 0 0 1 .774-1.143c-1.621-1.59-3.502-2.451-5.326-2.453-4.21 0-7.286 4.598-6.846 10.615.472 6.439 4.737 11.998 9.496 11.998 2.06 0 3.903-1.092 5.172-3.043l-.067-.04a3.1 3.1 0 0 1-1.069-1.15 2.9 2.9 0 0 1-.292-.894 2.5 2.5 0 0 1 .008-.722 2.15 2.15 0 0 1 .344-.844 1.96 1.96 0 0 1 .872-.692 2 2 0 0 1 .445-.127 2.3 2.3 0 0 1 .648-.023 2.6 2.6 0 0 1 .667.157q0 0 0 0" style="fill:#000;fill-opacity:1;stroke:#fff;stroke-width:1.88976;stroke-linecap:round;stroke-miterlimit:4;stroke-dasharray:none;stroke-opacity:1" transform="matrix(0 -.14873 .16077 0 -48.066 46.658)"/></g><path d="M12.581 287.498c0 2.357-1.739 4.008-3.641 3.724-1.68-.25-2.902-1.955-2.902-3.833s1.223-3.542 2.902-3.737c.883-.102 1.783.218 2.482.918.732.733 1.16 1.796 1.16 2.928" style="fill:red;fill-opacity:1;stroke:#fff;stroke-width:.282171;stroke-miterlimit:4;stroke-dasharray:none;stroke-opacity:1" transform="translate(0 -277)"/><path d="m8.703 286.887-2.187 1.095c-.407.047-.745.21-1.01.378-.32.204-.555.411-.555.411a.52.48 0 1 0 .716.697s.183-.16.427-.316c.245-.155.56-.257.61-.255l.148.01 1.834-.92 2.142 1.144.122.006c.198.012.746.251 1.166.518.419.268.74.53.74.53a.52.48 0 1 0 .688-.72s-.362-.298-.839-.602c-.42-.268-.92-.535-1.476-.628z" style="color:#000;font-style:normal;font-variant:normal;font-weight:400;font-stretch:normal;font-size:medium;line-height:normal;font-family:sans-serif;font-variant-ligatures:normal;font-variant-position:normal;font-variant-caps:normal;font-variant-numeric:normal;font-variant-alternates:normal;font-feature-settings:normal;text-indent:0;text-align:start;text-decoration:none;text-decoration-line:none;text-decoration-style:solid;text-decoration-color:#000;letter-spacing:normal;word-spacing:normal;text-transform:none;writing-mode:lr-tb;direction:ltr;text-orientation:mixed;dominant-baseline:auto;baseline-shift:baseline;text-anchor:start;white-space:normal;shape-padding:0;clip-rule:nonzero;display:inline;overflow:visible;visibility:visible;isolation:auto;mix-blend-mode:normal;color-interpolation:sRGB;color-interpolation-filters:linearRGB;solid-color:#000;solid-opacity:1;vector-effect:none;fill:#000;fill-opacity:1;fill-rule:nonzero;stroke:#fff;stroke-width:.16412;stroke-linecap:round;stroke-linejoin:miter;stroke-miterlimit:4;stroke-dasharray:none;stroke-dashoffset:0;stroke-opacity:1;color-rendering:auto;image-rendering:auto;shape-rendering:auto;text-rendering:auto" transform="translate(0 -277)"/><path d="M5.05 286.896a.52.48 0 1 0-.019.961l8.65.144a.52.48 0 1 0 .019-.96z" style="color:#000;font-style:normal;font-variant:normal;font-weight:400;font-stretch:normal;font-size:medium;line-height:normal;font-family:sans-serif;font-variant-ligatures:normal;font-variant-position:normal;font-variant-caps:normal;font-variant-numeric:normal;font-variant-alternates:normal;font-feature-settings:normal;text-indent:0;text-align:start;text-decoration:none;text-decoration-line:none;text-decoration-style:solid;text-decoration-color:#000;letter-spacing:normal;word-spacing:normal;text-transform:none;writing-mode:lr-tb;direction:ltr;text-orientation:mixed;dominant-baseline:auto;baseline-shift:baseline;text-anchor:start;white-space:normal;shape-padding:0;clip-rule:nonzero;display:inline;overflow:visible;visibility:visible;isolation:auto;mix-blend-mode:normal;color-interpolation:sRGB;color-interpolation-filters:linearRGB;solid-color:#000;solid-opacity:1;vector-effect:none;fill:#000;fill-opacity:1;fill-rule:nonzero;stroke:#fff;stroke-width:.16412;stroke-linecap:round;stroke-linejoin:miter;stroke-miterlimit:4;stroke-dasharray:none;stroke-dashoffset:0;stroke-opacity:1;color-rendering:auto;image-rendering:auto;shape-rendering:auto;text-rendering:auto" transform="translate(0 -277)"/><path d="M70.856 97.005c-.604 0-1.218-.354-1.696-.972-.466-.603-.757-1.4-.816-2.203-.117-1.592.697-2.808 1.811-2.808s2.213 1.216 2.47 2.808c.13.804.025 1.6-.3 2.203-.334.618-.864.972-1.469.972q0 0 0 0" style="fill:#fff;fill-opacity:1;stroke:#000;stroke-width:.5;stroke-linecap:round;stroke-miterlimit:4;stroke-dasharray:none;stroke-opacity:1" transform="matrix(0 -.5166 .5584 0 -43.437 43.447)"/><path d="M274.53 359.254a15.2 15.2 0 0 0-.041-4.62 16.2 16.2 0 0 0-1.38-4.397l-.005.003a2.1 2.1 0 0 1-.648.143 3 3 0 0 1-.395-.005 2.5 2.5 0 0 1-.463-.087 2.7 2.7 0 0 1-.86-.412 2.8 2.8 0 0 1-.522-.485 2.6 2.6 0 0 1-.361-.584 2.3 2.3 0 0 1-.164-.57 2.1 2.1 0 0 1 .014-.625 1.77 1.77 0 0 1 .774-1.143c-1.621-1.59-3.502-2.451-5.326-2.453-4.21 0-7.286 4.598-6.846 10.615.472 6.439 4.737 11.998 9.496 11.998 2.06 0 3.903-1.092 5.172-3.043l-.067-.04a3.1 3.1 0 0 1-1.069-1.15 2.9 2.9 0 0 1-.292-.894 2.5 2.5 0 0 1 .008-.722 2.15 2.15 0 0 1 .344-.844 1.96 1.96 0 0 1 .872-.692 2 2 0 0 1 .445-.127 2.3 2.3 0 0 1 .648-.023 2.6 2.6 0 0 1 .667.157" style="fill:#000;fill-opacity:1;stroke:none;stroke-width:1.88976;stroke-linecap:round;stroke-miterlimit:4;stroke-dasharray:none;stroke-opacity:1" transform="matrix(0 -.13668 .14774 0 -43.437 43.447)"/><path d="M13.447 284.69a.52.48 0 0 0-.316.118s-.32.251-.739.504c-.418.252-.961.47-1.157.476l-.125.003-2.142 1.071-1.834-.979-.145.004c-.049 0-.371-.114-.618-.279a4 4 0 0 1-.43-.331.52.48 0 1 0-.73.684s.233.213.551.426c.263.176.598.35 1.005.41l2.185 1.167 2.534-1.268c.555-.076 1.055-.326 1.475-.58.478-.289.842-.575.842-.575a.52.48 0 0 0-.356-.851Z" style="color:#000;font-style:normal;font-variant:normal;font-weight:400;font-stretch:normal;font-size:medium;line-height:normal;font-family:sans-serif;font-variant-ligatures:normal;font-variant-position:normal;font-variant-caps:normal;font-variant-numeric:normal;font-variant-alternates:normal;font-feature-settings:normal;text-indent:0;text-align:start;text-decoration:none;text-decoration-line:none;text-decoration-style:solid;text-decoration-color:#000;letter-spacing:normal;word-spacing:normal;text-transform:none;writing-mode:lr-tb;direction:ltr;text-orientation:mixed;dominant-baseline:auto;baseline-shift:baseline;text-anchor:start;white-space:normal;shape-padding:0;clip-rule:nonzero;display:inline;overflow:visible;visibility:visible;isolation:auto;mix-blend-mode:normal;color-interpolation:sRGB;color-interpolation-filters:linearRGB;solid-color:#000;solid-opacity:1;vector-effect:none;fill:#000;fill-opacity:1;fill-rule:nonzero;stroke:#fff;stroke-width:.16412;stroke-linecap:round;stroke-linejoin:miter;stroke-miterlimit:4;stroke-dasharray:none;stroke-dashoffset:0;stroke-opacity:1;color-rendering:auto;image-rendering:auto;shape-rendering:auto;text-rendering:auto" transform="translate(0 -277)"/><path d="M12.423 287.495c0 2.243-1.655 3.815-3.465 3.545-1.598-.238-2.762-1.86-2.762-3.648s1.164-3.372 2.762-3.557c.84-.097 1.696.207 2.362.874.697.698 1.103 1.71 1.103 2.786" style="fill:red;fill-opacity:1;stroke:#000;stroke-width:.268544;stroke-miterlimit:4;stroke-dasharray:none;stroke-opacity:1" transform="translate(0 -277)"/><path d="M12.423 287.495c0 2.243-1.655 3.815-3.465 3.545-1.598-.238-2.762-1.86-2.762-3.648s1.164-3.372 2.762-3.557c.84-.097 1.696.207 2.362.874.697.698 1.103 1.71 1.103 2.786" style="opacity:.433;fill:red;fill-opacity:1;stroke:none;stroke-width:.268544;stroke-miterlimit:4;stroke-dasharray:none;stroke-opacity:1" transform="translate(0 -277)"/><path d="M7.292 285.392a.32.32 0 0 0-.179.239l.197-.09.108.024.059.149-.058.1-.198.089a.28.28 0 0 0 .194.052l.21.21a.19.19 0 0 0 .192.052.21.21 0 0 0 .146-.146.19.19 0 0 0-.054-.192l-.214-.21a.3.3 0 0 0-.02-.133.27.27 0 0 0-.158-.155.3.3 0 0 0-.225.011m3.706-.25a.32.32 0 0 1 .231.245l-.255-.075-.135.043-.073.174.071.104.252.078a.4.4 0 0 1-.246.08l-.259.253a.26.26 0 0 1-.229.071.21.21 0 0 1-.168-.145.21.21 0 0 1 .062-.212l.252-.25v-.001a.3.3 0 0 1 .023-.149.38.38 0 0 1 .192-.193c.09-.04.19-.049.282-.023m.536 1.654c.127.043.22.142.24.262l-.264-.09-.14.038-.077.172.075.11.261.092a.42.42 0 0 1-.255.07l-.269.244a.26.26 0 0 1-.237.06.24.24 0 0 1-.175-.156.2.2 0 0 1 .064-.212l.262-.243a.3.3 0 0 1 .024-.15.36.36 0 0 1 .2-.187.43.43 0 0 1 .291-.01m-1.49 1.263a.35.35 0 0 1 .224.26l-.246-.095-.13.03-.071.164.069.11.243.097a.37.37 0 0 1-.238.058l-.25.225a.23.23 0 0 1-.22.05.24.24 0 0 1-.163-.158.19.19 0 0 1 .06-.202l.243-.225a.3.3 0 0 1 .023-.144c.034-.078.1-.14.185-.172a.4.4 0 0 1 .271.002m-3.166-1.266a.29.29 0 0 0-.173.226l.191-.08.104.03.057.15-.056.095-.192.078a.28.28 0 0 0 .188.062l.204.216a.19.19 0 0 0 .327-.076.2.2 0 0 0-.053-.192l-.207-.216a.3.3 0 0 0-.02-.132.28.28 0 0 0-.37-.16m1.096 1.189a.29.29 0 0 0-.185.226l.204-.074.11.035.062.156-.06.097-.205.072a.3.3 0 0 0 .2.071l.218.234c.05.056.126.083.199.07a.19.19 0 0 0 .15-.135.2.2 0 0 0-.055-.201l-.222-.232a.3.3 0 0 0-.02-.138.32.32 0 0 0-.164-.172.3.3 0 0 0-.232-.01m3.346.632c.128.051.22.157.242.278l-.265-.108-.14.028-.077.167.075.116.261.11a.4.4 0 0 1-.255.051l-.27.226a.25.25 0 0 1-.236.044.26.26 0 0 1-.176-.169.19.19 0 0 1 .065-.208l.261-.224a.3.3 0 0 1 .025-.149c.075-.167.294-.24.49-.162m-4.336-.204a.27.27 0 0 0-.173.215l.19-.067.105.037.057.153-.056.092-.192.064c.053.047.12.073.188.075l.204.231a.2.2 0 0 0 .186.073.17.17 0 0 0 .14-.126.21.21 0 0 0-.052-.196l-.207-.23a.3.3 0 0 0-.02-.135c-.058-.154-.224-.237-.37-.185m3.082 1.391c.118.054.203.16.223.277l-.246-.114-.13.02-.071.16.069.113.243.116c-.068.04-.152.055-.237.04l-.25.207a.22.22 0 0 1-.22.034.26.26 0 0 1-.164-.17.18.18 0 0 1 .06-.197l.244-.207a.3.3 0 0 1 .022-.142c.07-.159.274-.221.457-.137m-2.05-.21a.26.26 0 0 0-.185.212l.204-.059.11.044.062.16-.06.093-.205.056a.34.34 0 0 0 .2.087l.218.249c.05.06.127.092.2.084a.17.17 0 0 0 .15-.124.22.22 0 0 0-.056-.205l-.222-.248a.3.3 0 0 0-.02-.14c-.063-.162-.24-.255-.396-.21m.044-3.139a.31.31 0 0 0-.188.238l.208-.085.113.03.063.155-.061.1-.21.084a.3.3 0 0 0 .205.062l.222.225a.21.21 0 0 0 .204.062.21.21 0 0 0 .154-.144.2.2 0 0 0-.057-.2l-.227-.225a.3.3 0 0 0-.188-.303.3.3 0 0 0-.237.002m1.978-.063a.32.32 0 0 1 .218.246l-.24-.083-.127.037-.07.165.068.105.238.085a.37.37 0 0 1-.233.068l-.244.235a.23.23 0 0 1-.215.06.22.22 0 0 1-.16-.148.2.2 0 0 1 .059-.203l.238-.234a.3.3 0 0 1 .022-.143.34.34 0 0 1 .181-.18.37.37 0 0 1 .265-.01m-.169-2.117a.29.29 0 0 1 .218.231l-.24-.066-.128.046-.069.17.068.1.237.068a.4.4 0 0 1-.232.085l-.244.252a.24.24 0 0 1-.216.076.2.2 0 0 1-.16-.137.21.21 0 0 1 .06-.207l.237-.25a.3.3 0 0 1 .023-.145.38.38 0 0 1 .18-.193.38.38 0 0 1 .266-.03m-1.767.17a.34.34 0 0 0-.189.251l.208-.1.113.023.063.15-.06.105-.21.098c.058.04.13.057.204.048l.223.209c.05.05.129.069.203.047a.23.23 0 0 0 .154-.155.19.19 0 0 0-.057-.197l-.227-.207a.27.27 0 0 0-.188-.29.32.32 0 0 0-.237.018" style="fill:#000;fill-opacity:1;stroke:none;stroke-width:2.29982;stroke-linecap:round;stroke-miterlimit:4;stroke-dasharray:none;stroke-opacity:1" transform="translate(0 -277)"/></svg>