<svg xmlns="http://www.w3.org/2000/svg" xmlns:cc="http://creativecommons.org/ns#" xmlns:dc="http://purl.org/dc/elements/1.1/" xmlns:rdf="http://www.w3.org/1999/02/22-rdf-syntax-ns#" xmlns:xlink="http://www.w3.org/1999/xlink" version="1.1" viewBox="0 0 210 20" viewport="0 0 1600px 152px">
<defs>
<radialGradient id="a" cx="64.326" cy="96.216" r="7.0194" gradientTransform="matrix(0 -.98175 .7799 0 19.372 182.17)" gradientUnits="userSpaceOnUse">
<stop stop-color="#fff" offset="0"/>
<stop stop-color="#fff" stop-opacity="0" offset="1"/>
</radialGradient>
</defs>
<metadata>
<rdf:RDF>
<cc:Work rdf:about="">
<dc:format>image/svg+xml</dc:format>
<dc:type rdf:resource="http://purl.org/dc/dcmitype/StillImage"/>
<dc:title/>
</cc:Work>
</rdf:RDF>
</metadata>
<g transform="translate(0 -277)">
<g transform="matrix(.66791 0 0 .66791 -52.368 207.97)">
<path d="m87.851 107.65s1.4774-0.34242 1.4774-0.34242l5.0458-1.1695c3.9891-0.92455 3.9891-0.92455 6.2148 2.0286l1.1785 1.5637 3.8315 5.0839c2.8332 3.7592 2.8332 3.7592 0 7.5184l-2.6056 3.4572-2.4044 3.1902c-2.2256 2.953-2.2256 2.953-6.2148 2.0285 0 0-1.7944-0.41588-1.7944-0.41588l-1.6783-0.38898s-1.5731-0.36457-1.5731-0.36457-1.4775-0.34243-1.4775-0.34243c-2.7009-0.62597-2.7009-0.62597-3.9385-3.4154l-0.5933-1.3373-1.686-3.8001c-1.0517-2.3706-1.0517-2.3706 1.8e-5 -4.7412l1.1088-2.4991 1.1705-2.6383c1.2376-2.7895 1.2376-2.7895 3.9385-3.4155" fill="none" stroke="#fff" stroke-width="2.0978"/>
<path d="m88.151 108.16 2.9083-0.67405s1.6-0.37084 1.6-0.37084 1.7108-0.3965 1.7108-0.3965c3.8031-0.88144 3.8031-0.88144 5.925 1.934l1.1236 1.4908 2.3853 3.165s1.2675 1.6818 1.2675 1.6818c2.7011 3.584 2.7011 3.584 0 7.1678 0 0-1.2675 1.6818-1.2675 1.6818l-1.2166 1.6142s-1.1687 1.5507-1.1687 1.5507l-1.1236 1.4908c-2.1219 2.8154-2.1219 2.8154-5.925 1.9339 0 0-1.7108-0.39649-1.7108-0.39649s-1.6001-0.37084-1.6001-0.37084l-1.4997-0.34758-1.4086-0.32646c-2.575-0.59678-2.575-0.59678-3.7549-3.2562l-0.56564-1.2749-1.6074-3.6229c-1.0027-2.26-1.0027-2.26 1.7e-5 -4.5201l2.173-4.8978c1.1799-2.6594 1.1799-2.6594 3.7549-3.2562" fill="#fff" stroke="#000" stroke-width="2"/>
<g transform="matrix(0 -1.0683 1.0683 0 -7.8342 188.27)" stroke="#fff" stroke-linecap="round">
<path d="m70.856 97.005c-0.6047 0-1.218-0.35382-1.6959-0.97184-0.46656-0.60337-0.75778-1.3992-0.81662-2.2027-0.11661-1.5922 0.69743-2.8086 1.8115-2.8086 1.1141 0 2.2131 1.2164 2.4696 2.8086 0.12944 0.80349 0.02472 1.5994-0.30046 2.2027-0.33307 0.61802-0.86347 0.97184-1.4682 0.97184" fill="#fff" stroke-width=".5"/>
<path transform="scale(.26458)" d="m274.53 359.25c0.22343-1.4808 0.20715-3.0544-0.042-4.6193-0.25147-1.5384-0.72233-3.0342-1.3787-4.3972l-6e-3 3e-3c-0.0674 0.0265-0.13673 0.0497-0.20772 0.0693-0.0711 0.0195-0.1438 0.0354-0.21775 0.0478-0.0732 0.0123-0.14758 0.021-0.22282 0.0262-0.0538 3e-3 -0.10801 5e-3 -0.1625 5e-3 -0.0769 3e-5 -0.15422-4e-3 -0.23179-0.0108-0.0772-7e-3 -0.15457-0.018-0.23173-0.0324-0.0776-0.0145-0.15489-0.0325-0.2316-0.054-0.0762-0.0212-0.15171-0.0459-0.22626-0.0739-0.0748-0.028-0.14849-0.0594-0.22086-0.0939-0.0723-0.0348-0.14305-0.0728-0.21213-0.11375-0.069-0.0406-0.13615-0.0842-0.20128-0.13048-0.0651-0.0464-0.12814-0.0955-0.18877-0.14714-0.0607-0.0517-0.11886-0.10581-0.17438-0.16218-0.0555-0.0564-0.10833-0.11507-0.15816-0.17562-0.0497-0.0602-0.0964-0.12227-0.1399-0.18594-0.0439-0.0639-0.0845-0.1294-0.12167-0.19618-0.0366-0.0662-0.0698-0.13354-0.0996-0.20183-0.0301-0.0689-0.0566-0.13859-0.0795-0.20892-0.0227-0.0701-0.0418-0.14064-0.0571-0.21146-0.011-0.0497-0.0202-0.0995-0.0275-0.14922-9e-3 -0.0709-0.015-0.1417-0.0168-0.2121-2e-3 -0.0701-7.4e-4 -0.13968 5e-3 -0.20859 5e-3 -0.0692 0.0135-0.13769 0.0259-0.20512 0.0133-0.067 0.0303-0.13276 0.051-0.19718 0.0201-0.0646 0.0439-0.1278 0.0711-0.1893 0.0276-0.0613 0.0588-0.12091 0.0933-0.17849 0.0342-0.0575 0.0717-0.11302 0.1124-0.16627 0.0408-0.0532 0.0848-0.10419 0.1317-0.15264 0.047-0.0485 0.0969-0.0944 0.14959-0.13759 0.0522-0.0432 0.10714-0.0836 0.1645-0.12113-1.6208-1.5894-3.502-2.4518-5.3251-2.4528-4.2104 3e-4 -7.2868 4.5974-6.8463 10.615 0.47168 6.4383 4.7366 11.998 9.4956 11.998 2.0611-1e-3 3.9034-1.092 5.1727-3.0438-0.0225-0.0127-0.0448-0.0258-0.067-0.0391-0.0746-0.047-0.14741-0.0974-0.21799-0.1509-0.0706-0.0537-0.13891-0.11045-0.2047-0.17014-0.0658-0.0598-0.12904-0.12234-0.18938-0.18751-0.0604-0.0652-0.1178-0.13301-0.17207-0.20301-0.0541-0.0696-0.10501-0.14132-0.15253-0.21491-0.0477-0.0733-0.092-0.14839-0.13278-0.22497-0.0402-0.077-0.0768-0.15545-0.10956-0.23494-0.0331-0.0796-0.0624-0.16012-0.0878-0.24136-0.0251-0.0803-0.0463-0.16128-0.0635-0.24249-0.0125-0.058-0.023-0.11601-0.0315-0.17407-0.0109-0.0819-0.0177-0.16362-0.0204-0.24491-3e-3 -0.0809-2e-3 -0.16127 3e-3 -0.24082 4e-3 -0.0799 0.0129-0.15894 0.0255-0.23677 0.0135-0.0773 0.031-0.15322 0.0525-0.22756 0.0209-0.0746 0.0457-0.14747 0.0743-0.21843 0.029-0.0708 0.0618-0.1395 0.0982-0.20593 0.0361-0.0664 0.0757-0.13037 0.11884-0.1918 0.0432-0.0614 0.0899-0.12017 0.1397-0.17605 0.0499-0.0559 0.10301-0.10886 0.15907-0.15867 0.0556-0.0498 0.11409-0.0964 0.17525-0.13969 0.0619-0.0432 0.12648-0.0829 0.19341-0.11908 0.066-0.0365 0.13437-0.0693 0.20473-0.0985 0.0709-0.0287 0.14381-0.0536 0.21834-0.0747 0.074-0.0214 0.14969-0.0389 0.22663-0.0526 0.0773-0.0136 0.1558-0.0232 0.23523-0.0288 0.0563-4e-3 0.11301-7e-3 0.17006-7e-3 0.0807 5.1e-4 0.1619 5e-3 0.24336 0.0135 0.0811 8e-3 0.16229 0.0198 0.2434 0.0356 0.0809 0.0154 0.1616 0.0346 0.24179 0.0577 0.0608 0.0188 0.12121 0.0398 0.18111 0.0629l6.4e-4 -5e-5" stroke-width="1.8898"/>
</g>
<path d="m98.793 119.55c0 4.4786-3.057 7.6168-6.402 7.0779-2.9521-0.47556-5.1024-3.7156-5.1024-7.285 0-3.5695 2.1503-6.732 5.1024-7.1013 1.5526-0.19424 3.1345 0.41299 4.3641 1.7438 1.2876 1.3935 2.0379 3.4139 2.0379 5.5646" fill="#f00" stroke="#fff" stroke-width=".51579"/>
<path d="m91.975 118.39-3.8457 2.0801c-0.71394 0.0906-1.3093 0.40016-1.7734 0.71875-0.5638 0.387-0.97656 0.78125-0.97656 0.78125a0.91369 0.91369 0 1 0 1.2578 1.3242s0.32169-0.30427 0.75195-0.59961c0.43026-0.29534 0.98493-0.48973 1.0723-0.48438l0.25976 0.0176 3.2246-1.7461 3.7656 2.1738 0.21484 0.0137c0.34695 0.0213 1.3114 0.47614 2.0488 0.98437 0.73747 0.50824 1.3027 1.0059 1.3027 1.0059a0.91369 0.91369 0 1 0 1.209-1.3691s-0.63588-0.56456-1.4746-1.1426c-0.73961-0.5097-1.6166-1.0176-2.5957-1.1934z" color="#000000" color-rendering="auto" dominant-baseline="auto" image-rendering="auto" shape-rendering="auto" solid-color="#000000" stroke="#fff" stroke-linecap="round" stroke-width=".3" style="font-feature-settings:normal;font-variant-alternates:normal;font-variant-caps:normal;font-variant-ligatures:normal;font-variant-numeric:normal;font-variant-position:normal;isolation:auto;mix-blend-mode:normal;shape-padding:0;text-decoration-color:#000000;text-decoration-line:none;text-decoration-style:solid;text-indent:0;text-orientation:mixed;text-transform:none;white-space:normal"/>
<path d="m85.551 118.41a0.91369 0.91369 0 1 0-0.03125 1.8262l15.207 0.27344a0.91369 0.91369 0 1 0 0.0332-1.8262z" color="#000000" color-rendering="auto" dominant-baseline="auto" image-rendering="auto" shape-rendering="auto" solid-color="#000000" stroke="#fff" stroke-linecap="round" stroke-width=".3" style="font-feature-settings:normal;font-variant-alternates:normal;font-variant-caps:normal;font-variant-ligatures:normal;font-variant-numeric:normal;font-variant-position:normal;isolation:auto;mix-blend-mode:normal;shape-padding:0;text-decoration-color:#000000;text-decoration-line:none;text-decoration-style:solid;text-indent:0;text-orientation:mixed;text-transform:none;white-space:normal"/>
<g transform="matrix(0 -.98175 .98175 0 .30473 182.17)">
<path d="m70.856 97.005c-0.6047 0-1.218-0.35382-1.6959-0.97184-0.46656-0.60337-0.75778-1.3992-0.81662-2.2027-0.11661-1.5922 0.69743-2.8086 1.8115-2.8086 1.1141 0 2.2131 1.2164 2.4696 2.8086 0.12944 0.80349 0.02472 1.5994-0.30046 2.2027-0.33307 0.61802-0.86347 0.97184-1.4682 0.97184v0" fill="#fff" stroke="#000" stroke-linecap="round" stroke-width=".5"/>
<path transform="scale(.26458)" d="m274.53 359.25c0.22343-1.4808 0.20715-3.0544-0.042-4.6193-0.25147-1.5384-0.72233-3.0342-1.3787-4.3972l-6e-3 3e-3c-0.0674 0.0265-0.13673 0.0497-0.20772 0.0693-0.0711 0.0195-0.1438 0.0354-0.21775 0.0478-0.0732 0.0123-0.14758 0.021-0.22282 0.0262-0.0538 3e-3 -0.10801 5e-3 -0.1625 5e-3 -0.0769 3e-5 -0.15422-4e-3 -0.23179-0.0108-0.0772-7e-3 -0.15457-0.018-0.23173-0.0324-0.0776-0.0145-0.15489-0.0325-0.2316-0.054-0.0762-0.0212-0.15171-0.0459-0.22626-0.0739-0.0748-0.028-0.14849-0.0594-0.22086-0.0939-0.0723-0.0348-0.14305-0.0728-0.21213-0.11375-0.069-0.0406-0.13615-0.0842-0.20128-0.13048-0.0651-0.0464-0.12814-0.0955-0.18877-0.14714-0.0607-0.0517-0.11886-0.10581-0.17438-0.16218-0.0555-0.0564-0.10833-0.11507-0.15816-0.17562-0.0497-0.0602-0.0964-0.12227-0.1399-0.18594-0.0439-0.0639-0.0845-0.1294-0.12167-0.19618-0.0366-0.0662-0.0698-0.13354-0.0996-0.20183-0.0301-0.0689-0.0566-0.13859-0.0795-0.20892-0.0227-0.0701-0.0418-0.14064-0.0571-0.21146-0.011-0.0497-0.0202-0.0995-0.0275-0.14922-9e-3 -0.0709-0.015-0.1417-0.0168-0.2121-2e-3 -0.0701-7.4e-4 -0.13968 5e-3 -0.20859 5e-3 -0.0692 0.0135-0.13769 0.0259-0.20512 0.0133-0.067 0.0303-0.13276 0.051-0.19718 0.0201-0.0646 0.0439-0.1278 0.0711-0.1893 0.0276-0.0613 0.0588-0.12091 0.0933-0.17849 0.0342-0.0575 0.0717-0.11302 0.1124-0.16627 0.0408-0.0532 0.0848-0.10419 0.1317-0.15264 0.047-0.0485 0.0969-0.0944 0.14959-0.13759 0.0522-0.0432 0.10714-0.0836 0.1645-0.12113-1.6208-1.5894-3.502-2.4518-5.3251-2.4528-4.2104 3e-4 -7.2868 4.5974-6.8463 10.615 0.47168 6.4383 4.7366 11.998 9.4956 11.998 2.0611-1e-3 3.9034-1.092 5.1727-3.0438-0.0225-0.0127-0.0448-0.0258-0.067-0.0391-0.0746-0.047-0.14741-0.0974-0.21799-0.1509-0.0706-0.0537-0.13891-0.11045-0.2047-0.17014-0.0658-0.0598-0.12904-0.12234-0.18938-0.18751-0.0604-0.0652-0.1178-0.13301-0.17207-0.20301-0.0541-0.0696-0.10501-0.14132-0.15253-0.21491-0.0477-0.0733-0.092-0.14839-0.13278-0.22497-0.0402-0.077-0.0768-0.15545-0.10956-0.23494-0.0331-0.0796-0.0624-0.16012-0.0878-0.24136-0.0251-0.0803-0.0463-0.16128-0.0635-0.24249-0.0125-0.058-0.023-0.11601-0.0315-0.17407-0.0109-0.0819-0.0177-0.16362-0.0204-0.24491-3e-3 -0.0809-2e-3 -0.16127 3e-3 -0.24082 4e-3 -0.0799 0.0129-0.15894 0.0255-0.23677 0.0135-0.0773 0.031-0.15322 0.0525-0.22756 0.0209-0.0746 0.0457-0.14747 0.0743-0.21843 0.029-0.0708 0.0618-0.1395 0.0982-0.20593 0.0361-0.0664 0.0757-0.13037 0.11884-0.1918 0.0432-0.0614 0.0899-0.12017 0.1397-0.17605 0.0499-0.0559 0.10301-0.10886 0.15907-0.15867 0.0556-0.0498 0.11409-0.0964 0.17525-0.13969 0.0619-0.0432 0.12648-0.0829 0.19341-0.11908 0.066-0.0365 0.13437-0.0693 0.20473-0.0985 0.0709-0.0287 0.14381-0.0536 0.21834-0.0747 0.074-0.0214 0.14969-0.0389 0.22663-0.0526 0.0773-0.0136 0.1558-0.0232 0.23523-0.0288 0.0563-4e-3 0.11301-7e-3 0.17006-7e-3 0.0807 5.1e-4 0.1619 5e-3 0.24336 0.0135 0.0811 8e-3 0.16229 0.0198 0.2434 0.0356 0.0809 0.0154 0.1616 0.0346 0.24179 0.0577 0.0608 0.0188 0.12121 0.0398 0.18111 0.0629l6.4e-4 -5e-5"/>
</g>
<path d="m100.32 114.21a0.91369 0.91369 0 0 0-0.55664 0.22461s-0.56386 0.47703-1.2988 0.95703c-0.73497 0.48001-1.6901 0.89555-2.0352 0.9043l-0.21875 6e-3 -3.7656 2.0371-3.2246-1.8613-0.25586 8e-3c-0.08529 2e-3 -0.65242-0.21608-1.0859-0.5293-0.43352-0.31321-0.75781-0.63086-0.75781-0.63086a0.91369 0.91369 0 1 0-1.2832 1.3008s0.41025 0.40562 0.9707 0.81054c0.4624 0.33409 1.0515 0.66509 1.7656 0.7793l3.8418 2.2168 4.4551-2.4102c0.97609-0.14451 1.8555-0.6194 2.5938-1.1016 0.84141-0.54952 1.4805-1.0938 1.4805-1.0938a0.91369 0.91369 0 0 0-0.625-1.6172z" color="#000000" color-rendering="auto" dominant-baseline="auto" image-rendering="auto" shape-rendering="auto" solid-color="#000000" stroke="#fff" stroke-linecap="round" stroke-width=".3" style="font-feature-settings:normal;font-variant-alternates:normal;font-variant-caps:normal;font-variant-ligatures:normal;font-variant-numeric:normal;font-variant-position:normal;isolation:auto;mix-blend-mode:normal;shape-padding:0;text-decoration-color:#000000;text-decoration-line:none;text-decoration-style:solid;text-indent:0;text-orientation:mixed;text-transform:none;white-space:normal"/>
<path d="m98.515 119.54c0 4.2623-2.9094 7.2489-6.0928 6.7361-2.8096-0.4526-4.856-3.5361-4.856-6.9332 0-3.3971 2.0464-6.4069 4.856-6.7584 1.4776-0.18485 2.9831 0.39305 4.1534 1.6596 1.2254 1.3262 1.9395 3.249 1.9395 5.2958" fill="#f00" stroke="#000" stroke-width=".49088"/>
<path d="m98.515 119.54c0 4.2623-2.9094 7.2489-6.0928 6.7361-2.8096-0.4526-4.856-3.5361-4.856-6.9332 0-3.3971 2.0464-6.4069 4.856-6.7584 1.4776-0.18485 2.9831 0.39305 4.1534 1.6596 1.2254 1.3262 1.9395 3.249 1.9395 5.2958" fill="url(#a)" opacity=".433"/>
<path d="m89.681 115.36c-0.16767 0.0846-0.28704 0.25697-0.31484 0.45345l0.34682-0.17217 0.1885 0.0475 0.1042 0.2821-0.10138 0.19036-0.34911 0.16857c0.0966 0.0777 0.21755 0.1135 0.34095 0.10063l0.37035 0.39924c0.08512 0.0971 0.21453 0.13491 0.33808 0.0982 0.12422-0.0369 0.22264-0.14323 0.25641-0.27748 0.03382-0.13445-0.0027-0.27489-0.09519-0.36612l-0.37733-0.39714-1.31e-4 -3.6e-4c0.0069-0.0875-0.0049-0.17433-0.03443-0.25377-0.05112-0.13697-0.15137-0.24254-0.27825-0.29351-0.12617-0.0507-0.26814-0.0431-0.39465 0.0205h7e-6"/>
<path d="m95.52 114.95c0.21561 0.0674 0.37121 0.24438 0.4077 0.46514l-0.44844-0.14245s-0.23764 0.0822-0.23764 0.0822l-0.12957 0.32944 0.12604 0.19904 0.44335 0.14686c-0.12414 0.0995-0.27799 0.1537-0.43315 0.15311 0 0-0.45512 0.47955-0.45512 0.47955-0.10242 0.1138-0.25662 0.16554-0.40215 0.13557-0.14469-0.0298-0.25818-0.13571-0.29689-0.27645-0.03865-0.14052 0.0031-0.29438 0.10942-0.40217 0 0 0.44311-0.47645 0.44311-0.47645l1.57e-4 -4e-4c-0.0082-0.0947 0.0059-0.19125 0.0412-0.28243 0.0614-0.15783 0.18266-0.2898 0.33774-0.36694 0.15604-0.0776 0.33381-0.0935 0.49425-0.0436h-3e-6"/>
<path d="m96.481 117.67c0.22384 0.0804 0.3854 0.26925 0.4233 0.4962l-0.46558-0.16965s-0.24666 0.0708-0.24666 0.0708l-0.13447 0.32853 0.13081 0.20968 0.46022 0.17394c-0.12888 0.0946-0.28858 0.14135-0.44963 0.13222l-0.47228 0.46347c-0.10626 0.11027-0.26623 0.15447-0.41719 0.11593-0.15007-0.0383-0.26778-0.15244-0.30792-0.2979-0.04008-0.14522 0.0033-0.2996 0.11348-0.40353 0 0 0.45962-0.46097 0.45962-0.46097s1.63e-4 -4e-4 1.63e-4 -4e-4c-0.0085-0.0969 0.0061-0.19447 0.04274-0.28542 0.0637-0.1574 0.18952-0.28522 0.35043-0.35535 0.16193-0.0706 0.34644-0.0771 0.51298-0.0175h-3e-6"/>
<path d="m94.594 119.87c0.20782 0.0866 0.35779 0.27514 0.39296 0.49533l-0.43223-0.18237-0.2291 0.0582-0.12493 0.31122 0.12153 0.20738 0.4274 0.18613c-0.11966 0.0859-0.26797 0.12463-0.41756 0.10938l-0.43888 0.42793c-0.09878 0.1021-0.24753 0.13837-0.38793 0.0952-0.1396-0.0429-0.24912-0.15772-0.28647-0.29964-0.03729-0.14169 3e-3 -0.28888 0.1056-0.3847l0.42748-0.42602 1.51e-4 -3.8e-4c-0.0079-0.0937 0.0057-0.18727 0.03974-0.27347 0.05922-0.14918 0.17618-0.26727 0.32573-0.32831 0.15046-0.0614 0.32186-0.0601 0.47653 4e-3h-4e-6"/>
<path d="m88.953 117.8c-0.16232 0.0743-0.27789 0.23757-0.3048 0.42943l0.33575-0.15099s0.18246 0.0567 0.18246 0.0567l0.10084 0.28305-0.09811 0.1819-0.33793 0.14739c0.09352 0.0815 0.21059 0.12317 0.33003 0.11702 0 0 0.3584 0.41227 0.3584 0.41227 0.08235 0.10005 0.20757 0.14405 0.32711 0.11444 0.12017-0.0298 0.21539-0.12916 0.24804-0.25943 0.0327-0.13046-0.0027-0.27052-0.09212-0.36512 0 0-0.36502-0.41058-0.36502-0.41058l-1.25e-4 -3.5e-4c0.0066-0.0857-0.0048-0.17174-0.0333-0.25144-0.10287-0.28587-0.39543-0.42104-0.6512-0.30433h-8e-6"/>
<path d="m90.432 119.76c-0.17329 0.0694-0.29665 0.23274-0.32538 0.42972l0.35843-0.14058s0.19486 0.067 0.19486 0.067l0.10772 0.2972-0.1048 0.18346-0.36086 0.13663c0.09984 0.0886 0.22486 0.13706 0.35242 0.13626 0 0 0.38291 0.44289 0.38291 0.44289 0.08802 0.10728 0.22185 0.15864 0.34965 0.13364 0.12849-0.0251 0.23031-0.12344 0.26524-0.25663 0.03498-0.13338-0.0029-0.27987-0.09849-0.38188 0 0-0.39027-0.44146-0.39027-0.44146s-1.36e-4 -3.7e-4 -1.36e-4 -3.7e-4c0.0071-0.0883-0.0051-0.17778-0.03561-0.2615-0.05286-0.14435-0.15653-0.26166-0.28771-0.32608-0.13044-0.0641-0.2772-0.0705-0.40797-0.0183 0 0 3e-6 -1e-5 3e-6 -1e-5"/>
<path d="m96.481 121.57c0.22384 0.0973 0.3854 0.29824 0.4233 0.52805l-0.46558-0.20468s-0.24666 0.0523-0.24666 0.0523-0.13447 0.31841-0.13447 0.31841l0.13081 0.21953 0.46022 0.20856c-0.12888 0.0849-0.28858 0.11963-0.44963 0.0984l-0.47228 0.42794c-0.10626 0.10225-0.26622 0.13441-0.41718 0.0845-0.15006-0.0496-0.26776-0.17258-0.3079-0.32105-0.04008-0.14823 0.0033-0.29935 0.11345-0.39499l0.45962-0.42638s1.62e-4 -3.9e-4 1.62e-4 -3.9e-4c-0.0085-0.0975 0.0061-0.19401 0.04274-0.2822 0.13283-0.31824 0.51782-0.45757 0.86341-0.30792l-3e-6 -3e-5"/>
<path d="m88.953 121.14c-0.16231 0.0621-0.27788 0.21667-0.3048 0.40651l0.33575-0.12574 0.18246 0.0705 0.10084 0.29064-0.09811 0.17451-0.33792 0.12196c0.09352 0.0886 0.21059 0.13902 0.33003 0.14185l0.35839 0.43925c0.08236 0.10619 0.20756 0.15957 0.32706 0.13894 0.12014-0.0207 0.21533-0.11294 0.24799-0.24072 0.03271-0.12796-0.0026-0.27065-0.09202-0.37199 0 0-0.36502-0.43804-0.36502-0.43804l-1.25e-4 -3.6e-4c0.0066-0.0852-0.0048-0.1721-0.0333-0.25395-0.10287-0.2936-0.39544-0.45079-0.65121-0.35332l-1.5e-5 -3e-5"/>
<path d="m94.594 123.82c0.20782 0.10303 0.35779 0.30336 0.39296 0.52632l-0.43223-0.21645s-0.2291 0.0401-0.2291 0.0401l-0.12493 0.30136 0.12153 0.21697 0.4274 0.21983c-0.11966 0.0765-0.26797 0.1035-0.41756 0.0765l-0.43888 0.39331c-0.09879 0.0943-0.24752 0.11882-0.38791 0.0646-0.13959-0.0539-0.2491-0.17732-0.28645-0.32217-0.0373-0.14463 3e-3 -0.28863 0.10556-0.37637l0.42748-0.39229 1.51e-4 -3.7e-4c-0.0079-0.0944 0.0057-0.18682 0.03974-0.27034 0.12348-0.30132 0.48125-0.41958 0.80225-0.26094 0 0-3e-6 -4e-5 -3e-6 -4e-5"/>
<path d="m90.432 123.38c-0.1733 0.0557-0.29666 0.20935-0.32538 0.40406l0.35844-0.11231s0.19486 0.0824 0.19486 0.0824l0.10772 0.3057-0.1048 0.17519-0.36086 0.10816c0.09984 0.0965 0.22486 0.1548 0.35242 0.16406 0 0 0.38291 0.4731 0.38291 0.4731 0.08802 0.11419 0.22185 0.1761 0.34963 0.16117 0.12848-0.015 0.23029-0.10527 0.26522-0.23569 0.03498-0.13061-0.0028-0.28007-0.09845-0.38962 0 0-0.39027-0.47225-0.39027-0.47225l-1.36e-4 -3.8e-4c0.0071-0.0877-0.0051-0.17818-0.03561-0.2643-0.10994-0.30892-0.42252-0.48666-0.69568-0.39927l3e-6 -3e-5"/>
<path d="m90.92 117.34c-0.17699 0.0794-0.30298 0.25105-0.33232 0.45165l0.36608-0.16119s0.19904 0.0573 0.19904 0.0573l0.11004 0.29463-0.10706 0.191-0.36859 0.15729c0.10198 0.0842 0.22967 0.12657 0.35997 0.11898 0 0 0.39117 0.4273 0.39117 0.4273 0.08993 0.10375 0.22667 0.14856 0.35724 0.1165 0.1313-0.0322 0.23534-0.137 0.27104-0.27349 0.03575-0.1367-0.0029-0.28277-0.10063-0.3808 0 0-0.39879-0.42547-0.39879-0.42547l-1.39e-4 -3.7e-4c0.0072-0.0896-0.0052-0.17942-0.03638-0.26242-0.05401-0.14309-0.15992-0.25613-0.29394-0.31424-0.13326-0.0578-0.28316-0.0564-0.41674 3e-3h3e-6"/>
<path d="m94.026 117.26c0.20312 0.0749 0.34968 0.2535 0.38405 0.46934l-0.42243-0.1579s-0.22395 0.0694-0.22395 0.0694-0.12213 0.31417-0.12213 0.31417l0.11881 0.19875 0.41776 0.16182c-0.11696 0.0912-0.26192 0.13714-0.40815 0.12984l-0.42907 0.44594c-0.09659 0.1061-0.24203 0.14972-0.37932 0.11435-0.13652-0.0352-0.24362-0.14296-0.28015-0.28136-0.03647-0.13819 3e-3 -0.28585 0.10327-0.38594 0 0 0.41803-0.44346 0.41803-0.44346l1.48e-4 -3.9e-4c-0.0077-0.0923 0.0056-0.18547 0.03885-0.27248 0.0579-0.15057 0.17225-0.27339 0.31847-0.34147 0.14709-0.0685 0.31464-0.0761 0.46582-0.0206l-4e-6 -1e-5"/>
<path d="m94.026 122.13c0.20312 0.0949 0.34968 0.28798 0.38405 0.50721l-0.42243-0.19955-0.22395 0.0473s-0.12213 0.30213-0.12213 0.30213l0.11881 0.21046 0.41776 0.20301c-0.11696 0.0797-0.26191 0.11131-0.40815 0.0896l-0.42907 0.40364c-0.09659 0.0966-0.24203 0.12582-0.37931 0.0769-0.13651-0.0486-0.24361-0.16697-0.28014-0.30897-0.03648-0.14177 3e-3 -0.28554 0.10324-0.37575l0.41803-0.40224 1.48e-4 -3.7e-4c-0.0077-0.093 0.0056-0.18493 0.03885-0.26865 0.12074-0.30206 0.47051-0.4309 0.78428-0.28475l-4e-6 -3e-5"/>
<path d="m90.92 121.91c-0.17699 0.0619-0.30298 0.22117-0.33232 0.41887l0.36608-0.1251 0.19904 0.077 0.11004 0.30548-0.10706 0.18045-0.36858 0.12096c0.10198 0.0943 0.22967 0.1492 0.35997 0.15445l0.39117 0.46587c0.08992 0.11265 0.22668 0.17097 0.35727 0.1518 0.13132-0.0193 0.23538-0.11381 0.27108-0.2468 0.03575-0.13319-0.0029-0.28309-0.10069-0.39075 0 0-0.39879-0.4648-0.39879-0.4648l-1.38e-4 -3.8e-4c0.0072-0.0889-0.0052-0.17994-0.03638-0.266-0.05401-0.14843-0.15992-0.2719-0.29394-0.34322-0.13326-0.0709-0.28317-0.0843-0.41674-0.0378l2e-6 -2e-5"/>
<path d="m94.026 113.42c0.20312 0.0591 0.34968 0.22637 0.38405 0.43954l-0.42243-0.12513-0.22395 0.0868s-0.12213 0.32365-0.12213 0.32365l0.11881 0.18953 0.41776 0.12941c-0.11696 0.10026-0.26192 0.15746-0.40815 0.1615 0 0-0.42907 0.47923-0.42907 0.47923-0.09659 0.1136-0.24203 0.16849-0.37932 0.14378-0.13652-0.0246-0.24362-0.12406-0.28015-0.25963-0.03647-0.13536 3e-3 -0.28608 0.10327-0.39395l0.41803-0.47589 1.48e-4 -4e-4c-0.0077-0.0917 0.0056-0.1859 0.03885-0.27549 0.0579-0.15507 0.17225-0.28676 0.31847-0.36619 0.14709-0.0799 0.31464-0.10051 0.46582-0.0567h-4e-6"/>
<path d="m90.92 113.74c-0.17699 0.0931-0.30298 0.27456-0.33232 0.47742l0.36608-0.18958s0.19904 0.0419 0.19904 0.0419l0.11004 0.28609-0.10706 0.19931-0.36859 0.18589c0.10198 0.0763 0.22967 0.10874 0.35997 0.091l0.39117 0.39695c0.08993 0.0968 0.22667 0.13098 0.35724 0.0888 0.1313-0.0424 0.23534-0.15526 0.27104-0.29452 0.03575-0.13947-0.0029-0.28254-0.10063-0.37299l-0.39879-0.39454-1.39e-4 -3.6e-4c0.0072-0.0902-0.0052-0.17902-0.03638-0.25959-0.05401-0.13891-0.15992-0.24373-0.29394-0.29144-0.13326-0.0474-0.28316-0.0344-0.41674 0.0356h3e-6"/>
</g>
<path d="m34.677 277.99v2.8051h-5.534v15.549h-3.4143v-15.549h-5.534v-2.8051z" fill="#fff"/>
<path d="m48.654 277.99v2.7162h-8.1487v5.0898h6.4225v2.6274h-6.4225v5.1913h8.1487v2.7289h-11.576v-18.354z" fill="#fff"/>
<path d="m61.429 281.33q-0.15231 0.26654-0.33001 0.39347-0.16501 0.11423-0.41886 0.11423-0.26655 0-0.58387-0.19039-0.30462-0.20308-0.73618-0.44424-0.43155-0.24116-1.0154-0.43155-0.57117-0.20309-1.3581-0.20309-0.71079 0-1.2439 0.1777-0.5331 0.16501-0.90118 0.46963-0.3554 0.30463-0.53309 0.73618-0.1777 0.41886-0.1777 0.92657 0 0.64733 0.3554 1.0789 0.36809 0.43155 0.96465 0.73618 0.59656 0.30462 1.3581 0.54578 0.76156 0.24117 1.5612 0.52041 0.79964 0.26654 1.5612 0.63463 0.76156 0.3554 1.3581 0.91388 0.59656 0.54579 0.95196 1.3454 0.36809 0.79964 0.36809 1.942 0 1.2439-0.43155 2.3355-0.41886 1.0789-1.2439 1.8912-0.81233 0.79964-1.9928 1.2693-1.1804 0.45694-2.7036 0.45694-0.8758 0-1.7262-0.1777-0.85041-0.165-1.6374-0.48232-0.77426-0.31732-1.4597-0.76156-0.68541-0.44425-1.2185-0.99004l1.0027-1.6374q0.12693-0.1777 0.33001-0.29193 0.20308-0.12693 0.43155-0.12693 0.31732 0 0.68541 0.26655 0.36809 0.25385 0.8758 0.57117t1.1804 0.58387q0.68541 0.25385 1.6374 0.25385 1.4597 0 2.2593-0.6854 0.79964-0.6981 0.79964-1.9928 0-0.72349-0.36809-1.1804-0.3554-0.45693-0.95195-0.76156-0.59656-0.31732-1.3581-0.53309-0.76156-0.21578-1.5485-0.46963-0.78695-0.25386-1.5485-0.60926-0.76156-0.35539-1.3581-0.92656-0.59656-0.57118-0.96465-1.4216-0.3554-0.8631-0.3554-2.1197 0-1.0027 0.39348-1.9547 0.40617-0.95196 1.1677-1.6881 0.76156-0.73617 1.8785-1.1804 1.117-0.44424 2.5639-0.44424 1.6247 0 2.9955 0.5077 1.3708 0.50771 2.3355 1.4216z" fill="#fff"/>
<path d="m78.407 277.99v2.8051h-5.534v15.549h-3.4143v-15.549h-5.534v-2.8051z" fill="#fff"/>
<path d="m92.385 277.99v2.7162h-8.1487v5.0898h6.4225v2.6274h-6.4225v5.1913h8.1487v2.7289h-11.576v-18.354z" fill="#fff"/>
<path d="m98.8 289.17v7.1714h-3.4143v-18.354h5.5975q1.8658 0 3.1986 0.39347 1.3454 0.38079 2.1958 1.0789 0.86311 0.6981 1.2693 1.6754 0.40616 0.96465 0.40616 2.1324 0 0.92657-0.27924 1.7516-0.26654 0.82503-0.78695 1.4977-0.50771 0.67271-1.2693 1.1804-0.74887 0.50771-1.7135 0.81234 0.64733 0.36809 1.117 1.0535l4.5948 6.7779h-3.0843q-0.8758 0-1.2693-0.68541l-3.8586-5.8767q-0.21578-0.33001-0.48233-0.46963-0.25385-0.13962-0.76156-0.13962zm0-2.4497h2.1324q0.96465 0 1.6754-0.24116 0.72349-0.24116 1.1804-0.66002 0.46963-0.43155 0.6981-1.0154 0.22847-0.58386 0.22847-1.282 0-1.3962-0.92657-2.1451-0.91388-0.74887-2.8051-0.74887h-2.1831z" fill="#fff"/>
<path d="m123.27 277.99v2.7162h-8.1487v5.0898h6.4225v2.6274h-6.4225v5.1913h8.1487v2.7289h-11.576v-18.354z" fill="#fff"/>
<path d="m135.49 288.73q0.21578 0.40617 0.39348 0.85042 0.19039 0.43155 0.36809 0.87579 0.17769-0.46963 0.36809-0.90118 0.19039-0.44424 0.40616-0.85041l5.4198-10.167q0.10154-0.19039 0.21577-0.30463 0.11424-0.11423 0.24116-0.165 0.13962-0.0508 0.30463-0.0635 0.165-0.0127 0.39347-0.0127h2.5766v18.354h-3.0082v-11.855q0-0.33001 0.0127-0.72348 0.0254-0.39348 0.0635-0.79964l-5.5467 10.408q-0.39348 0.74887-1.2058 0.74887h-0.48233q-0.81233 0-1.2058-0.74887l-5.6102-10.446q0.0381 0.41886 0.0635 0.82503 0.0254 0.39347 0.0254 0.73617v11.855h-3.0082v-18.354h2.5766q0.22847 0 0.39347 0.0127 0.16501 0.0127 0.29193 0.0635 0.13962 0.0508 0.24117 0.165 0.11423 0.11424 0.21577 0.30463l5.496 10.192z" fill="#fff"/>
<path d="m149.93 296.34v-18.345h5.2766q1.5687 0 2.7226 0.31115 1.1539 0.31116 1.9058 0.9205 0.75195 0.59637 1.115 1.465t0.36301 1.9706q0 0.72602-0.2593 1.4002-0.24632 0.67416-0.72602 1.2446-0.47969 0.57044-1.1798 0.99827-0.68713 0.41487-1.5687 0.63527 2.1651 0.32412 3.319 1.452 1.1668 1.115 1.1668 2.93 0 1.1668-0.41487 2.1003-0.41487 0.93345-1.2057 1.5817-0.79085 0.64823-1.9447 0.99827-1.1539 0.33708-2.6189 0.33708zm1.3354-8.79v7.7269h4.6024q2.4114 0 3.6431-1.0372 1.2446-1.0501 1.2446-2.943 0-0.86864-0.33708-1.5558-0.32412-0.70009-0.94642-1.1798-0.62231-0.49265-1.5298-0.75195-0.90753-0.25929-2.0614-0.25929zm0-0.97235h3.9672q1.2705 0 2.1651-0.32411 0.90753-0.32412 1.478-0.85567 0.58341-0.53155 0.85567-1.2057 0.27226-0.67417 0.27226-1.3872 0-1.854-1.1798-2.8004-1.1668-0.95938-3.6171-0.95938h-3.9413z" fill="#fff"/>
<path d="m171.45 288.78v7.5584h-1.3224v-7.5584l-6.7935-10.787h1.1668q0.1815 0 0.29818 0.0908 0.11668 0.0778 0.19447 0.23336l5.2507 8.427q0.16854 0.29819 0.29818 0.58341 0.14261 0.27226 0.24633 0.54452 0.10372-0.27226 0.23336-0.54452 0.14262-0.28522 0.31116-0.58341l5.2507-8.427q0.0648-0.14261 0.18151-0.23336 0.12964-0.0908 0.31115-0.0908h1.1668z" fill="#fff"/>
<path d="m193.61 293.25q0.12964 0 0.2204 0.0908l0.51858 0.55748q-0.57044 0.60934-1.2446 1.102-0.6612 0.47969-1.465 0.82973-0.79084 0.33708-1.7502 0.51859-0.94642 0.19447-2.0873 0.19447-1.9058 0-3.5004-0.6612-1.5817-0.67416-2.7226-1.8928-1.1409-1.2316-1.7762-2.9689-0.6223-1.7373-0.6223-3.8635 0-2.0873 0.64823-3.8116 0.64824-1.7243 1.815-2.9559 1.1668-1.2446 2.8004-1.9188 1.6336-0.68713 3.6042-0.68713 1.8799 0 3.3319 0.58341t2.6448 1.6465l-0.40191 0.58341q-0.10372 0.15557-0.32411 0.15557-0.15558 0-0.50563-0.28522-0.35004-0.28522-0.97234-0.6223-0.62231-0.35005-1.5558-0.63527-0.92049-0.28522-2.217-0.28522-1.6595 0-3.0467 0.57044-1.3742 0.57045-2.3725 1.6336-0.98532 1.0631-1.5428 2.5929t-0.55748 3.4356q0 1.9447 0.55748 3.4745 0.57045 1.5298 1.5558 2.5929 0.98532 1.0501 2.3207 1.6206 1.3483 0.55748 2.9041 0.55748 0.98531 0 1.7502-0.12965 0.77788-0.12964 1.4261-0.38894 0.64823-0.25929 1.2057-0.63526 0.55748-0.37598 1.102-0.8816 0.0648-0.0519 0.12965-0.0778 0.0648-0.0389 0.12965-0.0389z" fill="#fff"/>
<path d="m204.92 294.13h4.5791v2.42h-13.009v-4.2283q0-1.3045 0.30588-2.2581 0.30587-0.95361 0.85465-1.5744 0.54877-0.62074 1.3135-0.91762 0.76469-0.30588 1.6733-0.30588 0.94461 0 1.7363 0.31487 0.78268 0.31487 1.3494 0.94462 0.56677 0.62974 0.88164 1.5834 0.31487 0.94461 0.31487 2.2131zm-1.8892 0v-1.8083q0-0.66573-0.16194-1.1605-0.17093-0.4948-0.4768-0.81867-0.31487-0.33286-0.75569-0.4948-0.44982-0.16193-0.99859-0.16193-0.52179 0-0.94462 0.16193-0.42282 0.16194-0.7197 0.48581-0.29688 0.32386-0.44982 0.81866-0.16193 0.4948-0.16193 1.1695v1.8083z" fill="#f00"/>
<path d="m207.5 282.99v-5.1999h1.9972v7.6199h-13.009v-2.42z" fill="#f00"/>
</g>
</svg>